SplineFontDB: 3.0
FontName: Verana-BoldItalic
FullName: Verana Bold Italic
FamilyName: Verana
Weight: Bold
Copyright: Copyright (c) Arkandis Digital fondry, from initial release of Bitstream VeraSerif Font modified  and under Public Domain.
Version: 1.002
ItalicAngle: -12
UnderlinePosition: -100
UnderlineWidth: 50
Ascent: 760
Descent: 240
sfntRevision: 0x00010041
LayerCount: 2
Layer: 0 0 "Arri+AOgA-re"  1
Layer: 1 0 "Avant"  0
NeedsXUIDChange: 1
XUID: [1021 905 1196402830 16747858]
BaseHoriz: 2 'ideo' 'romn'
BaseScript: 'latn' 1  -135 0
FSType: 8
OS2Version: 2
OS2_WeightWidthSlopeOnly: 0
OS2_UseTypoMetrics: 1
CreationTime: 1214138594
ModificationTime: 1312110542
PfmFamily: 17
TTFWeight: 700
TTFWidth: 5
LineGap: 200
VLineGap: 0
Panose: 2 0 8 6 6 0 0 9 0 3
OS2TypoAscent: 0
OS2TypoAOffset: 1
OS2TypoDescent: 0
OS2TypoDOffset: 1
OS2TypoLinegap: 200
OS2WinAscent: 0
OS2WinAOffset: 1
OS2WinDescent: 0
OS2WinDOffset: 1
HheadAscent: -179
HheadAOffset: 1
HheadDescent: -4
HheadDOffset: 1
OS2SubXSize: 650
OS2SubYSize: 600
OS2SubXOff: -16
OS2SubYOff: 75
OS2SupXSize: 650
OS2SupYSize: 600
OS2SupXOff: 74
OS2SupYOff: 350
OS2StrikeYSize: 100
OS2StrikeYPos: 311
OS2Vendor: 'ADFP'
OS2CodePages: 00000003.00000000
OS2UnicodeRanges: 800000af.5000204a.00000000.00000000
Lookup: 1 0 0 "'aalt' Activer toutes les variantes dans Latin lookup 0"  {"sous-table 'aalt' Activer toutes les variantes dans Latin lookup 0"  } ['aalt' ('latn' <'dflt' > ) ]
Lookup: 3 0 0 "'aalt' Activer toutes les variantes dans Latin lookup 1"  {"sous-table 'aalt' Activer toutes les variantes dans Latin lookup 1"  } ['aalt' ('latn' <'dflt' > ) ]
Lookup: 1 0 0 "'numr' Num+AOkA-rateurs dans Latin lookup 2"  {"sous-table 'numr' Num+AOkA-rateurs dans Latin lookup 2"  } ['numr' ('latn' <'dflt' > ) ]
Lookup: 1 0 0 "'dnom' D+AOkA-nominateurs dans Latin lookup 3"  {"sous-table 'dnom' D+AOkA-nominateurs dans Latin lookup 3"  } ['dnom' ('latn' <'dflt' > ) ]

StartChar: .notdef
Encoding: 65536 -1 0
Width: 600
Flags: W
HStem: -177 56<80 468> 649 56<243 631>
LayerCount: 2
Fore
SplineSet
12 -177 m 1
 199 705 l 1
 699 705 l 1
 512 -177 l 1
 12 -177 l 1
80 -121 m 1
 468 -121 l 1
 631 649 l 1
 243 649 l 1
 80 -121 l 1
EndSplineSet
Validated: 1
EndChar

StartChar: exclam
Encoding: 33 33 2
Width: 439
Flags: W
HStem: -14 186<192.591 278.409> 709 20G<280.54 465>
VStem: 143 322
LayerCount: 2
Fore
SplineSet
143 79 m 0
 154 130 204 172 255 172 c 0
 299.370376661 172 330.116322007 140.209660265 330.116322007 98.3601332182 c 0
 330.116322007 92.1071639599 329.429918759 85.6296233391 328 79 c 0
 317 28 267 -14 216 -14 c 0
 171.629623339 -14 140.883677993 17.7903397351 140.883677993 59.6398667818 c 0
 140.883677993 65.8928360401 141.570081241 72.3703766609 143 79 c 0
282 729 m 1
 465 729 l 1
 320 318 l 1
 300 225 l 1
 232 225 l 1
 252 318 l 1
 282 729 l 1
EndSplineSet
Validated: 524289
Position2: "sous-table 'cpsp' Chasses pour composition en capitales dans Latin lookup 1" dx=5 dy=0 dh=10 dv=0
EndChar

StartChar: quotedbl
Encoding: 34 34 3
Width: 521
Flags: W
HStem: 458 271<249 308 464 523>
LayerCount: 2
Fore
SplineSet
365 729 m 1
 308 458 l 1
 192 458 l 1
 249 729 l 1
 365 729 l 1
580 729 m 1
 523 458 l 1
 407 458 l 1
 464 729 l 1
 580 729 l 1
EndSplineSet
Validated: 1
EndChar

StartChar: numbersign
Encoding: 35 35 4
Width: 838
Flags: W
HStem: 0 21G<157 275.198 395 512.198> 187 105<130 243 399 481 637 753> 426 104<236 352 510 590 747 860>
LayerCount: 2
Fore
SplineSet
590 426 m 1
 461 426 l 1
 399 292 l 1
 528 292 l 1
 590 426 l 1
597 718 m 1
 510 530 l 1
 639 530 l 1
 726 718 l 1
 834 718 l 1
 747 530 l 1
 882 530 l 1
 860 426 l 1
 699 426 l 1
 637 292 l 1
 776 292 l 1
 753 187 l 1
 589 187 l 1
 503 0 l 1
 395 0 l 1
 481 187 l 1
 352 187 l 1
 266 0 l 1
 157 0 l 1
 243 187 l 1
 107 187 l 1
 130 292 l 1
 290 292 l 1
 352 426 l 1
 214 426 l 1
 236 530 l 1
 401 530 l 1
 488 718 l 1
 597 718 l 1
EndSplineSet
Validated: 1
EndChar

StartChar: dollar
Encoding: 36 36 5
Width: 696
Flags: W
HStem: -14 55<229.421 313 383 451.963> 575 55<373.383 438 508 573.63> 741 20G<472.725 536>
VStem: 131 59<151.079 171> 176.807 152.738<354.076 489.546> 503.296 153.051<130.077 245.576>
LayerCount: 2
Fore
SplineSet
101 29 m 1xec
 131 171 l 1
 190 171 l 1xf4
 189.360511182 163.965623007 189.040511387 157.225175914 189.040511387 150.776615624 c 0
 189.040511387 76.5537381938 231.434057504 41 317 41 c 2
 324 41 l 1
 366 239 l 1
 234.122771944 269.629549742 176.806839947 314.737021049 176.806839947 393.415495561 c 0
 176.806839947 407.210632521 178.568879002 422.0378284 182 438 c 1
 206 555 305 626 449 630 c 1
 477 761 l 1
 536 761 l 1
 508 630 l 1
 581 626 644 612 701 587 c 1
 673 454 l 1
 614 454 l 1
 614.272709178 458.145179502 614.408577012 462.195165026 614.408577012 466.148171802 c 0
 614.408577012 534.67176462 573.58211132 574.054541836 497 575 c 1
 458 393 l 1
 541 374 597 348 625 315 c 1
 646.13109577 292.460164512 656.347179778 263.470549345 656.347179778 227.681690625 c 0
 656.347179778 212.660796113 654.547561692 196.442178318 651 179 c 0
 625 59 524 -10 372 -14 c 1
 343 -146 l 1
 284 -146 l 1
 313 -14 l 1
 241 -13 171 1 101 29 c 1xec
438 575 m 1
 380 568 340 539 332 499 c 0
 330.377223398 491.697505292 329.544467966 484.895357326 329.544467966 478.542274985 c 0xec
 329.544467966 445.745899944 351.73665961 424.916724457 402 409 c 1
 438 575 l 1
383 41 m 1
 450 48 491 77 501 125 c 0
 502.51582731 132.275971088 503.296380241 139.138350337 503.296380241 145.615001474 c 0
 503.296380241 181.865190616 478.843957023 206.03165462 422 223 c 1
 383 41 l 1
EndSplineSet
Validated: 524289
EndChar

StartChar: percent
Encoding: 37 37 6
Width: 950
Flags: W
HStem: -14 49<707.464 782.471> 334 49<760.585 838.598> 345 49<265.464 340.471> 693 49<321.964 397.045>
VStem: 132.122 127.48<402.268 582.656> 402.905 126.973<507.887 685.435> 574.122 127.48<43.3338 223.656> 844.601 127.277<146.305 326.358>
LayerCount: 2
Fore
SplineSet
363 693 m 0xbf
 322 693 295 652 272 544 c 0
 263.734375 504.828125 259.6015625 474.438476562 259.6015625 451.577892303 c 0
 259.6015625 410.826416016 272.734375 394 299 394 c 0
 342 394 367 435 390 544 c 0
 398.502361651 583.924132969 402.90509266 614.692424173 402.90509266 637.61830854 c 0
 402.90509266 676.709939082 390.104280392 693 363 693 c 0xbf
373 742 m 0
 475.872513294 742 529.878251523 693.821489373 529.878251523 604.316419007 c 0
 529.878251523 585.934276647 527.600339847 565.809018535 523 544 c 0
 496 416 413 345 289 345 c 0
 186.127486706 345 132.121748477 393.866775064 132.121748477 483.606382491 c 0
 132.121748477 502.036693001 134.399660153 522.190981465 139 544 c 0
 166 672 249 742 373 742 c 0
818 742 m 1
 902 742 l 1
 286 -14 l 1
 202 -14 l 1
 818 742 l 1
815 383 m 0xdf
 917.872513294 383 971.878251523 334.821489373 971.878251523 245.316419007 c 0
 971.878251523 226.934276647 969.600339847 206.809018535 965 185 c 0
 938 57 855 -14 731 -14 c 0
 628.127486706 -14 574.121748477 34.8667750643 574.121748477 124.606382491 c 0
 574.121748477 143.036693001 576.399660153 163.190981465 581 185 c 0
 608 313 691 383 815 383 c 0xdf
804 334 m 0
 761 334 737 293 714 185 c 0
 705.734375 146.1875 701.6015625 115.898925781 701.6015625 93.0203552246 c 0
 701.6015625 52.2368164062 714.734375 35 741 35 c 0
 784 35 809 77 832 185 c 0
 840.337278505 224.148959938 844.601179697 254.494168907 844.601179697 277.274032109 c 0
 844.601179697 317.336840327 831.412914099 334 804 334 c 0
EndSplineSet
Validated: 524289
Ligature2: "sous-table Remplacement de ligature lookups12" zero fraction zero
Ligature2: "sous-table Remplacement de ligature lookups12" zero slash zero
EndChar

StartChar: ampersand
Encoding: 38 38 7
Width: 903
Flags: W
HStem: -14 77<325.295 487.367> 0 59<814 885> 388 59<727 803 864.46 958> 683 59<499.272 646.232>
VStem: 80.5422 180.03<125.918 271.729> 283.15 168.775<519.915 623.71> 803 69<332.984 388>
LayerCount: 2
Fore
SplineSet
885 0 m 1x7e
 651 0 l 1x7e
 602 64 l 1
 526 12 442 -14 349 -14 c 0xbe
 252 -14 179 7 133 48 c 0
 98.1728020709 79.7987459353 80.5422069148 120.195793257 80.5422069148 169.625134348 c 0
 80.5422069148 185.482403303 82.3566949769 202.269248888 86 220 c 0
 109 327 180 400 311 453 c 1
 292.727460298 486.499656121 283.149860886 517.100998811 283.149860886 546.128016752 c 0
 283.149860886 555.22642866 284.090846567 564.170165374 286 573 c 0
 309 680 415 742 578 742 c 0
 626 742 689 734 766 719 c 1
 734 567 l 1
 671 567 l 1
 671.365292263 572.844676206 671.549108251 578.454500762 671.549108251 583.832593287 c 0
 671.549108251 652.068057236 641.958966772 683 578 683 c 0
 513 683 464 649 453 596 c 0
 452.285110668 592.425553338 451.925128806 588.638162193 451.925128806 584.63951803 c 0
 451.925128806 555.07791183 471.599966437 513.970254898 513 462 c 2
 524 448 l 1
 699 213 l 1
 747 257 780 315 803 388 c 1
 714 388 l 1
 727 447 l 1
 971 447 l 1
 958 388 l 1
 872 388 l 1
 841 293 795 221 735 164 c 1
 814 59 l 1
 897 59 l 1
 885 0 l 1x7e
566 112 m 1
 351 399 l 1
 306 355 277 305 266 252 c 0
 262.372587243 235.374358198 260.572691612 219.571099102 260.572691612 204.645465704 c 0
 260.572691612 170.19496995 270.161678703 140.420046126 289 116 c 0
 317 81 357 63 410 63 c 0xbe
 461 63 511 79 566 112 c 1
EndSplineSet
Validated: 524289
Position2: "sous-table 'cpsp' Chasses pour composition en capitales dans Latin lookup 1" dx=5 dy=0 dh=10 dv=0
EndChar

StartChar: quotesingle
Encoding: 39 39 8
Width: 306
Flags: W
HStem: 458 271<249 308>
VStem: 192 173
LayerCount: 2
Fore
SplineSet
365 729 m 1
 308 458 l 1
 192 458 l 1
 249 729 l 1
 365 729 l 1
EndSplineSet
Validated: 1
EndChar

StartChar: parenleft
Encoding: 40 40 9
Width: 473
Flags: W
HStem: 740 20G<461.5 577.932>
VStem: 143.981 169.809<49.4325 280.709>
LayerCount: 2
Fore
SplineSet
387 -156 m 1
 224.290370025 -90.7550493665 143.980794167 20.5560732536 143.980794167 178.97860699 c 0
 143.980794167 217.233748814 148.663674449 258.235973982 158 302 c 0
 206 527 341 673 582 760 c 1
 570 701 l 1
 512 670 465 623 429 562 c 0
 393 501 363 414 340 302 c 0
 322.77285071 221.606636647 313.789442327 154.094118461 313.789442327 99.8322791809 c 0
 313.789442327 78.499246622 315.177978871 59.214328888 318 42 c 0
 328 -19 355 -66 400 -97 c 1
 387 -156 l 1
EndSplineSet
Validated: 524289
EndChar

StartChar: parenright
Encoding: 41 41 10
Width: 473
Flags: W
HStem: 740 20G<207.932 293.773>
VStem: 285.233 170.779<319.403 552.292>
LayerCount: 2
Fore
SplineSet
17 -156 m 1
 30 -97 l 1
 87 -66 134 -19 170 42 c 0
 206 103 236 190 260 302 c 0
 276.455949529 382.133319447 285.233309033 449.468988852 285.233309033 503.64075172 c 0
 285.233309033 525.183279525 283.845239335 544.644040056 281 562 c 0
 271 623 244 670 200 701 c 1
 212 760 l 1
 375.546098199 689.908815058 456.011855738 581.522785593 456.011855738 424.383579131 c 0
 456.011855738 386.475277501 451.329001411 345.729694115 442 302 c 0
 394 77 254 -75 17 -156 c 1
EndSplineSet
Validated: 524289
EndChar

StartChar: asterisk
Encoding: 42 42 11
Width: 523
Flags: W
HStem: 722 20G<371.173 463>
LayerCount: 2
Fore
SplineSet
626 592 m 1
 433 510 l 1
 591 427 l 1
 527 351 l 1
 392 468 l 1
 365 278 l 1
 276 278 l 1
 329 468 l 1
 144 351 l 1
 112 427 l 1
 306 510 l 1
 147 592 l 1
 212 669 l 1
 347 551 l 1
 374 742 l 1
 463 742 l 1
 410 551 l 1
 595 669 l 1
 626 592 l 1
EndSplineSet
Validated: 1
EndChar

StartChar: plus
Encoding: 43 43 12
Width: 838
Flags: W
HStem: 1 21G<363 479.202> 258 112<184 417 553 786>
LayerCount: 2
Fore
SplineSet
608 627 m 1
 553 370 l 1
 810 370 l 1
 786 258 l 1
 529 258 l 1
 475 1 l 1
 363 1 l 1
 417 258 l 1
 160 258 l 1
 184 370 l 1
 441 370 l 1
 496 627 l 1
 608 627 l 1
EndSplineSet
Validated: 1
EndChar

StartChar: comma
Encoding: 44 44 13
Width: 348
Flags: W
HStem: -165 321
VStem: -8 292
LayerCount: 2
Fore
SplineSet
-8 -96 m 1
 72 -41 116 23 136 114 c 2
 145 156 l 1
 284 156 l 1
 283 152 l 1
 252 8 172 -94 31 -165 c 1
 -8 -96 l 1
EndSplineSet
Validated: 1
EndChar

StartChar: hyphen
Encoding: 45 45 14
Width: 415
Flags: W
HStem: 202 132<124 403>
LayerCount: 2
Fore
SplineSet
124 334 m 1
 431 334 l 1
 403 202 l 1
 96 202 l 1
 124 334 l 1
EndSplineSet
Validated: 1
AlternateSubs2: "sous-table 'aalt' Activer toutes les variantes dans Latin lookup 1" endash emdash minus
EndChar

StartChar: period
Encoding: 46 46 15
Width: 348
Flags: W
HStem: -14 186<146.412 233.409>
VStem: 94.9291 190.187<36.8212 120.696>
LayerCount: 2
Fore
SplineSet
97 79 m 0
 108 130 159 172 210 172 c 0
 254.370376661 172 285.116322007 140.209660265 285.116322007 98.3601332182 c 0
 285.116322007 92.1071639599 284.429918759 85.6296233391 283 79 c 0
 272 28 222 -14 171 -14 c 0
 126.490298778 -14 94.9290518229 17.9902987778 94.9290518229 60.0343906659 c 0
 94.9290518229 66.1651601544 95.6001316362 72.5097012222 97 79 c 0
EndSplineSet
Validated: 524289
Substitution2: "sous-table 'aalt' Activer toutes les variantes dans Latin lookup 0" ellipsis
EndChar

StartChar: slash
Encoding: 47 47 16
Width: 365
Flags: W
HStem: 709 20G<400.513 519>
LayerCount: 2
Fore
SplineSet
411 729 m 1
 519 729 l 1
 88 -93 l 1
 -20 -93 l 1
 411 729 l 1
EndSplineSet
Validated: 1
Substitution2: "sous-table 'dnom' D+AOkA-nominateurs dans Latin lookup 3" fraction
Substitution2: "sous-table 'numr' Num+AOkA-rateurs dans Latin lookup 2" fraction
Substitution2: "sous-table 'aalt' Activer toutes les variantes dans Latin lookup 0" fraction
EndChar

StartChar: zero
Encoding: 48 48 17
Width: 696
Flags: W
HStem: -14 57<302.476 418.18> 685 57<431.82 547.084>
VStem: 108.294 177.298<107.62 289.258> 563.941 177.765<439.149 620.451>
LayerCount: 2
Fore
SplineSet
357 43 m 0
 396 43 426 61 448 96 c 0
 470 131 496 221 527 364 c 0
 551.446631667 479.714056556 563.940507337 560.233887121 563.940507337 605.559491695 c 0
 563.940507337 615.855788565 563.295785944 624.335958 562 631 c 0
 555 667 532 685 493 685 c 0
 454 685 424 667 402 632 c 0
 379 597 353 507 323 364 c 0
 298.23131393 249.744448129 285.591939393 169.323291586 285.591939393 123.756656381 c 0
 285.591939393 112.292987783 286.391918986 103.035354437 288 96 c 0
 295 61 318 43 357 43 c 0
345 -14 m 0
 189.398000629 -14 108.294408053 71.3229616279 108.294408053 229.774695748 c 0
 108.294408053 269.894241421 113.493866499 314.701988956 124 364 c 0
 176 608 310 742 505 742 c 0
 660.601999371 742 741.705591947 656.677038372 741.705591947 498.225304252 c 0
 741.705591947 458.105758579 736.506133501 413.298011044 726 364 c 0
 674 120 540 -14 345 -14 c 0
EndSplineSet
Validated: 524289
Position2: "sous-table 'cpsp' Chasses pour composition en capitales dans Latin lookup 1" dx=5 dy=0 dh=10 dv=0
EndChar

StartChar: one
Encoding: 49 49 18
Width: 696
Flags: W
HStem: 0 59<149 286 471 596> 722 20G<424.545 616>
LayerCount: 2
Fore
SplineSet
137 0 m 1
 149 59 l 1
 286 59 l 1
 411 649 l 1
 240 559 l 1
 256 632 l 1
 462 742 l 1
 616 742 l 1
 471 59 l 1
 608 59 l 1
 596 0 l 1
 137 0 l 1
EndSplineSet
Validated: 1
Position2: "sous-table 'cpsp' Chasses pour composition en capitales dans Latin lookup 1" dx=5 dy=0 dh=10 dv=0
EndChar

StartChar: two
Encoding: 50 50 19
Width: 696
Flags: W
HStem: 0 128<221 566> 685 57<331.949 483.572>
VStem: 189 59<549 581.324> 520.365 200.541<477.027 648.808>
LayerCount: 2
Fore
SplineSet
248 549 m 1
 189 549 l 1
 223 706 l 1
 308 730 387 742 466 742 c 0
 629.289731127 742 720.90538369 679.674714293 720.90538369 572.21515495 c 0
 720.90538369 557.927814832 719.285878532 542.842628637 716 527 c 1
 705 479 682 436 645 397 c 0
 608 359 544 314 452 261 c 2
 221 128 l 1
 566 128 l 1
 584 214 l 1
 651 214 l 1
 606 0 l 1
 67 0 l 1
 92 119 l 1
 216 194 l 2
 321 257 394 311 434 356 c 0
 475 401 501 453 513 512 c 0
 517.92416562 535.184613127 520.364655865 556.138128035 520.364655865 574.800085542 c 0
 520.364655865 647.095056531 483.739552493 685 413 685 c 0
 336 685 279 637 248 549 c 1
EndSplineSet
Validated: 524289
Position2: "sous-table 'cpsp' Chasses pour composition en capitales dans Latin lookup 1" dx=5 dy=0 dh=10 dv=0
EndChar

StartChar: three
Encoding: 51 51 20
Width: 696
Flags: W
HStem: -14 57<204.307 379.547> 366 59<329 435.526> 685 57<338.921 500.616>
VStem: 109 59<153.948 185> 205 59<562 594.968> 480.802 198.609<154.583 321.226> 530.382 194.676<512.141 655.812>
LayerCount: 2
Fore
SplineSet
236 708 m 1xfa
 326 731 409 742 486 742 c 0
 642.11469965 742 725.057351632 690.858246254 725.057351632 597.647442768 c 0xfa
 725.057351632 585.774602943 723.711631866 573.219205346 721 560 c 0
 702 472 635 417 527 398 c 1
 628.987529116 381.416661932 679.411226707 333.207507196 679.411226707 251.662334891 c 0
 679.411226707 234.861598824 677.270827415 216.645806111 673 197 c 0
 644 61 518 -14 314 -14 c 0
 237 -14 158 -2 75 25 c 1
 109 185 l 1
 168 185 l 1
 166.428146083 173.876110744 165.645754508 163.366247753 165.645754508 153.484552561 c 0
 165.645754508 81.6397996754 207.002977416 43 287 43 c 0
 386 43 454 100 475 201 c 1
 478.885659045 218.738878248 480.801968584 235.193398123 480.801968584 250.291232396 c 0xfc
 480.801968584 324.560525881 434.430063449 366 348 366 c 2
 316 366 l 1
 329 425 l 1
 354 425 l 2
 450 425 507 469 526 557 c 0
 528.935604023 570.536396327 530.381716765 583.062066428 530.381716765 594.546645327 c 0
 530.381716765 653.481107478 492.300514561 685 422 685 c 0
 345 685 290 642 264 562 c 1
 205 562 l 1
 236 708 l 1xfa
EndSplineSet
Validated: 524289
Position2: "sous-table 'cpsp' Chasses pour composition en capitales dans Latin lookup 1" dx=5 dy=0 dh=10 dv=0
EndChar

StartChar: four
Encoding: 52 52 21
Width: 696
Flags: W
HStem: 0 59<249 357 542 638> 192 63<182 385 584 695> 722 20G<486.401 687>
LayerCount: 2
Fore
SplineSet
638 0 m 1
 237 0 l 1
 249 59 l 1
 357 59 l 1
 385 192 l 1
 81 192 l 1
 93 248 l 1
 503 742 l 1
 687 742 l 1
 584 255 l 1
 709 255 l 1
 695 192 l 1
 570 192 l 1
 542 59 l 1
 650 59 l 1
 638 0 l 1
399 255 m 1
 474 609 l 1
 182 255 l 1
 399 255 l 1
EndSplineSet
Validated: 1
Position2: "sous-table 'cpsp' Chasses pour composition en capitales dans Latin lookup 1" dx=5 dy=0 dh=10 dv=0
EndChar

StartChar: five
Encoding: 53 53 22
Width: 696
Flags: W
HStem: -14 57<207.291 371.387> 431 60<320.603 446.411> 601 128<301 691>
VStem: 121 59<152.265 185> 480.8 196.425<193.383 389.605>
LayerCount: 2
Fore
SplineSet
718 729 m 1
 691 601 l 1
 301 601 l 1
 267 441 l 1
 317 474 374 491 433 491 c 0
 523 491 589 468 631 423 c 0
 661.816666667 390.75 677.225 349.768611111 677.225 300.423921296 c 0
 677.225 280.915555556 674.816666667 260.1 670 238 c 0
 636 79 508 -14 320 -14 c 0
 241 -14 166 -2 87 26 c 1
 121 185 l 1
 180 185 l 1
 177.238408122 169.405128216 175.849038612 155.129701016 175.849038612 142.156571262 c 0
 175.849038612 75.2688035584 212.782638879 43 289 43 c 0
 385 43 443 106 471 238 c 0
 477.533333333 268.1 480.8 294.661111111 480.8 317.696037037 c 0
 480.8 393.382222222 445.533333333 431 375 431 c 0
 326 431 284 411 242 368 c 1
 193 368 l 1
 269 729 l 1
 718 729 l 1
EndSplineSet
Validated: 524289
Position2: "sous-table 'cpsp' Chasses pour composition en capitales dans Latin lookup 1" dx=5 dy=0 dh=10 dv=0
EndChar

StartChar: six
Encoding: 54 54 23
Width: 696
Flags: W
HStem: -14 57<313.24 418.928> 425 58<390.588 567.599> 584 129<669 728> 685 57<467.499 633.413>
VStem: 120.399 176.096<101.769 265.801> 511.75 187.87<205.619 399.824> 669 59<584 617.444>
LayerCount: 2
Fore
SplineSet
337 432 m 1xda
 388 467 442 483 505 483 c 0
 630.198794587 483 699.620627996 417.338514056 699.620627996 306.186222855 c 0
 699.620627996 285.055360344 697.111668277 262.280424313 692 238 c 0
 658 77 540 -14 363 -14 c 0
 202.830198647 -14 120.398935004 65.034180005 120.398935004 217.366986097 c 0
 120.398935004 254.297250548 125.243668682 295.535496056 135 341 c 0
 191 606 335 742 559 742 c 0xdc
 618 742 682 733 755 713 c 1
 728 584 l 1
 669 584 l 1xea
 667 651 628 685 556 685 c 0
 440 685 376 611 337 432 c 1xda
364 43 m 0
 431 43 467 93 497 234 c 0
 506.753371204 279.515732286 511.750329916 315.624337643 511.750329916 343.631638405 c 0
 511.750329916 401.770861269 490.217470977 425 445 425 c 0
 378 425 341 374 311 234 c 0
 301.38487435 188.808909446 296.495003698 152.965605952 296.495003698 125.120241156 c 0
 296.495003698 66.0857279039 318.473780618 43 364 43 c 0
EndSplineSet
Validated: 524289
Position2: "sous-table 'cpsp' Chasses pour composition en capitales dans Latin lookup 1" dx=5 dy=0 dh=10 dv=0
EndChar

StartChar: seven
Encoding: 55 55 24
Width: 696
Flags: W
HStem: 0 21G<213 326.182> 591 138<271 631>
LayerCount: 2
Fore
SplineSet
741 605 m 1
 312 0 l 1
 213 0 l 1
 631 591 l 1
 271 591 l 1
 250 492 l 1
 183 492 l 1
 233 729 l 1
 767 729 l 1
 741 605 l 1
EndSplineSet
Validated: 1
Position2: "sous-table 'cpsp' Chasses pour composition en capitales dans Latin lookup 1" dx=5 dy=0 dh=10 dv=0
EndChar

StartChar: eight
Encoding: 56 56 25
Width: 696
Flags: W
HStem: -14 57<296.24 427.174> 359 57<382.095 486.753> 685 57<431.405 545.416>
VStem: 87.6246 190.124<69.9196 244.432> 188.677 183.347<444.901 596.39> 501.208 187.139<162.107 321.742> 554.61 185.15<503.494 668.823>
LayerCount: 2
Fore
SplineSet
547 388 m 1xea
 640.839046714 372.080876004 688.346731708 321.764225882 688.346731708 242.931665998 c 0
 688.346731708 227.674963298 686.56733011 211.350196443 683 194 c 0
 654 59 535 -14 344 -14 c 0
 176.669196328 -14 87.6245959252 42.0283611634 87.6245959252 146.688685461 c 0xf4
 87.6245959252 161.493047295 89.406247678 177.270463328 93 194 c 0
 115 301 192 369 311 388 c 1
 228.660621334 408.164745796 188.677177356 450.213391181 188.677177356 513.552813477 c 0
 188.677177356 525.599718909 190.123559347 538.416808027 193 552 c 0
 219 676 328 742 504 742 c 0
 658.469123198 742 739.760061606 691.160418988 739.760061606 594.889759377 c 0
 739.760061606 581.470950046 738.180697709 567.169481383 735 552 c 0
 717 467 655 412 547 388 c 1xea
545 550 m 0
 551.342842039 579.696033181 554.610124429 603.490316767 554.610124429 622.317499127 c 0
 554.610124429 668.791960633 534.701339894 685 492 685 c 0
 432 685 403 653 381 550 c 0
 375.083371949 520.980348132 372.024416347 497.676041161 372.024416347 479.170122494 c 0xea
 372.024416347 431.992633538 391.904651573 416 435 416 c 0
 496 416 524 447 545 550 c 0
490 202 m 0
 497.372952141 236.029009879 501.207651879 263.383589091 501.207651879 285.112705135 c 0
 501.207651879 340.009207482 476.731868825 359 423 359 c 0
 348 359 314 322 288 202 c 0
 281.219044812 169.451415096 277.748747058 142.862013575 277.748747058 121.393683768 c 0xf4
 277.748747058 63.7126562561 302.80038915 43 356 43 c 0
 429 43 465 82 490 202 c 0
EndSplineSet
Validated: 524289
Position2: "sous-table 'cpsp' Chasses pour composition en capitales dans Latin lookup 1" dx=5 dy=0 dh=10 dv=0
EndChar

StartChar: nine
Encoding: 57 57 26
Width: 696
Flags: W
HStem: -14 57<216.293 382.255> 15 129<122 181> 245 58<282.893 456.489> 685 57<427.367 537.343>
VStem: 122 59<110.556 144> 150.105 188.145<329.743 525.921> 553.061 176.154<461.933 625.995>
LayerCount: 2
Fore
SplineSet
486 685 m 0x36
 419 685 382 635 353 494 c 1
 343.246628796 448.484267714 338.249670084 412.375662357 338.249670084 384.368361595 c 0
 338.249670084 326.229138731 359.782529023 303 405 303 c 0
 472 303 509 354 539 494 c 1
 548.286477539 539.151494241 553.061062969 574.971575257 553.061062969 602.806546318 c 0
 553.061062969 661.895186217 531.545034651 685 486 685 c 0x36
513 297 m 1
 461 262 406 245 345 245 c 0
 220.785008772 245 150.105064452 309.8055831 150.105064452 421.08944517 c 0
 150.105064452 442.398367783 152.696585882 465.411443635 158 490 c 0
 192 651 310 742 486 742 c 0
 647.26968134 742 729.215236816 662.675874135 729.215236816 509.79476755 c 0
 729.215236816 473.079038183 724.488928072 432.120821239 715 387 c 1
 658 122 515 -14 291 -14 c 0xb6
 232 -14 166 -5 95 15 c 1
 122 144 l 1
 181 144 l 1x7a
 183 77 222 43 294 43 c 0xba
 409 43 474 118 513 297 c 1
EndSplineSet
Validated: 524289
Position2: "sous-table 'cpsp' Chasses pour composition en capitales dans Latin lookup 1" dx=5 dy=0 dh=10 dv=0
EndChar

StartChar: colon
Encoding: 58 58 27
Width: 369
Flags: W
HStem: -14 186<157.591 243.409> 305 185<224.819 312.003>
VStem: 108 255.116
LayerCount: 2
Fore
SplineSet
176 397 m 0
 187 449 237 490 288 490 c 0
 332.370376661 490 363.116322007 458.209660265 363.116322007 416.360133218 c 0
 363.116322007 410.10716396 362.429918759 403.629623339 361 397 c 0
 350 346 300 305 248 305 c 0
 203.774375741 305 173.836414297 335.831272389 173.836414297 377.278848105 c 0
 173.836414297 383.62768899 174.538860134 390.225624259 176 397 c 0
108 79 m 0
 119 130 169 172 220 172 c 0
 264.370376661 172 295.116322007 140.209660265 295.116322007 98.3601332182 c 0
 295.116322007 92.1071639599 294.429918759 85.6296233391 293 79 c 0
 282 28 232 -14 181 -14 c 0
 136.629623339 -14 105.883677993 17.7903397351 105.883677993 59.6398667818 c 0
 105.883677993 65.8928360401 106.570081241 72.3703766609 108 79 c 0
EndSplineSet
Validated: 524289
EndChar

StartChar: semicolon
Encoding: 59 59 28
Width: 369
Flags: W
HStem: 305 185<224.819 312.003>
LayerCount: 2
Fore
SplineSet
176 397 m 0
 187 449 237 490 288 490 c 0
 332.370376661 490 363.116322007 458.209660265 363.116322007 416.360133218 c 0
 363.116322007 410.10716396 362.429918759 403.629623339 361 397 c 0
 350 346 300 305 248 305 c 0
 203.774375741 305 173.836414297 335.831272389 173.836414297 377.278848105 c 0
 173.836414297 383.62768899 174.538860134 390.225624259 176 397 c 0
6 -92 m 1
 86 -37 130 28 149 117 c 1
 159 160 l 1
 298 160 l 1
 266 13 184 -90 45 -161 c 1
 6 -92 l 1
EndSplineSet
Validated: 524289
EndChar

StartChar: less
Encoding: 60 60 29
Width: 838
Flags: W
LayerCount: 2
Fore
SplineSet
833 478 m 1
 320 313 l 1
 763 149 l 1
 738 32 l 1
 161 259 l 1
 184 369 l 1
 858 595 l 1
 833 478 l 1
EndSplineSet
Validated: 1
EndChar

StartChar: equal
Encoding: 61 61 30
Width: 838
Flags: W
HStem: 147 111<160 763> 369 111<208 810>
LayerCount: 2
Fore
SplineSet
160 258 m 1
 786 258 l 1
 763 147 l 1
 137 147 l 1
 160 258 l 1
208 480 m 1
 834 480 l 1
 810 369 l 1
 184 369 l 1
 208 480 l 1
EndSplineSet
Validated: 1
EndChar

StartChar: greater
Encoding: 62 62 31
Width: 838
Flags: W
LayerCount: 2
Fore
SplineSet
207 478 m 1
 232 595 l 1
 810 369 l 1
 787 259 l 1
 112 32 l 1
 137 149 l 1
 650 313 l 1
 207 478 l 1
EndSplineSet
Validated: 1
EndChar

StartChar: question
Encoding: 63 63 32
Width: 586
Flags: W
HStem: -14 186<232.412 319.409> 687 55<310.24 451.84>
VStem: 183 59<559 591.812> 479.024 180.72<493.101 659.526>
LayerCount: 2
Fore
SplineSet
183 79 m 0
 194 130 245 172 296 172 c 0
 340.370376661 172 371.116322007 140.209660265 371.116322007 98.3601332182 c 0
 371.116322007 92.1071639599 370.429918759 85.6296233391 369 79 c 0
 358 28 308 -14 257 -14 c 0
 212.490298778 -14 180.929051823 17.9902987778 180.929051823 60.0343906659 c 0
 180.929051823 66.1651601544 181.600131636 72.5097012222 183 79 c 0
215 709 m 1
 300 732 375 742 443 742 c 0
 584.498929239 742 659.744390273 686.16842567 659.744390273 585.424125445 c 0
 659.744390273 569.403830166 657.841646228 552.247819581 654 534 c 0
 626 403 523 325 360 313 c 1
 339 213 l 1
 271 213 l 1
 302 359 l 1
 399 387 452 445 473 545 c 0
 477.024292394 563.712959632 479.024218629 580.644477043 479.024218629 595.753819029 c 0
 479.024218629 655.735153894 447.506474283 687 386 687 c 0
 315 687 265 644 242 559 c 1
 183 559 l 1
 215 709 l 1
EndSplineSet
Validated: 524289
Position2: "sous-table 'cpsp' Chasses pour composition en capitales dans Latin lookup 1" dx=5 dy=0 dh=10 dv=0
EndChar

StartChar: at
Encoding: 64 64 33
Width: 1000
Flags: W
HStem: -174 62<398.238 646.858> 45 62<453.184 571.155> 423 62<454.363 572.35> 641 62<402.368 665.113>
VStem: 66.9829 100.995<129.061 398.559> 287 117.983<162.866 366.244> 622 106<112 117 159.727 372.26 413 474> 875 55<222.377 445.463>
LayerCount: 2
Fore
SplineSet
622 246 m 1
 622 283 l 2
 622 367 579 423 512 423 c 0
 448 423 405 361 405 265 c 0
 404.988602411 263.905831474 404.982920644 262.816079719 404.982920644 261.730786191 c 0
 404.982920644 167.594753099 447.729445684 107 511 107 c 0
 578 107 621 162 622 246 c 1
621 117 m 1
 593 70 545 45 486 45 c 0
 362 45 287 128 287 265 c 0
 287 402 364 485 488 485 c 0
 547 485 594 460 622 413 c 1
 622 474 l 1
 729 474 l 1
 728 112 l 1
 822 137 874 216 875 331 c 0
 875 424 840 499 766 562 c 0
 707 613 624 641 533 641 c 0
 448 641 374 618 312 573 c 1
 221 504 168 393 168 265 c 1
 167.985265383 263.511803647 167.97791247 262.025344165 167.97791247 260.540685535 c 0
 167.97791247 161.265440221 200.854607807 70.0422498715 258 6 c 1
 325 -71 418 -112 525 -112 c 0
 604 -112 678 -90 746 -46 c 1
 774 -92 l 1
 689 -147 599 -174 506 -174 c 0
 379 -174 273 -132 191 -51 c 0
 109.932420599 29.0789503841 66.9829472013 137.502133438 66.9829472013 260.741720458 c 0
 66.9829472013 262.159193761 66.9886290171 263.578627136 67 265 c 0
 67 390 110 500 193 581 c 0
 277 664 383 703 516 703 c 0
 632 703 726 672 802 608 c 0
 888 536 930 443 930 330 c 0
 929 150 821 45 636 45 c 2
 621 45 l 1
 621 117 l 1
EndSplineSet
Validated: 524289
EndChar

StartChar: A
Encoding: 65 65 34
Width: 776
Flags: W
HStem: 0 59<4 64 134 209 458 529 730 787> 208 59<263 489> 709 20G<467.582 600.97>
LayerCount: 2
Fore
SplineSet
-8 0 m 1
 4 59 l 1
 64 59 l 1
 480 729 l 1
 597 729 l 1
 730 59 l 1
 799 59 l 1
 787 0 l 1
 446 0 l 1
 458 59 l 1
 529 59 l 1
 501 208 l 1
 227 208 l 1
 134 59 l 1
 221 59 l 1
 209 0 l 1
 -8 0 l 1
263 267 m 1
 489 267 l 1
 437 546 l 1
 263 267 l 1
EndSplineSet
Validated: 1
Position2: "sous-table 'cpsp' Chasses pour composition en capitales dans Latin lookup 1" dx=5 dy=0 dh=10 dv=0
EndChar

StartChar: B
Encoding: 66 66 35
Width: 845
Flags: W
HStem: 0 59<59 152 340 524.134> 366 59<418 579.746> 670 59<201 282 470 640.201>
VStem: 630.102 208.38<162.297 322.685> 677.064 189.821<503.873 638.101>
LayerCount: 2
Fore
SplineSet
47 0 m 1xf0
 59 59 l 1
 152 59 l 1
 282 670 l 1
 189 670 l 1
 201 729 l 1
 633 729 l 2
 787.808116076 729 866.884809907 683.102168337 866.884809907 591.306505011 c 0xe8
 866.884809907 578.14751337 865.259824757 564.045345033 862 549 c 0
 844 462 771 411 647 398 c 1
 772.242260427 386.693407045 838.481885044 334.538835452 838.481885044 250.746998248 c 0
 838.481885044 238.197356815 836.996027848 224.938042599 834 211 c 0
 804 67 684 0 452 0 c 2
 47 0 l 1xf0
418 425 m 1
 482 425 l 2
 594 425 655 465 673 549 c 0
 675.691204652 561.558955042 677.063543976 573.067288551 677.063543976 583.558421776 c 0
 677.063543976 643.23675631 632.656681133 670 534 670 c 2
 470 670 l 1
 418 425 l 1
340 59 m 1
 410 59 l 2
 534 59 603 107 625 211 c 0
 628.397366741 227.060279137 630.101574071 241.856650546 630.101574071 255.396479505 c 0xf0
 630.101574071 329.535214518 579.005631405 366 475 366 c 2
 405 366 l 1
 340 59 l 1
EndSplineSet
Validated: 524289
Position2: "sous-table 'cpsp' Chasses pour composition en capitales dans Latin lookup 1" dx=5 dy=0 dh=10 dv=0
EndChar

StartChar: C
Encoding: 67 67 36
Width: 796
Flags: W
HStem: -14 59<378.326 566.583> 683 59<503.551 697.594>
VStem: 107.567 203.12<149.365 382.104>
LayerCount: 2
Fore
SplineSet
789 208 m 1
 718 57 606 -14 438 -14 c 0
 315 -14 224 20 167 87 c 0
 127.37804878 134.268292683 107.567073171 193.133254015 107.567073171 263.93076312 c 0
 107.567073171 294.982302201 111.37804878 328.329268293 119 364 c 0
 144 481 199 573 285 640 c 1
 370 708 475 742 598 742 c 0
 685 742 773 722 869 679 c 1
 831 500 l 1
 769 500 l 1
 769.008929995 501.09838944 769.013394281 502.191754955 769.013394281 503.280098684 c 0
 769.013394281 624.066814764 714.026630497 683 606 683 c 0
 463 683 374 580 328 364 c 0
 316.5 309.75 310.6875 262.6875 310.6875 222.609375 c 0
 310.6875 102.375 363 45 471 45 c 0
 568 45 641 99 692 208 c 1
 789 208 l 1
EndSplineSet
Validated: 524289
Position2: "sous-table 'cpsp' Chasses pour composition en capitales dans Latin lookup 1" dx=5 dy=0 dh=10 dv=0
EndChar

StartChar: D
Encoding: 68 68 37
Width: 867
Flags: W
HStem: 0 59<59 152 340 514.553> 670 59<201 282 470 634.484>
VStem: 709.309 204.059<344.33 578.728>
LayerCount: 2
Fore
SplineSet
340 59 m 1
 408 59 l 2
 560 59 648 153 693 365 c 0
 703.80792775 415.91734851 709.308872879 459.97023037 709.308872879 497.518861667 c 0
 709.308872879 616.308100818 654.253045651 670 538 670 c 2
 470 670 l 1
 340 59 l 1
47 0 m 1
 59 59 l 1
 152 59 l 1
 282 670 l 1
 189 670 l 1
 201 729 l 1
 575 729 l 2
 796.311019731 729 913.367958035 636.968810878 913.367958035 465.09962966 c 0
 913.367958035 434.277339155 909.603252925 400.887353806 902 365 c 0
 852 129 682 0 421 0 c 2
 47 0 l 1
EndSplineSet
Validated: 524289
Position2: "sous-table 'cpsp' Chasses pour composition en capitales dans Latin lookup 1" dx=5 dy=0 dh=10 dv=0
EndChar

StartChar: E
Encoding: 69 69 38
Width: 762
Flags: W
HStem: 0 67<342 658> 0 59<59 152> 362 66<418 595> 501 20G<624.699 696> 662 67<468 775> 670 59<201 282>
LayerCount: 2
Fore
SplineSet
47 0 m 1x70
 59 59 l 1
 152 59 l 1
 282 670 l 1
 189 670 l 1
 201 729 l 1
 856 729 l 1x74
 820 557 l 1
 753 557 l 1
 775 662 l 1
 468 662 l 1
 418 428 l 1
 609 428 l 1
 629 521 l 1
 696 521 l 1
 643 269 l 1
 576 269 l 1
 595 362 l 1
 404 362 l 1
 342 67 l 1
 658 67 l 1xb8
 680 172 l 1
 747 172 l 1
 711 0 l 1
 47 0 l 1x70
EndSplineSet
Validated: 1
Position2: "sous-table 'cpsp' Chasses pour composition en capitales dans Latin lookup 1" dx=5 dy=0 dh=10 dv=0
EndChar

StartChar: F
Encoding: 70 70 39
Width: 710
Flags: W
HStem: 0 59<59 152 341 444> 362 66<419 590> 501 20G<619.699 691> 662 67<469 770> 670 59<201 282>
LayerCount: 2
Fore
SplineSet
47 0 m 1xf0
 59 59 l 1
 152 59 l 1
 282 670 l 1
 189 670 l 1
 201 729 l 1
 851 729 l 1xe8
 815 557 l 1
 748 557 l 1
 770 662 l 1
 469 662 l 1
 419 428 l 1
 604 428 l 1
 624 521 l 1
 691 521 l 1
 638 269 l 1
 571 269 l 1
 590 362 l 1
 405 362 l 1
 341 59 l 1
 456 59 l 1
 444 0 l 1
 47 0 l 1xf0
EndSplineSet
Validated: 1
Position2: "sous-table 'cpsp' Chasses pour composition en capitales dans Latin lookup 1" dx=5 dy=0 dh=10 dv=0
EndChar

StartChar: G
Encoding: 71 71 40
Width: 854
Flags: W
HStem: -14 59<377.21 585.038> 282 59<584 659> 683 59<509.132 720.669>
VStem: 107.567 202.524<150.394 377.259> 794 62<500 532.974>
LayerCount: 2
Fore
SplineSet
794 500 m 1
 792 629 739 683 615 683 c 0
 464 683 375 584 328 364 c 0
 316.09293128 308.518126604 310.090616868 260.673924541 310.090616868 220.15845348 c 0
 310.090616868 100.749833674 362.227889934 45 469 45 c 0
 524 45 573 57 617 82 c 1
 659 282 l 1
 571 282 l 1
 584 341 l 1
 847 341 l 1
 787 61 l 1
 668 10 554 -14 441 -14 c 0
 316 -14 224 20 167 87 c 0
 127.37804878 133.573170732 107.567073171 192.709399167 107.567073171 263.736927061 c 0
 107.567073171 294.889351576 111.37804878 328.329268293 119 364 c 0
 144 481 200 574 285 641 c 0
 370 708 476 742 601 742 c 0
 705 742 800 722 894 679 c 1
 856 500 l 1
 794 500 l 1
EndSplineSet
Validated: 524289
Position2: "sous-table 'cpsp' Chasses pour composition en capitales dans Latin lookup 1" dx=5 dy=0 dh=10 dv=0
EndChar

StartChar: H
Encoding: 72 72 41
Width: 945
Flags: W
HStem: 0 59<59 152 340 422 537 630 818 900> 358 67<418 694> 670 59<201 282 470 564 679 760 948 1042>
LayerCount: 2
Fore
SplineSet
47 0 m 1
 59 59 l 1
 152 59 l 1
 282 670 l 1
 189 670 l 1
 201 729 l 1
 576 729 l 1
 564 670 l 1
 470 670 l 1
 418 425 l 1
 708 425 l 1
 760 670 l 1
 667 670 l 1
 679 729 l 1
 1054 729 l 1
 1042 670 l 1
 948 670 l 1
 818 59 l 1
 912 59 l 1
 900 0 l 1
 525 0 l 1
 537 59 l 1
 630 59 l 1
 694 358 l 1
 404 358 l 1
 340 59 l 1
 434 59 l 1
 422 0 l 1
 47 0 l 1
EndSplineSet
Validated: 1
Position2: "sous-table 'cpsp' Chasses pour composition en capitales dans Latin lookup 1" dx=5 dy=0 dh=10 dv=0
EndChar

StartChar: I
Encoding: 73 73 42
Width: 468
Flags: W
HStem: 0 59<59 152 340 422> 670 59<201 282 470 564>
LayerCount: 2
Fore
SplineSet
47 0 m 1
 59 59 l 1
 152 59 l 1
 282 670 l 1
 189 670 l 1
 201 729 l 1
 576 729 l 1
 564 670 l 1
 470 670 l 1
 340 59 l 1
 434 59 l 1
 422 0 l 1
 47 0 l 1
EndSplineSet
Validated: 1
Position2: "sous-table 'cpsp' Chasses pour composition en capitales dans Latin lookup 1" dx=5 dy=0 dh=10 dv=0
EndChar

StartChar: J
Encoding: 74 74 43
Width: 473
Flags: W
HStem: -208 59<-14.3174 94.6652> 670 59<201 295 484 577>
VStem: -86 63<-86.3566 -60>
LayerCount: 2
Fore
SplineSet
-111 -175 m 1
 -86 -60 l 1
 -23 -60 l 1
 -24.4382203266 -69.7479377689 -25.161411322 -78.6531623976 -25.161411322 -86.7360780472 c 0
 -25.161411322 -129.233897145 -5.16968933319 -149 36 -149 c 0
 67 -149 91 -137 110 -112 c 0
 128 -88 143 -43 158 24 c 2
 295 670 l 1
 189 670 l 1
 201 729 l 1
 589 729 l 1
 577 670 l 1
 484 670 l 1
 346 20 l 2
 312 -139 220 -208 47 -208 c 0
 -8 -208 -59 -196 -111 -175 c 1
EndSplineSet
Validated: 524289
Position2: "sous-table 'cpsp' Chasses pour composition en capitales dans Latin lookup 1" dx=5 dy=0 dh=10 dv=0
EndChar

StartChar: K
Encoding: 75 75 44
Width: 869
Flags: W
HStem: 0 59<59 152 340 422 840 900> 670 59<201 282 470 564 713 779 876 973>
LayerCount: 2
Fore
SplineSet
47 0 m 1
 59 59 l 1
 152 59 l 1
 282 670 l 1
 189 670 l 1
 201 729 l 1
 576 729 l 1
 564 670 l 1
 470 670 l 1
 413 404 l 1
 779 670 l 1
 701 670 l 1
 713 729 l 1
 985 729 l 1
 973 670 l 1
 876 670 l 1
 566 445 l 1
 840 59 l 1
 912 59 l 1
 900 0 l 1
 653 0 l 1
 403 354 l 1
 340 59 l 1
 434 59 l 1
 422 0 l 1
 47 0 l 1
EndSplineSet
Validated: 1
Position2: "sous-table 'cpsp' Chasses pour composition en capitales dans Latin lookup 1" dx=5 dy=0 dh=10 dv=0
EndChar

StartChar: L
Encoding: 76 76 45
Width: 703
Flags: W
HStem: 0 67<342 629> 0 59<59 152> 670 59<201 282 470 564>
LayerCount: 2
Fore
SplineSet
47 0 m 1x60
 59 59 l 1
 152 59 l 1x60
 282 670 l 1
 189 670 l 1
 201 729 l 1
 576 729 l 1
 564 670 l 1
 470 670 l 1
 342 67 l 1
 629 67 l 1xa0
 653 182 l 1
 719 182 l 1
 681 0 l 1
 47 0 l 1x60
EndSplineSet
Validated: 1
Position2: "sous-table 'cpsp' Chasses pour composition en capitales dans Latin lookup 1" dx=5 dy=0 dh=10 dv=0
EndChar

StartChar: M
Encoding: 77 77 46
Width: 1107
Flags: W
HStem: 0 59<54 147 215 296 697 790 979 1060> 670 59<196 277 1109 1202>
LayerCount: 2
Fore
SplineSet
42 0 m 1
 54 59 l 1
 147 59 l 1
 277 670 l 1
 184 670 l 1
 196 729 l 1
 497 729 l 1
 606 261 l 1
 914 729 l 1
 1214 729 l 1
 1202 670 l 1
 1109 670 l 1
 979 59 l 1
 1072 59 l 1
 1060 0 l 1
 685 0 l 1
 697 59 l 1
 790 59 l 1
 908 615 l 1
 574 107 l 1
 450 107 l 1
 333 615 l 1
 215 59 l 1
 308 59 l 1
 296 0 l 1
 42 0 l 1
EndSplineSet
Validated: 1
Position2: "sous-table 'cpsp' Chasses pour composition en capitales dans Latin lookup 1" dx=5 dy=0 dh=10 dv=0
EndChar

StartChar: N
Encoding: 78 78 47
Width: 914
Flags: W
HStem: 0 59<56 149 218 299> 670 59<198 279 773 854 923 1016>
LayerCount: 2
Fore
SplineSet
44 0 m 1
 56 59 l 1
 149 59 l 1
 279 670 l 1
 186 670 l 1
 198 729 l 1
 426 729 l 1
 757 213 l 1
 854 670 l 1
 761 670 l 1
 773 729 l 1
 1028 729 l 1
 1016 670 l 1
 923 670 l 1
 781 0 l 1
 653 0 l 1
 318 527 l 1
 218 59 l 1
 311 59 l 1
 299 0 l 1
 44 0 l 1
EndSplineSet
Validated: 1
Position2: "sous-table 'cpsp' Chasses pour composition en capitales dans Latin lookup 1" dx=5 dy=0 dh=10 dv=0
EndChar

StartChar: O
Encoding: 79 79 48
Width: 871
Flags: W
HStem: -14 59<366.392 531.035> 683 59<493.792 658.612>
VStem: 107.281 202.299<144.757 374.446> 714.852 201.836<353.484 581.472>
LayerCount: 2
Fore
SplineSet
444 45 m 0
 568 45 650 148 696 364 c 0
 708.554447682 422.95131955 714.852000679 473.485626012 714.852000679 515.80621094 c 0
 714.852000679 628.54994712 670.157575814 683 580 683 c 0
 456 683 373 577 328 364 c 0
 315.754040331 306.035790899 309.580677854 255.995580573 309.580677854 213.859215965 c 0
 309.580677854 101.157866048 353.7444222 45 444 45 c 0
432 -14 m 0
 309 -14 220 19 164 86 c 0
 126.1875 132.0625 107.28125 190.4140625 107.28125 260.729736328 c 0
 107.28125 292.69140625 111.1875 327.125 119 364 c 0
 144 482 199 574 282 641 c 0
 366 708 469 742 592 742 c 0
 715 742 804 708 859 641 c 0
 897.567830476 594.85634568 916.688409851 536.85461142 916.688409851 466.668125494 c 0
 916.688409851 434.944725297 912.782218537 400.732071496 905 364 c 0
 880 246 825 153 741 86 c 0
 658 19 555 -14 432 -14 c 0
EndSplineSet
Validated: 524289
Position2: "sous-table 'cpsp' Chasses pour composition en capitales dans Latin lookup 1" dx=5 dy=0 dh=10 dv=0
EndChar

StartChar: P
Encoding: 80 80 49
Width: 752
Flags: W
HStem: 0 59<59 152 340 446> 302 59<404 538.653> 670 59<201 282 470 597.516>
VStem: 635.996 205.449<466.955 630.876>
LayerCount: 2
Fore
SplineSet
47 0 m 1
 59 59 l 1
 152 59 l 1
 282 670 l 1
 189 670 l 1
 201 729 l 1
 616 729 l 2
 697 729 757 710 797 671 c 0
 826.62962963 642.111111111 841.444444444 606.637860082 841.444444444 563.767362699 c 0
 841.444444444 548.762688615 839.62962963 532.851851852 836 516 c 0
 822 451 787 399 731 360 c 0
 675 321 607 302 526 302 c 2
 392 302 l 1
 340 59 l 1
 458 59 l 1
 446 0 l 1
 47 0 l 1
404 361 m 1
 459 361 l 2
 543 361 611 421 631 516 c 0
 634.357215247 531.611050896 635.995619126 546.320430256 635.995619126 559.990972364 c 0
 635.995619126 627.760201637 595.731835202 670 525 670 c 2
 470 670 l 1
 404 361 l 1
EndSplineSet
Validated: 524289
Position2: "sous-table 'cpsp' Chasses pour composition en capitales dans Latin lookup 1" dx=5 dy=0 dh=10 dv=0
EndChar

StartChar: Q
Encoding: 81 81 50
Width: 871
Flags: W
HStem: -180 120<553.738 664> -14 59<368.67 434.734> 683 59<493.792 658.612>
VStem: 107.046 202.535<144.124 374.446> 714.852 201.836<354.131 581.472>
LayerCount: 2
Fore
SplineSet
429 -14 m 1
 306 -12 218 22 163 88 c 0
 125.485665043 133.699280765 107.045822125 191.029349359 107.045822125 259.990205781 c 0
 107.045822125 292.133290229 111.051970435 326.803221635 119 364 c 0
 144 482 199 574 282 641 c 0
 366 708 469 742 592 742 c 0
 715 742 804 708 859 641 c 0
 897.567830476 594.85634568 916.688409851 536.85461142 916.688409851 466.668125494 c 0
 916.688409851 434.944725297 912.782218537 400.732071496 905 364 c 0
 861 156 720 23 517 -8 c 1
 544 -45 586 -60 665 -60 c 2
 690 -60 l 1
 664 -180 l 1
 650 -180 l 2
 526 -180 457 -129 429 -14 c 1
444 45 m 0
 568 45 650 148 696 364 c 0
 708.554447682 422.95131955 714.852000679 473.485626012 714.852000679 515.80621094 c 0
 714.852000679 628.54994712 670.157575814 683 580 683 c 0
 456 683 373 577 328 364 c 0
 315.754040331 306.035790899 309.580677854 255.995580573 309.580677854 213.859215965 c 0
 309.580677854 101.157866048 353.7444222 45 444 45 c 0
EndSplineSet
Validated: 524289
Position2: "sous-table 'cpsp' Chasses pour composition en capitales dans Latin lookup 1" dx=5 dy=0 dh=10 dv=0
EndChar

StartChar: R
Encoding: 82 82 51
Width: 831
Flags: W
HStem: 0 59<59 152 340 422 774 837> 326 59<409 487.431> 670 59<201 282 470 615.108>
VStem: 650.623 195.15<484.644 634.443>
LayerCount: 2
Fore
SplineSet
606 356 m 1
 661 348 694 319 711 262 c 2
 774 59 l 1
 849 59 l 1
 837 0 l 1
 597 0 l 1
 527 220 l 1
 514 266 501 295 488 307 c 1
 476 320 455 326 427 326 c 2
 397 326 l 1
 340 59 l 1
 434 59 l 1
 422 0 l 1
 47 0 l 1
 59 59 l 1
 152 59 l 1
 282 670 l 1
 189 670 l 1
 201 729 l 1
 617 729 l 2
 765.240892825 729 845.772956026 674.37128519 845.772956026 576.587275085 c 0
 845.772956026 562.893963428 844.193708796 548.354369212 841 533 c 0
 819 432 742 373 606 356 c 1
409 385 m 1
 473 385 l 2
 564 385 626 436 646 528 c 0
 649.093468501 542.978900109 650.622938956 556.844445678 650.622938956 569.562109114 c 0
 650.622938956 634.95599109 610.183914022 670 534 670 c 2
 470 670 l 1
 409 385 l 1
EndSplineSet
Validated: 524289
Position2: "sous-table 'cpsp' Chasses pour composition en capitales dans Latin lookup 1" dx=5 dy=0 dh=10 dv=0
EndChar

StartChar: S
Encoding: 83 83 52
Width: 722
Flags: W
HStem: -14 59<252.926 468.548> 683 59<395.286 607.122>
VStem: 167.599 162.471<435.477 560.43> 542.7 171.094<164.244 318.818>
LayerCount: 2
Fore
SplineSet
84 35 m 1
 121 208 l 1
 183 208 l 1
 182.871101732 204.487522196 182.806585673 201.032157642 182.806585673 197.633872874 c 0
 182.806585673 95.5758215898 240.995846309 45 361 45 c 0
 462 45 525 85 540 158 c 0
 541.8 166.7 542.7 174.86 542.7 182.453 c 0
 542.7 200.17 537.8 214.8 528 226 c 0
 513 243 479 258 426 272 c 2
 323 299 l 2
 256 317 210 342 188 374 c 0
 174.319238334 394.5211425 167.599093022 420.069396811 167.599093022 450.885233979 c 0
 167.599093022 469.624270598 170.084086439 490.311168181 175 513 c 0
 205 658 324 742 497 742 c 0
 582 742 671 728 764 699 c 1
 730 538 l 1
 668 538 l 1
 668.036967442 539.848372104 668.055485895 541.677953572 668.055485895 543.488807551 c 0
 668.055485895 639.648160736 615.837404638 683 501 683 c 0
 405 683 348 650 333 583 c 0
 331.069047717 573.345238585 330.070239614 564.415478199 330.070239614 556.210718841 c 0
 330.070239614 538.921033526 334.505555327 524.850793912 344 514 c 0
 357 498 396 482 458 465 c 2
 562 438 l 2
 666.374051891 411.299661144 713.794013547 361.032112536 713.794013547 276.603877974 c 0
 713.794013547 256.683933452 711.154268209 234.862352819 706 211 c 0
 675 64 556 -14 359 -14 c 0
 264 -14 174 2 84 35 c 1
EndSplineSet
Validated: 524289
Position2: "sous-table 'cpsp' Chasses pour composition en capitales dans Latin lookup 1" dx=5 dy=0 dh=10 dv=0
EndChar

StartChar: T
Encoding: 84 84 53
Width: 744
Flags: W
HStem: 0 59<193 290 479 564> 662 67<218 418 607 808>
LayerCount: 2
Fore
SplineSet
181 0 m 1
 193 59 l 1
 290 59 l 1
 418 662 l 1
 218 662 l 1
 194 547 l 1
 127 547 l 1
 165 729 l 1
 888 729 l 1
 850 547 l 1
 784 547 l 1
 808 662 l 1
 607 662 l 1
 479 59 l 1
 576 59 l 1
 564 0 l 1
 181 0 l 1
EndSplineSet
Validated: 1
Position2: "sous-table 'cpsp' Chasses pour composition en capitales dans Latin lookup 1" dx=5 dy=0 dh=10 dv=0
EndChar

StartChar: U
Encoding: 85 85 54
Width: 872
Flags: W
HStem: -14 74<416.84 599.889> 670 59<188 269 458 551 750 831 899 992>
VStem: 175.831 190.523<105.41 335.211>
LayerCount: 2
Fore
SplineSet
269 670 m 1
 176 670 l 1
 188 729 l 1
 563 729 l 1
 551 670 l 1
 458 670 l 1
 380 305 l 2
 370.865204623 261.249137931 366.353372491 223.970424405 366.353372491 192.941597196 c 0
 366.353372491 159.431735508 371.615574081 133.21118795 382 114 c 1
 403 78 447 60 516 60 c 0
 583 60 634 78 670 115 c 0
 707 152 734 215 753 305 c 2
 831 670 l 1
 738 670 l 1
 750 729 l 1
 1004 729 l 1
 992 670 l 1
 899 670 l 1
 819 295 l 2
 796 184 755 104 696 57 c 0
 638 10 552 -14 439 -14 c 0
 326 -14 250 10 211 57 c 1
 187.474772353 86.7160770275 175.830795683 128.696671193 175.830795683 182.704508188 c 0
 175.830795683 215.934841069 180.238953576 253.718428126 189 296 c 2
 269 670 l 1
EndSplineSet
Validated: 524289
Position2: "sous-table 'cpsp' Chasses pour composition en capitales dans Latin lookup 1" dx=5 dy=0 dh=10 dv=0
EndChar

StartChar: V
Encoding: 86 86 55
Width: 776
Flags: W
HStem: 0 21G<334.03 466.448> 670 59<148 205 407 478 727 802 871 932>
LayerCount: 2
Fore
SplineSet
944 729 m 1
 932 670 l 1
 871 670 l 1
 454 0 l 1
 338 0 l 1
 205 670 l 1
 136 670 l 1
 148 729 l 1
 490 729 l 1
 478 670 l 1
 407 670 l 1
 501 187 l 1
 802 670 l 1
 715 670 l 1
 727 729 l 1
 944 729 l 1
EndSplineSet
Validated: 1
Position2: "sous-table 'cpsp' Chasses pour composition en capitales dans Latin lookup 1" dx=5 dy=0 dh=10 dv=0
EndChar

StartChar: W
Encoding: 87 87 56
Width: 1123
Flags: W
HStem: 0 21G<268.03 406.433 724.004 862.448> 670 59<145 204 401 479 1063 1138 1202 1277>
LayerCount: 2
Fore
SplineSet
852 0 m 1
 726 0 l 1
 673 531 l 1
 396 0 l 1
 270 0 l 1
 204 670 l 1
 133 670 l 1
 145 729 l 1
 491 729 l 1
 479 670 l 1
 401 670 l 1
 445 222 l 1
 709 729 l 1
 848 729 l 1
 899 214 l 1
 1138 670 l 1
 1051 670 l 1
 1063 729 l 1
 1289 729 l 1
 1277 670 l 1
 1202 670 l 1
 852 0 l 1
EndSplineSet
Validated: 1
Position2: "sous-table 'cpsp' Chasses pour composition en capitales dans Latin lookup 1" dx=5 dy=0 dh=10 dv=0
EndChar

StartChar: X
Encoding: 88 88 57
Width: 776
Flags: W
HStem: 0 59<30 120 199 277 423 504 718 775> 670 59<159 214 429 509 637 710 789 879>
LayerCount: 2
Fore
SplineSet
398 281 m 1
 199 59 l 1
 289 59 l 1
 277 0 l 1
 18 0 l 1
 30 59 l 1
 120 59 l 1
 371 338 l 1
 214 670 l 1
 147 670 l 1
 159 729 l 1
 521 729 l 1
 509 670 l 1
 429 670 l 1
 526 465 l 1
 710 670 l 1
 625 670 l 1
 637 729 l 1
 891 729 l 1
 879 670 l 1
 789 670 l 1
 553 408 l 1
 718 59 l 1
 787 59 l 1
 775 0 l 1
 411 0 l 1
 423 59 l 1
 504 59 l 1
 398 281 l 1
EndSplineSet
Validated: 1
Position2: "sous-table 'cpsp' Chasses pour composition en capitales dans Latin lookup 1" dx=5 dy=0 dh=10 dv=0
EndChar

StartChar: Y
Encoding: 89 89 58
Width: 714
Flags: W
HStem: 0 59<184 282 471 557> 670 59<145 195 402 483 668 729 803 865>
LayerCount: 2
Fore
SplineSet
172 0 m 1
 184 59 l 1
 282 59 l 1
 334 302 l 1
 195 670 l 1
 133 670 l 1
 145 729 l 1
 495 729 l 1
 483 670 l 1
 402 670 l 1
 507 392 l 1
 729 670 l 1
 656 670 l 1
 668 729 l 1
 877 729 l 1
 865 670 l 1
 803 670 l 1
 528 327 l 1
 471 59 l 1
 569 59 l 1
 557 0 l 1
 172 0 l 1
EndSplineSet
Validated: 1
Position2: "sous-table 'cpsp' Chasses pour composition en capitales dans Latin lookup 1" dx=5 dy=0 dh=10 dv=0
EndChar

StartChar: Z
Encoding: 90 90 59
Width: 730
Flags: W
HStem: 0 67<273 641> 662 67<263 612>
LayerCount: 2
Fore
SplineSet
37 0 m 1
 51 69 l 1
 612 662 l 1
 263 662 l 1
 240 553 l 1
 173 553 l 1
 210 729 l 1
 843 729 l 1
 829 660 l 1
 273 67 l 1
 641 67 l 1
 662 169 l 1
 729 169 l 1
 694 0 l 1
 37 0 l 1
EndSplineSet
Validated: 1
Position2: "sous-table 'cpsp' Chasses pour composition en capitales dans Latin lookup 1" dx=5 dy=0 dh=10 dv=0
EndChar

StartChar: bracketleft
Encoding: 91 91 60
Width: 473
Flags: W
HStem: -132 59<282 373> 701 59<447 551>
LayerCount: 2
Fore
SplineSet
286 760 m 1
 563 760 l 1
 551 701 l 1
 447 701 l 1
 282 -73 l 1
 386 -73 l 1
 373 -132 l 1
 96 -132 l 1
 286 760 l 1
EndSplineSet
Validated: 1
EndChar

StartChar: backslash
Encoding: 92 92 61
Width: 365
Flags: W
HStem: 709 20G<154 264.019>
VStem: 154 191
LayerCount: 2
Fore
SplineSet
262 729 m 1
 345 -93 l 1
 237 -93 l 1
 154 729 l 1
 262 729 l 1
EndSplineSet
Validated: 1
EndChar

StartChar: bracketright
Encoding: 93 93 62
Width: 473
Flags: W
HStem: -132 59<55 159> 701 59<232 324>
LayerCount: 2
Fore
SplineSet
509 760 m 1
 319 -132 l 1
 42 -132 l 1
 55 -73 l 1
 159 -73 l 1
 324 701 l 1
 220 701 l 1
 232 760 l 1
 509 760 l 1
EndSplineSet
Validated: 1
EndChar

StartChar: asciicircum
Encoding: 94 94 63
Width: 838
Flags: W
HStem: 457 272
LayerCount: 2
Fore
SplineSet
629 729 m 1
 834 457 l 1
 730 457 l 1
 548 611 l 1
 302 457 l 1
 198 457 l 1
 520 729 l 1
 629 729 l 1
EndSplineSet
Validated: 1
EndChar

StartChar: underscore
Encoding: 95 95 64
Width: 500
Flags: W
HStem: -236 93<-31 449>
LayerCount: 2
Fore
SplineSet
469 -143 m 1
 449 -236 l 1
 -51 -236 l 1
 -31 -143 l 1
 469 -143 l 1
EndSplineSet
Validated: 1
EndChar

StartChar: grave
Encoding: 96 96 65
Width: 500
Flags: W
HStem: 616 184
VStem: 239 222
LayerCount: 2
Fore
SplineSet
375 800 m 1
 461 616 l 1
 381 616 l 1
 239 800 l 1
 375 800 l 1
EndSplineSet
Validated: 1
EndChar

StartChar: a
Encoding: 97 97 66
Width: 648
Flags: W
HStem: -14 55<289.043 352.02> 0 60<562 625> 478 55<371.95 489> 499 20G<515.238 660>
VStem: 87.747 182.561<91.8914 271.611>
LayerCount: 2
Fore
SplineSet
342 41 m 1xa8
 345.274967354 40.6491106407 348.686738421 40.4760661094 352.184110037 40.4760661094 c 0
 378.588228932 40.4760661094 409.871409916 50.3392623955 424 68 c 1
 501 431 l 1
 493 462 472 478 435 478 c 0
 398 478 369 462 347 431 c 0
 326 400 306 343 289 260 c 0
 276.538461538 202.538461538 270.307692308 157.538461538 270.307692308 124.668183887 c 0
 270.307692308 110.059171598 271.538461538 97.8461538462 274 88 c 1
 283 57 305 41 342 41 c 1xa8
331 -14 m 1
 175.389606592 -14 87.7469603972 60.4752974793 87.7469603972 187.906471678 c 0
 87.7469603972 210.336141396 90.4622106891 234.406433185 96 260 c 0
 132 431 264 533 447 533 c 0xa8
 476 533 502 522 515 498 c 1
 520 519 l 1
 660 519 l 1
 562 60 l 1
 638 60 l 1
 625 0 l 1
 410 0 l 1x58
 414 22 l 1
 395 -2 367 -12 331 -14 c 1
EndSplineSet
Validated: 524289
Substitution2: "sous-table Substitution simple lookups10" ordfeminine
Substitution2: "sous-table 'aalt' Activer toutes les variantes dans Latin lookup 0" ordfeminine
EndChar

StartChar: b
Encoding: 98 98 67
Width: 699
Flags: W
HStem: -14 76<326.004 444.877> 0 21G<97 274.242> 457 76<433.585 594.926> 701 59<184 246>
VStem: 535.452 188.023<234.701 440.644>
LayerCount: 2
Fore
SplineSet
172 701 m 1x78
 184 760 l 1
 431 760 l 1
 366 453 l 1
 406 508 461 533 534 533 c 0
 655.851553058 533 723.474468488 462.502771083 723.474468488 343.274014676 c 0
 723.474468488 317.688400602 720.36043304 289.858699549 714 260 c 0
 677 89 566 -14 418 -14 c 0xb8
 345 -14 301 11 284 66 c 1
 270 0 l 1
 97 0 l 1
 246 701 l 1
 172 701 l 1x78
330 285 m 2
 319 234 l 1
 311.919121278 199.728546986 308.287794987 171.072644441 308.287794987 147.600579448 c 0
 308.287794987 88.201344442 331.543225273 62 381 62 c 0
 416 62 444 76 465 105 c 0
 486 134 504 185 520 260 c 0
 530.131993291 307.493718553 535.451926205 345.363316351 535.451926205 373.862729662 c 0
 535.451926205 390.368341509 533.667504193 403.73098826 530 414 c 1
 522 443 500 457 465 457 c 0
 396 457 356 406 330 285 c 2
EndSplineSet
Validated: 524289
EndChar

StartChar: c
Encoding: 99 99 68
Width: 609
Flags: W
HStem: -14 55<300.415 444.707> 478 55<388.305 538.071>
VStem: 87.5057 186.564<88.7943 286.266> 517 81<120.271 162> 565 55<348 373.646>
LayerCount: 2
Fore
SplineSet
598 162 m 1xf0
 548 43 461 -14 329 -14 c 0
 172.447695397 -14 87.5056875842 56.8941938226 87.5056875842 184.744883581 c 0
 87.5056875842 207.97710292 90.3104609206 233.090017868 96 260 c 0
 132 432 259 533 438 533 c 0
 510 533 581 520 651 492 c 1
 620 348 l 1
 565 348 l 1xe8
 565.834095385 357.175049238 566.255109923 365.850053239 566.255109923 374.02954554 c 0
 566.255109923 444.301438503 535.180355763 478 468 478 c 0
 372 478 323 420 289 260 c 0
 279.135791707 214.45056759 274.069376234 176.897456545 274.069376234 146.5347989 c 0
 274.069376234 72.2433039473 304.401263372 41 369 41 c 0
 438 41 492 85 517 162 c 1
 598 162 l 1xf0
EndSplineSet
Validated: 524289
EndChar

StartChar: d
Encoding: 100 100 69
Width: 699
Flags: W
HStem: -14 76<221.55 375.048> 0 59<614 676> 457 76<363.463 482.502> 701 59<516 578>
VStem: 86.0802 187.204<77.8727 285.295>
LayerCount: 2
Fore
SplineSet
478 234 m 1xb8
 489 285 l 2
 496.417071872 319.517911402 500.172038741 348.339215023 500.172038741 371.905004729 c 0
 500.172038741 430.947357827 476.601504336 457 428 457 c 0
 392 457 364 443 342 414 c 1
 323 386 305 335 289 260 c 0
 278.614229749 211.316701949 273.284594984 172.745674871 273.284594984 143.739920207 c 0
 273.284594984 128.060296376 274.841995766 115.17579142 278 105 c 0
 287 76 309 62 344 62 c 0
 412 62 453 113 478 234 c 1xb8
614 59 m 1x78
 688 59 l 1
 676 0 l 1
 429 0 l 1x78
 443 66 l 1
 402 11 348 -14 275 -14 c 0xb8
 153.64736323 -14 86.0801992537 55.2487962228 86.0801992537 174.452021014 c 0
 86.0801992537 200.627403056 89.3381591926 229.211492485 96 260 c 0
 132 431 243 533 391 533 c 0
 464 533 507 508 525 453 c 1
 578 701 l 1
 504 701 l 1
 516 760 l 1
 763 760 l 1
 614 59 l 1x78
EndSplineSet
Validated: 524289
EndChar

StartChar: e
Encoding: 101 101 70
Width: 636
Flags: W
HStem: -14 54.9772<296.384 451.181> 478 55.1706<369.465 460.835>
VStem: 86.6739 173.601<130.843 306.329> 479.627 166.965<346 442.603>
LayerCount: 2
Fore
SplineSet
474 346 m 0
 477.503288933 361.091090788 479.626769383 377.634611557 479.626769383 393.751812075 c 0
 479.626769383 437.442298207 464.022522864 478 418 478 c 1
 355 476 301 374 289 336 c 1
 272.327541727 299.145092238 260.275097828 234.570098227 260.275097828 193.626349225 c 0
 260.275097828 187.910438429 260.509991215 182.655083453 261 178 c 1
 386 236 456 264 474 346 c 0
645 356 m 1
 643 346 l 1
 619 232 399 166 264 124 c 1
 276.802438934 72.7902442651 299.303247255 40.9772273056 366.841062873 40.9772273056 c 0
 367.883273887 40.9772273056 368.936209643 40.9848029949 370 41 c 1
 445 41 501 82 530 157 c 1
 611 157 l 1
 558 40 466 -14 317 -14 c 0
 166.562756533 -14 86.6739015359 54.4528917822 86.6739015359 179.683092187 c 0
 86.6739015359 204.292356753 89.7589736208 231.094193612 96 260 c 1
 132 432 257 533 433 533 c 1
 436.359576906 533.114271323 439.683636227 533.170565414 442.971879535 533.170565414 c 0
 572.620979069 533.170565414 646.591470981 445.65729253 646.591470981 373.796974153 c 0
 646.591470981 367.732498024 646.064645449 361.779503864 645 356 c 1
EndSplineSet
Validated: 524289
EndChar

StartChar: f
Encoding: 102 102 71
Width: 430
Flags: W
HStem: -208 59<2 76> 460 59<141 205 391 508> 630 111<564.083 617> 705 55<447.608 554.241>
VStem: 562 55<630 646.91>
LayerCount: 2
Fore
SplineSet
617 630 m 1xe8
 562 630 l 1xe8
 562.718280245 636.105382082 563.078278191 641.823819282 563.078278191 647.16045854 c 0
 563.078278191 686.402290953 543.612898163 705 504 705 c 0
 452 705 423 670 405 586 c 2
 391 519 l 1
 521 519 l 1
 508 460 l 1
 378 460 l 1
 236 -208 l 1
 -11 -208 l 1
 2 -149 l 1
 76 -149 l 1
 205 460 l 1
 128 460 l 1
 141 519 l 1
 218 519 l 1
 232 584 l 2
 256 699 343 760 486 760 c 0xd8
 542 760 593 753 641 741 c 1
 617 630 l 1xe8
EndSplineSet
Validated: 524289
EndChar

StartChar: g
Encoding: 103 103 72
Width: 699
Flags: W
HStem: -222 55<160.067 342.364> -14 76<214.324 375.048> 457 76<363.463 482.502> 460 59<699 773>
VStem: 86.0802 187.204<77.8727 285.295>
LayerCount: 2
Fore
SplineSet
699 460 m 1xd8
 603 7 l 2
 572 -140 445 -222 256 -222 c 0
 187 -222 120 -211 49 -190 c 1
 75 -66 l 1
 130 -66 l 1
 129.709889517 -69.9455025698 129.564541273 -73.7731754103 129.564541273 -77.4834091916 c 0
 129.564541273 -137.718361775 167.873856116 -167 247 -167 c 0
 354 -167 403 -122 430 7 c 1
 443 66 l 1
 402 11 348 -14 275 -14 c 0
 153.64736323 -14 86.0801992537 55.2487962228 86.0801992537 174.452021014 c 0
 86.0801992537 200.627403056 89.3381591926 229.211492485 96 260 c 0
 132 431 243 533 391 533 c 0xe8
 464 533 507 508 525 453 c 1
 539 519 l 1
 786 519 l 1
 773 460 l 1
 699 460 l 1xd8
489 285 m 2
 496.417071872 319.517911402 500.172038741 348.339215023 500.172038741 371.905004729 c 0
 500.172038741 430.947357827 476.601504336 457 428 457 c 0
 392 457 364 443 342 414 c 1
 323 386 305 335 289 260 c 0
 278.614229749 211.316701949 273.284594984 172.745674871 273.284594984 143.739920207 c 0
 273.284594984 128.060296376 274.841995766 115.17579142 278 105 c 0
 287 76 309 62 344 62 c 0
 412 62 453 113 478 234 c 1
 489 285 l 2
EndSplineSet
Validated: 524289
EndChar

StartChar: h
Encoding: 104 104 73
Width: 727
Flags: W
HStem: 0 59<46 120 293 344 406 469 642 704> 452 81<458.382 613.266> 701 59<192 257>
VStem: 535.588 172.473<270.516 444.74>
LayerCount: 2
Fore
SplineSet
34 0 m 1
 46 59 l 1
 120 59 l 1
 257 701 l 1
 180 701 l 1
 192 760 l 1
 442 760 l 1
 375 446 l 1
 429 507 485 533 566 533 c 0
 660.532091857 533 708.061862132 487.303298461 708.061862132 399.602036228 c 0
 708.061862132 378.757645026 705.376935282 355.54044259 700 330 c 2
 642 59 l 1
 716 59 l 1
 704 0 l 1
 394 0 l 1
 406 59 l 1
 469 59 l 1
 528 335 l 2
 532.981236645 359.352712489 535.588416889 379.187059568 535.588416889 395.138833537 c 0
 535.588416889 436.829759941 517.779554695 452 478 452 c 0
 409 452 366 403 343 292 c 2
 293 59 l 1
 356 59 l 1
 344 0 l 1
 34 0 l 1
EndSplineSet
Validated: 524289
EndChar

StartChar: i
Encoding: 105 105 74
Width: 380
Flags: W
HStem: 0 59<46 120 293 355> 460 59<144 205> 573 187<282.175 370.685>
LayerCount: 2
Fore
SplineSet
233 666 m 0
 244 719 294 760 347 760 c 0
 392.104277085 760 422.161247874 729.15302209 422.161247874 686.384295412 c 0
 422.161247874 679.845640818 421.458710617 673.028332971 420 666 c 0
 409 614 359 573 307 573 c 0
 261.016707327 573 230.841078345 603.86258149 230.841078345 645.995064526 c 0
 230.841078345 652.424167038 231.543702253 659.115683377 233 666 c 0
293 59 m 1
 367 59 l 1
 355 0 l 1
 34 0 l 1
 46 59 l 1
 120 59 l 1
 205 460 l 1
 131 460 l 1
 144 519 l 1
 391 519 l 1
 293 59 l 1
EndSplineSet
Validated: 524289
EndChar

StartChar: j
Encoding: 106 106 75
Width: 362
Flags: W
HStem: -222 55<-37.2636 57.9727> -203 110<-94 -42.3449> 460 59<143 204> 573 187<277.175 366.003>
VStem: -94 55<-121.548 -93>
LayerCount: 2
Fore
SplineSet
228 666 m 0x38
 239 719 289 760 342 760 c 0
 386.370376661 760 417.116322007 728.209660265 417.116322007 685.701613448 c 0
 417.116322007 679.350251109 416.429918759 672.759615954 415 666 c 0
 404 614 354 573 302 573 c 0
 256.748835091 573 225.885869364 604.048219286 225.885869364 646.374938003 c 0
 225.885869364 652.687616255 226.572361808 659.251164909 228 666 c 0x38
204 460 m 1
 130 460 l 1
 143 519 l 1
 390 519 l 1
 267 -61 l 2
 244 -168 156 -222 9 -222 c 0xb8
 -30 -222 -73 -215 -118 -203 c 1
 -94 -93 l 1
 -39 -93 l 1x78
 -41.1063950015 -103.953254008 -42.1923030254 -113.575438045 -42.1923030254 -121.941319021 c 0
 -42.1923030254 -153.292020028 -26.9425014936 -167 7 -167 c 0xb8
 55 -167 77 -141 94 -61 c 2
 204 460 l 1
EndSplineSet
Validated: 524289
EndChar

StartChar: k
Encoding: 107 107 76
Width: 693
Flags: W
HStem: 0 59<46 120 293 346 424 485 666 710> 460 59<538 587 666 762> 701 59<195 257>
LayerCount: 2
Fore
SplineSet
346 0 m 1
 34 0 l 1
 46 59 l 1
 120 59 l 1
 257 701 l 1
 183 701 l 1
 195 760 l 1
 442 760 l 1
 338 272 l 1
 587 460 l 1
 525 460 l 1
 538 519 l 1
 775 519 l 1
 762 460 l 1
 666 460 l 1
 507 340 l 1
 666 59 l 1
 722 59 l 1
 710 0 l 1
 412 0 l 1
 424 59 l 1
 485 59 l 1
 380 244 l 1
 323 201 l 1
 293 59 l 1
 358 59 l 1
 346 0 l 1
EndSplineSet
Validated: 1
EndChar

StartChar: l
Encoding: 108 108 77
Width: 380
Flags: W
HStem: 0 59<46 120 293 355> 701 59<195 257>
LayerCount: 2
Fore
SplineSet
293 59 m 1
 367 59 l 1
 355 0 l 1
 34 0 l 1
 46 59 l 1
 120 59 l 1
 257 701 l 1
 183 701 l 1
 195 760 l 1
 442 760 l 1
 293 59 l 1
EndSplineSet
Validated: 1
EndChar

StartChar: m
Encoding: 109 109 78
Width: 1058
Flags: W
HStem: 0 59<46 120 293 343 398 460 633 683 738 800 973 1035> 452 81<457.8 598 797.947 944.13> 460 59<144 205>
VStem: 865.93 173.687<270.133 445.131>
LayerCount: 2
Fore
SplineSet
699 434 m 1xd0
 761 503 821 533 896 533 c 0
 992.260881124 533 1039.61704351 489.886629533 1039.61704351 402.627517695 c 0
 1039.61704351 381.108345995 1036.73695373 356.904334726 1031 330 c 2
 973 59 l 1
 1047 59 l 1
 1035 0 l 1
 726 0 l 1
 738 59 l 1
 800 59 l 1
 852 304 l 2
 861.494444673 348.081350268 865.929760386 380.664680172 865.929760386 402.37380296 c 0
 865.929760386 412.675790826 864.930952283 420.528968532 863 426 c 0
 857 443 841 452 814 452 c 0
 753 452 706 403 688 316 c 2
 633 59 l 1
 695 59 l 1
 683 0 l 1
 386 0 l 1
 398 59 l 1
 460 59 l 1
 512 304 l 2
 521.494444673 348.081350268 525.929760386 380.664680172 525.929760386 402.37380296 c 0
 525.929760386 412.675790826 524.930952283 420.528968532 523 426 c 0
 517 443 501 452 474 452 c 0xd0
 413 452 366 403 348 316 c 2
 293 59 l 1
 355 59 l 1
 343 0 l 1
 34 0 l 1
 46 59 l 1
 120 59 l 1
 205 460 l 1
 131 460 l 1
 144 519 l 1
 391 519 l 1xb0
 375 446 l 1
 428 506 484 533 556 533 c 0
 640 533 684 502 699 434 c 1xd0
EndSplineSet
Validated: 524289
EndChar

StartChar: n
Encoding: 110 110 79
Width: 727
Flags: W
HStem: 0 59<46 120 293 344 406 469 642 704> 452 81<458.382 613.266> 460 59<144 205>
VStem: 535.588 172.473<270.516 444.74>
LayerCount: 2
Fore
SplineSet
34 0 m 1xd0
 46 59 l 1
 120 59 l 1
 205 460 l 1
 131 460 l 1
 144 519 l 1
 391 519 l 1xb0
 375 446 l 1
 429 507 485 533 566 533 c 0
 660.532091857 533 708.061862132 487.303298461 708.061862132 399.602036228 c 0
 708.061862132 378.757645026 705.376935282 355.54044259 700 330 c 2
 642 59 l 1
 716 59 l 1
 704 0 l 1
 394 0 l 1
 406 59 l 1
 469 59 l 1
 528 335 l 2
 532.981236645 359.352712489 535.588416889 379.187059568 535.588416889 395.138833537 c 0
 535.588416889 436.829759941 517.779554695 452 478 452 c 0
 409 452 366 403 343 292 c 2
 293 59 l 1
 356 59 l 1
 344 0 l 1
 34 0 l 1xd0
EndSplineSet
Validated: 524289
EndChar

StartChar: o
Encoding: 111 111 80
Width: 667
Flags: W
HStem: -14 55<288.086 405.373> 478 55<371.95 489.378>
VStem: 87.747 182.561<91.8914 271.611> 506.165 183.821<244.45 427.805>
LayerCount: 2
Fore
SplineSet
342 41 m 0
 379 41 408 57 429 88 c 0
 451 119 470 177 488 260 c 0
 499.677840111 317.015337011 506.16505238 361.761917306 506.16505238 394.239740885 c 0
 506.16505238 409.041465203 504.817614059 421.294884908 502 431 c 0
 494 462 472 478 435 478 c 0
 398 478 369 462 347 431 c 0
 326 400 306 343 289 260 c 0
 276.538461538 202.538461538 270.307692308 157.538461538 270.307692308 124.668183887 c 0
 270.307692308 110.059171598 271.538461538 97.8461538462 274 88 c 1
 283 57 305 41 342 41 c 0
331 -14 m 0
 175.389606592 -14 87.7469603972 60.4752974793 87.7469603972 187.906471678 c 0
 87.7469603972 210.336141396 90.4622106891 234.406433185 96 260 c 0
 132 431 264 533 447 533 c 0
 603.643289825 533 689.985874782 459.07554746 689.985874782 331.587490188 c 0
 689.985874782 309.322547735 687.352399817 285.42389913 682 260 c 0
 645 89 514 -14 331 -14 c 0
EndSplineSet
Validated: 524289
Substitution2: "sous-table Substitution simple lookups10" ordmasculine
Substitution2: "sous-table 'aalt' Activer toutes les variantes dans Latin lookup 0" ordmasculine
EndChar

StartChar: p
Encoding: 112 112 81
Width: 699
Flags: W
HStem: -208 59<-9 65 238 305> -14 76<326.004 444.877> 457 76<433.585 587.526> 460 59<133 194>
VStem: 535.452 188.023<234.701 440.644>
LayerCount: 2
Fore
SplineSet
330 285 m 2xe8
 319 234 l 1
 311.919121278 199.728546986 308.287794987 171.072644441 308.287794987 147.600579448 c 0
 308.287794987 88.201344442 331.543225273 62 381 62 c 0
 416 62 444 76 465 105 c 0
 486 134 504 185 520 260 c 0
 530.131993291 307.493718553 535.451926205 345.363316351 535.451926205 373.862729662 c 0
 535.451926205 390.368341509 533.667504193 403.73098826 530 414 c 1
 522 443 500 457 465 457 c 0
 396 457 356 406 330 285 c 2xe8
194 460 m 1xd8
 120 460 l 1
 133 519 l 1
 380 519 l 1xd8
 366 453 l 1
 406 508 461 533 534 533 c 0xe8
 655.851553058 533 723.474468488 462.502771083 723.474468488 343.274014676 c 0
 723.474468488 317.688400602 720.36043304 289.858699549 714 260 c 0
 677 89 566 -14 418 -14 c 0
 345 -14 301 11 284 66 c 1
 238 -149 l 1
 318 -149 l 1
 305 -208 l 1
 -22 -208 l 1
 -9 -149 l 1
 65 -149 l 1
 194 460 l 1xd8
EndSplineSet
Validated: 524289
EndChar

StartChar: q
Encoding: 113 113 82
Width: 699
Flags: W
HStem: -208 59<317 397 570 631> -14 76<214.324 375.048> 457 76<363.463 482.502> 460 59<699 773>
VStem: 86.0802 187.204<77.8727 285.295>
LayerCount: 2
Fore
SplineSet
699 460 m 1xd8
 570 -149 l 1
 644 -149 l 1
 631 -208 l 1
 304 -208 l 1
 317 -149 l 1
 397 -149 l 1
 443 66 l 1
 402 11 348 -14 275 -14 c 0
 153.64736323 -14 86.0801992537 55.2487962228 86.0801992537 174.452021014 c 0
 86.0801992537 200.627403056 89.3381591926 229.211492485 96 260 c 0
 132 431 243 533 391 533 c 0xe8
 464 533 507 508 525 453 c 1
 539 519 l 1
 786 519 l 1
 773 460 l 1
 699 460 l 1xd8
489 285 m 2
 496.417071872 319.517911402 500.172038741 348.339215023 500.172038741 371.905004729 c 0
 500.172038741 430.947357827 476.601504336 457 428 457 c 0
 392 457 364 443 342 414 c 1
 323 386 305 335 289 260 c 0
 278.614229749 211.316701949 273.284594984 172.745674871 273.284594984 143.739920207 c 0
 273.284594984 128.060296376 274.841995766 115.17579142 278 105 c 0
 287 76 309 62 344 62 c 0
 412 62 453 113 478 234 c 1
 489 285 l 2
EndSplineSet
Validated: 524289
EndChar

StartChar: r
Encoding: 114 114 83
Width: 527
Flags: W
HStem: 0 59<46 120 293 375> 452 81<464.498 573> 460 59<139 205>
VStem: 560 55<370 391.805>
LayerCount: 2
Fore
SplineSet
648 525 m 1xd0
 615 370 l 1
 560 370 l 1
 561.139956472 377.979695301 561.711381362 385.350249622 561.711381362 392.123236199 c 0
 561.711381362 432.881794882 541.017766612 452 499 452 c 0xd0
 423 452 362 383 337 264 c 2
 293 59 l 1
 387 59 l 1
 375 0 l 1
 34 0 l 1
 46 59 l 1
 120 59 l 1
 205 460 l 1
 126 460 l 1
 139 519 l 1
 391 519 l 1xb0
 371 427 l 1
 420 499 483 533 563 533 c 0
 583 533 612 530 648 525 c 1xd0
EndSplineSet
Validated: 524289
EndChar

StartChar: s
Encoding: 115 115 84
Width: 563
Flags: W
HStem: -14 55<171.878 339.787> 478 55<316.782 491.348>
VStem: 81 55<142.032 160> 115.486 168.767<327.167 414.667> 379.387 179.888<106.267 210.128> 518 55<371 392.153>
LayerCount: 2
Fore
SplineSet
50 15 m 1xc8
 81 160 l 1
 136 160 l 1
 135.34364179 153.682552229 135.0171195 147.600701544 135.0171195 141.758313847 c 0
 135.0171195 76.3909552985 175.891761204 41 253 41 c 0
 324 41 368 67 377 112 c 0
 378.548699623 119.05518717 379.386741313 125.488548649 379.386741313 131.391800743 c 0xe8
 379.386741313 159.794277192 359.987024906 175.925321509 307 190 c 2
 240 208 l 2
 154.089331493 230.520272327 115.486017261 266.954472382 115.486017261 327.167178882 c 0
 115.486017261 339.144677362 117.013514885 352.063069462 120 366 c 0
 144 479 232 533 395 533 c 0
 456 533 522 523 601 502 c 1
 573 371 l 1
 518 371 l 1xd4
 519.063829787 378.553191489 519.595744681 385.710276143 519.595744681 392.470049989 c 0
 519.595744681 449.252150294 482.063829787 478 407 478 c 0
 336 478 295 455 286 412 c 0
 284.862760562 406.313802808 284.253404201 401.049912079 284.253404201 396.165447136 c 0
 284.253404201 370.984779401 300.448064399 355.8879839 344 345 c 2
 411 327 l 2
 475 310 518 288 538 263 c 0
 552.398242198 245.859235479 559.275055701 223.547488731 559.275055701 196.709374946 c 0
 559.275055701 184.403794539 557.829324772 171.146623862 555 157 c 0
 530 40 437 -14 261 -14 c 0
 197 -14 125 -5 50 15 c 1xc8
EndSplineSet
Validated: 524289
EndChar

StartChar: t
Encoding: 116 116 85
Width: 462
Flags: W
HStem: -14 55<243.5 380.332> 460 59<134 196 382 513>
VStem: 121.544 170.081<50.3346 196.656> 410 73<72.2098 127>
LayerCount: 2
Fore
SplineSet
196 460 m 1
 121 460 l 1
 134 519 l 1
 209 519 l 1
 243 680 l 1
 416 680 l 1
 382 519 l 1
 526 519 l 1
 513 460 l 1
 369 460 l 1
 302 142 l 2
 295.188542521 111.348441346 291.624801752 88.1202351693 291.624801752 72.9474295919 c 0
 291.624801752 65.8448181607 292.405728739 60.5073967734 294 57 c 0
 298 46 311 41 330 41 c 0
 371 41 397 68 410 127 c 1
 483 127 l 1
 456 23 404 -14 279 -14 c 0
 208 -14 161 -3 141 19 c 0
 128.029411765 33.2058823529 121.544117647 54.2785467128 121.544117647 82.2179930796 c 0
 121.544117647 99.5138408304 124.029411765 119.441176471 129 142 c 2
 196 460 l 1
EndSplineSet
Validated: 524289
EndChar

StartChar: u
Encoding: 117 117 86
Width: 727
Flags: W
HStem: -14 81<224.165 378.344> 0 59<631 693> 460 59<133 194 493 543>
VStem: 128.651 172.94<74.2308 253.195>
LayerCount: 2
Fore
SplineSet
729 519 m 1xb0
 631 59 l 1
 705 59 l 1
 693 0 l 1
 446 0 l 1x70
 461 73 l 1
 407 12 352 -14 271 -14 c 0
 177.329528984 -14 128.651391699 31.6443965384 128.651391699 119.247386061 c 0
 128.651391699 140.130525352 131.417617754 163.398040044 137 189 c 1
 194 460 l 1
 120 460 l 1
 133 519 l 1
 380 519 l 1
 315 216 l 2
 306.263477187 172.317385934 301.591696846 139.474085128 301.591696846 117.47009758 c 0
 301.591696846 106.732015514 302.704281515 98.5753163213 305 93 c 0
 313 76 330 67 359 67 c 0
 428 67 470 116 494 228 c 2
 543 460 l 1
 480 460 l 1
 493 519 l 1
 729 519 l 1xb0
EndSplineSet
Validated: 524289
EndChar

StartChar: v
Encoding: 118 118 87
Width: 581
Flags: W
HStem: 0 21G<219.217 374.217> 460 59<92 136 314 377 521 576 643 703>
LayerCount: 2
Fore
SplineSet
223 0 m 1
 136 460 l 1
 79 460 l 1
 92 519 l 1
 390 519 l 1
 377 460 l 1
 314 460 l 1
 376 132 l 1
 576 460 l 1
 508 460 l 1
 521 519 l 1
 716 519 l 1
 703 460 l 1
 643 460 l 1
 362 0 l 1
 223 0 l 1
EndSplineSet
Validated: 1
EndChar

StartChar: w
Encoding: 119 119 88
Width: 861
Flags: W
HStem: 0 21G<202.391 334.077 541.477 674.043> 460 59<101 145 321 382 797 852 917 978>
LayerCount: 2
Fore
SplineSet
649 519 m 1
 693 173 l 1
 852 460 l 1
 784 460 l 1
 797 519 l 1
 991 519 l 1
 978 460 l 1
 917 460 l 1
 663 0 l 1
 544 0 l 1
 503 325 l 1
 323 0 l 1
 205 0 l 1
 145 460 l 1
 88 460 l 1
 101 519 l 1
 395 519 l 1
 382 460 l 1
 321 460 l 1
 358 179 l 1
 546 519 l 1
 649 519 l 1
EndSplineSet
Validated: 1
EndChar

StartChar: x
Encoding: 120 120 89
Width: 596
Flags: W
HStem: 0 59<156 214 285 352 546 603> 460 59<115 160 356 419 489 540>
LayerCount: 2
Fore
SplineSet
421 331 m 1
 540 460 l 1
 476 460 l 1
 489 519 l 1
 691 519 l 1
 657 504 642 492 609 460 c 1
 438 275 l 1
 546 59 l 1
 615 59 l 1
 603 0 l 1
 273 0 l 1
 285 59 l 1
 352 59 l 1
 283 196 l 1
 156 59 l 1
 226 59 l 1
 214 0 l 1
 0 0 l 1
 39 16 66 40 86 59 c 1
 265 253 l 1
 160 460 l 1
 102 460 l 1
 115 519 l 1
 432 519 l 1
 419 460 l 1
 356 460 l 1
 421 331 l 1
EndSplineSet
Validated: 1
EndChar

StartChar: y
Encoding: 121 121 90
Width: 581
Flags: W
HStem: -222 55<87.4891 194.832> -201 108<29 79.5742> 460 59<97 140 321 383 520 576 639 702>
VStem: 29 55<-118.13 -93>
LayerCount: 2
Fore
SplineSet
287 -117 m 1xb0
 239 -193 193 -222 118 -222 c 0xb0
 86 -222 48 -214 6 -201 c 1
 29 -93 l 1
 84 -93 l 1x70
 82.1481481481 -102.444444444 81.2222222222 -110.92866941 81.2222222222 -118.484428187 c 0
 81.2222222222 -151.729766804 99.1481481481 -167 135 -167 c 0
 178 -167 204 -148 243 -84 c 2
 254 -66 l 1
 140 460 l 1
 84 460 l 1
 97 519 l 1
 396 519 l 1
 383 460 l 1
 321 460 l 1
 388 153 l 1
 576 460 l 1
 507 460 l 1
 520 519 l 1
 715 519 l 1
 702 460 l 1
 639 460 l 1
 287 -117 l 1xb0
EndSplineSet
Validated: 524289
EndChar

StartChar: z
Encoding: 122 122 91
Width: 568
Flags: W
HStem: 0 58<248 488> 462 57<207 431>
LayerCount: 2
Fore
SplineSet
35 0 m 1
 47 59 l 1
 431 462 l 1
 207 462 l 1
 188 373 l 1
 130 373 l 1
 161 519 l 1
 644 519 l 1
 631 461 l 1
 248 58 l 1
 488 58 l 1
 508 152 l 1
 566 152 l 1
 534 0 l 1
 35 0 l 1
EndSplineSet
Validated: 1
EndChar

StartChar: braceleft
Encoding: 123 123 92
Width: 643
Flags: W
HStem: -163 59<411.872 518> 269 59<153 254.095> 701 59<574.207 702>
VStem: 226.622 175.19<-93.4942 66.1562> 271.338 173.912<76.0781 250.89>
CounterMasks: 1 e0
LayerCount: 2
Fore
SplineSet
530 -104 m 1xf0
 518 -163 l 1
 446 -163 l 2
 369 -163 319 -159 293 -151 c 0
 268 -143 250 -129 237 -109 c 1
 230.120725553 -97.2069580915 226.6217666 -84.2066606494 226.6217666 -65.3720127662 c 0xf0
 226.6217666 -45.8763000264 230.370651193 -20.1294975282 238 17 c 2
 264 139 l 2
 268.78552893 161.560350669 271.338052538 180.589437108 271.338052538 196.52511771 c 0
 271.338052538 250.518863413 242.034825641 269 171 269 c 2
 141 269 l 1
 153 328 l 1
 183 328 l 2
 275 328 311 359 332 458 c 2
 358 580 l 2
 373 653 386 682 411 706 c 0
 432 726 456 740 484 748 c 0
 513 756 565 760 642 760 c 2
 714 760 l 1
 702 701 l 1
 652 701 l 2
 579 701 551 677 533 589 c 2
 505 457 l 2
 494 405 478 368 457 346 c 0
 436 324 404 308 360 299 c 1
 401 288 426 271 437 250 c 0
 442.5 239.5 445.25 225 445.25 206.625 c 0xe8
 445.25 188.25 442.5 166 437 140 c 2
 409 8 l 2
 404.307969968 -13.731507516 401.81135614 -31.5600528922 401.81135614 -46.0880313777 c 0
 401.81135614 -90.3899387518 425.02727328 -104 480 -104 c 2
 530 -104 l 1xf0
EndSplineSet
Validated: 524289
EndChar

StartChar: bar
Encoding: 124 124 93
Width: 364
Flags: W
HStem: 744 20G<286.74 396>
VStem: 78 318
LayerCount: 2
Fore
SplineSet
396 764 m 1
 183 -236 l 1
 78 -236 l 1
 291 764 l 1
 396 764 l 1
EndSplineSet
Validated: 1
EndChar

StartChar: braceright
Encoding: 125 125 94
Width: 643
Flags: W
HStem: -163 59<68 194.633> 269 59<514.905 616> 701 59<252 357.124>
VStem: 323.656 174.006<345.849 520.922> 366.636 175.364<528.859 690.251>
CounterMasks: 1 e0
LayerCount: 2
Fore
SplineSet
68 -104 m 1xf0
 117 -104 l 2
 189 -104 217 -80 236 8 c 2
 264 140 l 2
 275 191 291 228 311 249 c 0
 332 271 365 288 410 299 c 1
 349.892445131 313.275544281 323.65599794 337.147902405 323.65599794 391.824464612 c 0xf0
 323.65599794 409.919536289 326.529577589 431.388476894 332 457 c 2
 360 589 l 2
 364.330852627 610.173057289 366.635563413 627.641169496 366.635563413 641.961474507 c 0
 366.635563413 687.159585934 343.676589491 701 289 701 c 2
 240 701 l 1
 252 760 l 1
 323 760 l 2
 400 760 450 756 475 748 c 0
 501 740 519 726 532 706 c 1
 538.5 694 542 680.75 542 661.375 c 0xe8
 542 642 538.5 616.5 531 580 c 2
 505 458 l 2
 500.21447107 435.439649331 497.661947462 416.410562892 497.661947462 400.47488229 c 0
 497.661947462 346.481136587 526.965174359 328 598 328 c 2
 628 328 l 1
 616 269 l 1
 586 269 l 2
 494 269 458 238 437 139 c 2
 411 17 l 2
 396 -56 382 -85 358 -109 c 0
 337 -129 313 -143 284 -151 c 0
 256 -159 204 -163 127 -163 c 2
 56 -163 l 1
 68 -104 l 1xf0
EndSplineSet
Validated: 524289
EndChar

StartChar: asciitilde
Encoding: 126 126 95
Width: 838
Flags: W
HStem: 223 112<538.764 694.902> 292 112<276.155 430.22>
LayerCount: 2
Fore
SplineSet
818 406 m 1x80
 796 305 l 1
 724 249 658 223 593 223 c 0x80
 562 223 524 232 478 251 c 0
 473 253 470 255 467 256 c 0
 465 257 462 258 458 260 c 0
 406 281 365 292 334 292 c 0
 283 292 226 269 152 221 c 1
 174 322 l 1
 249 378 312 404 377 404 c 0x40
 408 404 446 395 491 376 c 0
 497 374 501 372 503 371 c 2
 510 368 l 2
 562 346 604 335 637 335 c 0
 688 335 745 358 818 406 c 1x80
EndSplineSet
Validated: 1
EndChar

StartChar: Euro
Encoding: 8364 8364 96
Width: 696
Flags: W
HStem: -14 57<376.253 512.229> 259 58<89 144 347 474> 411 58<121 168 382 574> 685 57<504.114 638.864>
VStem: 143.812 190.51<125.586 259>
LayerCount: 2
Fore
SplineSet
693 208 m 1
 637 63 535 -14 399 -14 c 0
 238.140585865 -14 143.812028593 79.1431996092 143.812028593 245.971208542 c 0
 143.812028593 250.265428432 143.874527701 254.608469537 144 259 c 1
 51 259 l 1
 89 317 l 1
 148 317 l 1
 150 328 l 2
 153 345 154 357 156 364 c 0
 158 372 161 385 166 403 c 2
 168 411 l 1
 83 411 l 1
 121 469 l 1
 188 469 l 1
 258 644 394 742 559 742 c 0
 630 742 697 723 779 679 c 1
 741 500 l 1
 683 500 l 1
 683.055427547 503.547362988 683.083205177 507.040194196 683.083205177 510.478791624 c 0
 683.083205177 631.115591127 648.893753226 685 575 685 c 0
 491 685 428 616 382 469 c 1
 612 469 l 1
 574 411 l 1
 367 411 l 1
 360 383 356 369 353 356 c 0
 353 353 349 332 347 317 c 1
 512 317 l 1
 474 259 l 1
 339 259 l 1
 335.879413429 233.861941513 334.321725465 210.948007965 334.321725465 190.242567433 c 0
 334.321725465 91.515996987 369.736103251 43 440 43 c 0
 513 43 574 100 614 208 c 1
 693 208 l 1
EndSplineSet
Validated: 524289
EndChar

StartChar: quotesinglbase
Encoding: 8218 8218 97
Width: 348
Flags: W
HStem: -130 286
VStem: 146 138<90.4442 156>
LayerCount: 2
Fore
SplineSet
16 -64 m 1
 88 -20 127 38 146 129 c 1
 152 156 l 1
 284 156 l 1
 250 21 178 -67 53 -130 c 1
 16 -64 l 1
EndSplineSet
Validated: 1
EndChar

StartChar: florin
Encoding: 402 402 98
Width: 696
Flags: W
HStem: -211 55<51.919 142.127> -188 114<-6 46> 342 59<216 321 520 635> 605 114<722.625 775> 687 55<627.054 718.291>
VStem: -6 59<-107.25 -74> 716 59<605 638.25>
LayerCount: 2
Fore
SplineSet
391 554 m 2xa6
 432 677 522 742 653 742 c 0xae
 697 742 746 734 799 719 c 1
 775 605 l 1
 716 605 l 1x36
 719.528198507 621.012593223 721.362265368 634.373502131 721.362265368 645.342606408 c 0
 721.362265368 674.79026307 708.144004594 687 679 687 c 0
 655 687 635 678 619 659 c 0
 604 640 586 602 567 543 c 2
 520 401 l 1
 648 401 l 1
 635 342 l 1
 500 342 l 1
 379 -23 l 1
 340 -144 247 -211 116 -211 c 0xae
 71 -211 23 -204 -30 -188 c 1
 -6 -74 l 1
 53 -74 l 1x66
 49.5552334401 -89.6339405412 47.7956384758 -102.740123689 47.7956384758 -113.560425392 c 0
 47.7956384758 -143.574217869 61.3342996798 -156 90 -156 c 0
 115 -156 135 -147 150 -128 c 0
 165 -110 183 -71 203 -12 c 2
 321 342 l 1
 203 342 l 1
 216 401 l 1
 341 401 l 1
 391 554 l 2xa6
EndSplineSet
Validated: 524289
EndChar

StartChar: quotedblbase
Encoding: 8222 8222 99
Width: 575
Flags: W
HStem: -130 286<275.97 284>
VStem: 146 138<90.4442 156> 373 138<90.4442 156>
LayerCount: 2
Fore
SplineSet
242 -64 m 1
 314 -20 354 38 373 129 c 1
 379 156 l 1
 511 156 l 1
 477 21 405 -67 280 -130 c 1
 242 -64 l 1
16 -64 m 1
 88 -20 127 38 146 129 c 1
 152 156 l 1
 284 156 l 1
 250 21 178 -67 53 -130 c 1
 16 -64 l 1
EndSplineSet
Validated: 1
EndChar

StartChar: ellipsis
Encoding: 8230 8230 100
Width: 1000
Flags: W
HStem: -14 186<146.412 233.409 472.412 559.409 798.412 885.409>
LayerCount: 2
Fore
SplineSet
749 79 m 0
 760 130 811 172 862 172 c 0
 906.370376661 172 937.116322007 140.209660265 937.116322007 98.3601332182 c 0
 937.116322007 92.1071639599 936.429918759 85.6296233391 935 79 c 0
 924 28 874 -14 823 -14 c 0
 778.490298778 -14 746.929051823 17.9902987778 746.929051823 60.0343906659 c 0
 746.929051823 66.1651601544 747.600131636 72.5097012222 749 79 c 0
423 79 m 0
 434 130 485 172 536 172 c 0
 580.370376661 172 611.116322007 140.209660265 611.116322007 98.3601332182 c 0
 611.116322007 92.1071639599 610.429918759 85.6296233391 609 79 c 0
 598 28 548 -14 497 -14 c 0
 452.490298778 -14 420.929051823 17.9902987778 420.929051823 60.0343906659 c 0
 420.929051823 66.1651601544 421.600131636 72.5097012222 423 79 c 0
97 79 m 0
 108 130 159 172 210 172 c 0
 254.370376661 172 285.116322007 140.209660265 285.116322007 98.3601332182 c 0
 285.116322007 92.1071639599 284.429918759 85.6296233391 283 79 c 0
 272 28 222 -14 171 -14 c 0
 126.490298778 -14 94.9290518229 17.9902987778 94.9290518229 60.0343906659 c 0
 94.9290518229 66.1651601544 95.6001316362 72.5097012222 97 79 c 0
EndSplineSet
Validated: 524289
EndChar

StartChar: dagger
Encoding: 8224 8224 101
Width: 523
Flags: W
HStem: 427 105<139.467 201.176 524.824 586.533> 709 20G<357.664 471>
LayerCount: 2
Fore
SplineSet
360 729 m 1
 471 729 l 1
 406 515 l 1
 608 532 l 1
 585 427 l 1
 391 444 l 1
 296 -96 l 1
 185 -96 l 1
 320 444 l 1
 118 427 l 1
 141 532 l 1
 335 515 l 1
 360 729 l 1
EndSplineSet
Validated: 1
EndChar

StartChar: daggerdbl
Encoding: 8225 8225 102
Width: 523
Flags: W
HStem: 101 105<69.5333 132.176 455.235 517.467> 427 105<139.467 201.176 524.824 586.533> 709 20G<357.664 471>
LayerCount: 2
Fore
SplineSet
360 729 m 1
 471 729 l 1
 406 515 l 1
 608 532 l 1
 585 427 l 1
 391 444 l 1
 384 316 l 1
 337 189 l 1
 538 206 l 1
 516 101 l 1
 322 118 l 1
 296 -96 l 1
 185 -96 l 1
 251 118 l 1
 49 101 l 1
 71 206 l 1
 266 189 l 1
 273 316 l 1
 320 444 l 1
 118 427 l 1
 141 532 l 1
 335 515 l 1
 360 729 l 1
EndSplineSet
Validated: 1
EndChar

StartChar: circumflex
Encoding: 710 710 103
Width: 500
Flags: W
HStem: 616 184
LayerCount: 2
Fore
SplineSet
361 800 m 1
 479 800 l 1
 564 616 l 1
 484 616 l 1
 404 726 l 1
 276 616 l 1
 196 616 l 1
 361 800 l 1
EndSplineSet
Validated: 1
EndChar

StartChar: perthousand
Encoding: 8240 8240 104
Width: 1385
Flags: W
HStem: -14 49<707.464 782.471 1142.74 1217.47> 334 49<760.585 838.598 1198.09 1273.6> 345 49<265.464 340.471> 693 49<321.964 397.045>
VStem: 132.122 127.48<402.268 582.656> 402.905 126.973<507.887 685.435> 574.122 127.48<43.3338 223.656> 844.601 127.277<146.305 326.358> 1009.12 128.18<43.1818 221.079> 1279.6 127.277<146.305 326.358>
LayerCount: 2
Fore
SplineSet
1250 383 m 0xdfc0
 1352.87251329 383 1406.87825152 334.821489373 1406.87825152 245.316419007 c 0
 1406.87825152 226.934276647 1404.60033985 206.809018535 1400 185 c 0
 1373 57 1290 -14 1166 -14 c 0
 1063.12748671 -14 1009.12174848 34.8667750643 1009.12174848 124.606382491 c 0
 1009.12174848 143.036693001 1011.39966015 163.190981465 1016 185 c 0
 1043 313 1126 383 1250 383 c 0xdfc0
1239 334 m 0
 1198 334 1173 294 1150 185 c 0
 1141.56747199 145.037149864 1137.30192581 114.214776 1137.30192581 91.2022596747 c 0
 1137.30192581 51.4473740019 1150.03189776 35 1176 35 c 0
 1219 35 1244 77 1267 185 c 0
 1275.33727851 224.148959938 1279.6011797 254.494168907 1279.6011797 277.274032109 c 0
 1279.6011797 317.336840327 1266.4129141 334 1239 334 c 0
363 693 m 0
 322 693 295 652 272 544 c 0
 263.734375 504.828125 259.6015625 474.438476562 259.6015625 451.577892303 c 0
 259.6015625 410.826416016 272.734375 394 299 394 c 0xbfc0
 342 394 367 435 390 544 c 0
 398.502361651 583.924132969 402.90509266 614.692424173 402.90509266 637.61830854 c 0
 402.90509266 676.709939082 390.104280392 693 363 693 c 0
373 742 m 0
 475.872513294 742 529.878251523 693.821489373 529.878251523 604.316419007 c 0
 529.878251523 585.934276647 527.600339847 565.809018535 523 544 c 0
 496 416 413 345 289 345 c 0
 186.127486706 345 132.121748477 393.866775064 132.121748477 483.606382491 c 0
 132.121748477 502.036693001 134.399660153 522.190981465 139 544 c 0
 166 672 249 742 373 742 c 0
818 742 m 1
 902 742 l 1
 286 -14 l 1
 202 -14 l 1
 818 742 l 1
815 383 m 0xdfc0
 917.872513294 383 971.878251523 334.821489373 971.878251523 245.316419007 c 0
 971.878251523 226.934276647 969.600339847 206.809018535 965 185 c 0
 938 57 855 -14 731 -14 c 0
 628.127486706 -14 574.121748477 34.8667750643 574.121748477 124.606382491 c 0
 574.121748477 143.036693001 576.399660153 163.190981465 581 185 c 0
 608 313 691 383 815 383 c 0xdfc0
804 334 m 0
 761 334 737 293 714 185 c 0
 705.734375 146.1875 701.6015625 115.898925781 701.6015625 93.0203552246 c 0
 701.6015625 52.2368164062 714.734375 35 741 35 c 0
 784 35 809 77 832 185 c 0
 840.337278505 224.148959938 844.601179697 254.494168907 844.601179697 277.274032109 c 0
 844.601179697 317.336840327 831.412914099 334 804 334 c 0
EndSplineSet
Validated: 524289
Ligature2: "sous-table Remplacement de ligature lookups11" zero fraction zero zero
Ligature2: "sous-table Remplacement de ligature lookups11" zero slash zero zero
EndChar

StartChar: Scaron
Encoding: 352 352 105
Width: 722
Flags: W
HStem: -14 59<252.926 468.548> 683 59<395.286 607.122>
VStem: 167.599 162.471<435.477 560.43> 542.7 171.094<164.244 318.818>
LayerCount: 2
Fore
SplineSet
84 35 m 1
 121 208 l 1
 183 208 l 1
 182.871101732 204.487522196 182.806585673 201.032157642 182.806585673 197.633872874 c 0
 182.806585673 95.5758215898 240.995846309 45 361 45 c 0
 462 45 525 85 540 158 c 0
 541.8 166.7 542.7 174.86 542.7 182.453 c 0
 542.7 200.17 537.8 214.8 528 226 c 0
 513 243 479 258 426 272 c 2
 323 299 l 2
 256 317 210 342 188 374 c 0
 174.319238334 394.5211425 167.599093022 420.069396811 167.599093022 450.885233979 c 0
 167.599093022 469.624270598 170.084086439 490.311168181 175 513 c 0
 205 658 324 742 497 742 c 0
 582 742 671 728 764 699 c 1
 730 538 l 1
 668 538 l 1
 668.036967442 539.848372104 668.055485895 541.677953572 668.055485895 543.488807551 c 0
 668.055485895 639.648160736 615.837404638 683 501 683 c 0
 405 683 348 650 333 583 c 0
 331.069047717 573.345238585 330.070239614 564.415478199 330.070239614 556.210718841 c 0
 330.070239614 538.921033526 334.505555327 524.850793912 344 514 c 0
 357 498 396 482 458 465 c 2
 562 438 l 2
 666.374051891 411.299661144 713.794013547 361.032112536 713.794013547 276.603877974 c 0
 713.794013547 256.683933452 711.154268209 234.862352819 706 211 c 0
 675 64 556 -14 359 -14 c 0
 264 -14 174 2 84 35 c 1
455 798 m 1
 374 927 l 1
 454 927 l 1
 541 848 l 1
 662 927 l 1
 742 927 l 1
 605 798 l 1
 455 798 l 1
EndSplineSet
Validated: 524289
Position2: "sous-table 'cpsp' Chasses pour composition en capitales dans Latin lookup 1" dx=5 dy=0 dh=10 dv=0
EndChar

StartChar: guilsinglleft
Encoding: 8249 8249 106
Width: 400
Flags: W
HStem: 502 20G<387.383 411.833>
VStem: 130 286
LayerCount: 2
Fore
SplineSet
416 522 m 1
 401 450 l 1
 251 293 l 1
 334 136 l 1
 319 64 l 1
 130 252 l 1
 147 334 l 1
 416 522 l 1
EndSplineSet
Validated: 1
EndChar

StartChar: OE
Encoding: 338 338 107
Width: 1180
Flags: W
HStem: 0 67<772 1076> 0 59<408.274 581> 362 66<848 1013> 501 20G<1042.7 1114> 662 67<898 1193> 670 59<528.899 711>
VStem: 107.919 203.241<150.944 399.999>
LayerCount: 2
Fore
SplineSet
581 59 m 1x76
 711 670 l 1
 649 670 l 2
 477 670 367 568 324 365 c 0
 315.439814815 324.388888889 311.159722222 287.820087449 311.159722222 255.293595679 c 0
 311.159722222 124.43119856 380.439814815 59 519 59 c 2
 581 59 l 1x76
1129 0 m 1
 484 0 l 2
 349 0 269 16 212 53 c 0
 144.367896138 95.5550316438 107.918910509 170.448111827 107.918910509 267.147505762 c 0
 107.918910509 297.699011455 111.55724966 330.427224227 119 365 c 0
 150 509 231 619 344 676 c 0
 417 713 501 729 638 729 c 2
 1274 729 l 1x76
 1238 557 l 1
 1171 557 l 1
 1193 662 l 1
 898 662 l 1
 848 428 l 1
 1027 428 l 1
 1047 521 l 1
 1114 521 l 1
 1061 269 l 1
 994 269 l 1
 1013 362 l 1
 834 362 l 1
 772 67 l 1
 1076 67 l 1xba
 1098 172 l 1
 1165 172 l 1
 1129 0 l 1
EndSplineSet
Validated: 524289
Ligature2: "sous-table 'dpng' Dipthongs (Obsolete) dans Latin lookup 9" O e
Ligature2: "sous-table 'dpng' Dipthongs (Obsolete) dans Latin lookup 9" O E
Position2: "sous-table 'cpsp' Chasses pour composition en capitales dans Latin lookup 1" dx=5 dy=0 dh=10 dv=0
EndChar

StartChar: quoteleft
Encoding: 8216 8216 108
Width: 348
Flags: W
HStem: 456 286
VStem: 165 131<456 521.556>
LayerCount: 2
Fore
SplineSet
433 676 m 1
 361 632 322 574 302 483 c 2
 296 456 l 1
 165 456 l 1
 199 591 271 679 396 742 c 1
 433 676 l 1
EndSplineSet
Validated: 1
EndChar

StartChar: quoteright
Encoding: 8217 8217 109
Width: 348
Flags: W
HStem: 443 286
VStem: 286 137<663.091 729>
LayerCount: 2
Fore
SplineSet
156 509 m 1
 228 553 266 610 286 702 c 1
 291 729 l 1
 423 729 l 1
 390 593 318 506 193 443 c 1
 156 509 l 1
EndSplineSet
Validated: 1
EndChar

StartChar: quotedblleft
Encoding: 8220 8220 110
Width: 575
Flags: W
HStem: 456 286<164 172.924>
VStem: 165 131<456 521.556> 391 132<456 521.556>
LayerCount: 2
Fore
SplineSet
660 676 m 1
 588 632 549 574 529 483 c 2
 523 456 l 1
 391 456 l 1
 425 591 497 679 623 742 c 1
 660 676 l 1
433 676 m 1
 361 632 322 574 302 483 c 2
 296 456 l 1
 165 456 l 1
 199 591 271 679 396 742 c 1
 433 676 l 1
EndSplineSet
Validated: 1
EndChar

StartChar: quotedblright
Encoding: 8221 8221 111
Width: 575
Flags: W
HStem: 443 286<416.076 423>
VStem: 286 137<663.091 729> 513 137<663.091 729>
LayerCount: 2
Fore
SplineSet
383 509 m 1
 455 553 493 610 513 702 c 1
 518 729 l 1
 650 729 l 1
 617 593 545 506 420 443 c 1
 383 509 l 1
156 509 m 1
 228 553 266 610 286 702 c 1
 291 729 l 1
 423 729 l 1
 390 593 318 506 193 443 c 1
 156 509 l 1
EndSplineSet
Validated: 1
EndChar

StartChar: bullet
Encoding: 8226 8226 112
Width: 639
Flags: W
HStem: 196 351<346.741 450.147>
LayerCount: 2
Fore
SplineSet
223 372 m 0
 233 420 260 464 300 496 c 0
 342 529 388 547 436 547 c 0
 483 547 523 529 549 496 c 0
 568.060409064 471.807942342 577.984595802 442.241636256 577.984595802 409.270992771 c 0
 577.984595802 397.266907344 576.669073437 384.811552497 574 372 c 0
 563 324 536 280 496 247 c 0
 456 214 408 196 360 196 c 0
 312 196 273 214 247 247 c 0
 228.303884808 270.729684667 218.398095497 300.147227258 218.398095497 332.64987977 c 0
 218.398095497 345.347471085 219.909894889 358.515904971 223 372 c 0
EndSplineSet
Validated: 524289
EndChar

StartChar: endash
Encoding: 8211 8211 113
Width: 500
Flags: W
HStem: 202 132<96 516>
LayerCount: 2
Fore
SplineSet
96 202 m 1
 96 334 l 1
 516 334 l 1
 516 202 l 1
 96 202 l 1
EndSplineSet
Validated: 1
EndChar

StartChar: emdash
Encoding: 8212 8212 114
Width: 1000
Flags: W
HStem: 202 132<96 1016>
LayerCount: 2
Fore
SplineSet
96 202 m 1
 96 334 l 1
 1016 334 l 1
 1016 202 l 1
 96 202 l 1
EndSplineSet
Validated: 1
EndChar

StartChar: tilde
Encoding: 732 732 115
Width: 500
Flags: W
HStem: 638 89<435.438 519.919> 703 89<283.081 362.304>
VStem: 210 54<639 684.395> 539 52<745.605 791>
LayerCount: 2
Fore
SplineSet
210 639 m 1x70
 212 647 l 1
 232 742 278 792 345 792 c 0x70
 369 792 387 785 414 765 c 2
 444 742 l 1
 445 741 l 1
 458 732 470 727 481 727 c 0
 508 727 530 751 539 791 c 1
 593 791 l 1
 591 783 l 1
 571 688 525 638 458 638 c 0xb0
 434 638 416 645 389 665 c 2
 359 688 l 1
 358 688 l 1
 345 698 333 703 322 703 c 0
 295 703 273 679 264 639 c 1
 210 639 l 1x70
EndSplineSet
Validated: 1
EndChar

StartChar: trademark
Encoding: 8482 8482 116
Width: 1000
Flags: W
HStem: 447 39<278 320 394 428 531 572 614 648 785 827 901 935> 522 21G<692.95 770.683> 641 88<270 289 501 528> 689 40<299 363 437 501 582 615 944 986>
LayerCount: 2
Fore
SplineSet
270 729 m 1xe0
 546 729 l 1xd0
 528 641 l 1
 491 641 l 1xe0
 501 689 l 1
 437 689 l 1
 394 486 l 1
 436 486 l 1
 428 447 l 1
 270 447 l 1
 278 486 l 1
 320 486 l 1
 363 689 l 1
 299 689 l 1xd0
 289 641 l 1
 252 641 l 1
 270 729 l 1xe0
712 729 m 1
 763 586 l 1
 874 729 l 1
 994 729 l 1
 986 689 l 1
 944 689 l 1
 901 486 l 1
 943 486 l 1
 935 447 l 1
 777 447 l 1
 785 486 l 1
 827 486 l 1
 864 661 l 1
 755 522 l 1
 700 522 l 1
 651 661 l 1
 614 486 l 1
 656 486 l 1
 648 447 l 1
 523 447 l 1
 531 486 l 1
 572 486 l 1
 615 689 l 1
 574 689 l 1
 582 729 l 1
 712 729 l 1
EndSplineSet
Validated: 1
EndChar

StartChar: scaron
Encoding: 353 353 117
Width: 563
Flags: W
HStem: -14 55<171.878 339.787> 478 55<316.782 491.348>
VStem: 81 55<142.032 160> 115.486 168.767<327.167 414.667> 379.387 179.888<106.267 210.128> 518 55<371 392.153>
LayerCount: 2
Fore
SplineSet
50 15 m 1xc8
 81 160 l 1
 136 160 l 1
 135.34364179 153.682552229 135.0171195 147.600701544 135.0171195 141.758313847 c 0
 135.0171195 76.3909552985 175.891761204 41 253 41 c 0
 324 41 368 67 377 112 c 0
 378.548699623 119.05518717 379.386741313 125.488548649 379.386741313 131.391800743 c 0xe8
 379.386741313 159.794277192 359.987024906 175.925321509 307 190 c 2
 240 208 l 2
 154.089331493 230.520272327 115.486017261 266.954472382 115.486017261 327.167178882 c 0
 115.486017261 339.144677362 117.013514885 352.063069462 120 366 c 0
 144 479 232 533 395 533 c 0
 456 533 522 523 601 502 c 1
 573 371 l 1
 518 371 l 1xd4
 519.063829787 378.553191489 519.595744681 385.710276143 519.595744681 392.470049989 c 0
 519.595744681 449.252150294 482.063829787 478 407 478 c 0
 336 478 295 455 286 412 c 0
 284.862760562 406.313802808 284.253404201 401.049912079 284.253404201 396.165447136 c 0
 284.253404201 370.984779401 300.448064399 355.8879839 344 345 c 2
 411 327 l 2
 475 310 518 288 538 263 c 0
 552.398242198 245.859235479 559.275055701 223.547488731 559.275055701 196.709374946 c 0
 559.275055701 184.403794539 557.829324772 171.146623862 555 157 c 0
 530 40 437 -14 261 -14 c 0
 197 -14 125 -5 50 15 c 1xc8
353 616 m 1
 268 800 l 1
 348 800 l 1
 428 689 l 1
 556 800 l 1
 636 800 l 1
 471 616 l 1
 353 616 l 1
EndSplineSet
Validated: 524289
EndChar

StartChar: guilsinglright
Encoding: 8250 8250 118
Width: 400
Flags: W
HStem: 502 20G<199.833 224.106>
VStem: 107 286
LayerCount: 2
Fore
SplineSet
204 522 m 1
 393 334 l 1
 376 252 l 1
 107 64 l 1
 122 136 l 1
 273 293 l 1
 189 450 l 1
 204 522 l 1
EndSplineSet
Validated: 1
EndChar

StartChar: oe
Encoding: 339 339 119
Width: 1028
Flags: W
HStem: -14 55<287.186 405.545 692.5 846.181> 478 55<371.95 488.654 764.437 855.835>
VStem: 87.4186 182.889<88.8686 271.611> 506.165 149.11<244.731 318.95> 874.627 166.965<305.453 442.603>
LayerCount: 2
Fore
SplineSet
342 41 m 0
 379 41 408 57 429 88 c 0
 451 119 470 177 488 260 c 0
 499.677840111 317.015337011 506.16505238 361.761917306 506.16505238 394.239740885 c 0
 506.16505238 409.041465203 504.817614059 421.294884908 502 431 c 0
 494 462 472 478 435 478 c 0
 398 478 369 462 347 431 c 0
 326 400 306 343 289 260 c 0
 276.538461538 202.538461538 270.307692308 157.538461538 270.307692308 124.668183887 c 0
 270.307692308 110.059171598 271.538461538 97.8461538462 274 88 c 1
 283 57 305 41 342 41 c 0
323 -14 m 0
 235 -14 170 10 129 59 c 0
 100.959138581 92.5122490131 87.4185669791 134.444021146 87.4185669791 184.795316398 c 0
 87.4185669791 208.065265319 90.3106220864 233.133493186 96 260 c 0
 132 431 264 533 447 533 c 0
 523 533 580 513 617 469 c 1
 674 511 745 533 828 533 c 1
 831.359576906 533.114271323 834.683636227 533.170565414 837.971879535 533.170565414 c 0
 967.620979069 533.170565414 1041.59147098 445.65729253 1041.59147098 373.796974153 c 0
 1041.59147098 367.732498024 1041.06464545 361.779503864 1040 356 c 1
 1038 346 l 1
 1014 232 794 166 659 124 c 1
 671.802438934 72.7902442651 694.303247255 40.9772273056 761.841062873 40.9772273056 c 0
 762.883273887 40.9772273056 763.936209643 40.9848029949 765 41 c 1
 840 41 896 82 925 157 c 1
 1006 157 l 1
 953 40 861 -14 712 -14 c 0
 627 -14 565 8 527 50 c 1
 474 7 403 -14 323 -14 c 0
869 346 m 0
 872.503288933 361.091090788 874.626769383 377.634611557 874.626769383 393.751812075 c 0
 874.626769383 437.442298207 859.022522864 478 813 478 c 1
 750 476 696 374 684 336 c 1
 667.327541727 299.145092238 655.275097828 234.570098227 655.275097828 193.626349225 c 0
 655.275097828 187.910438429 655.509991215 182.655083453 656 178 c 1
 781 236 851 264 869 346 c 0
EndSplineSet
Validated: 524289
Ligature2: "sous-table 'dpng' Dipthongs (Obsolete) dans Latin lookup 9" o e
EndChar

StartChar: Ydieresis
Encoding: 376 376 120
Width: 714
Flags: W
HStem: 0 59<184 282 471 557> 670 59<145 195 402 483 668 729 803 865> 796 143<392.199 471.25 610.199 689.75>
VStem: 358.262 146.228<828.826 905.339> 576.262 147.186<828.826 905.097>
LayerCount: 2
Fore
SplineSet
172 0 m 1
 184 59 l 1
 282 59 l 1
 334 302 l 1
 195 670 l 1
 133 670 l 1
 145 729 l 1
 495 729 l 1
 483 670 l 1
 402 670 l 1
 507 392 l 1
 729 670 l 1
 656 670 l 1
 668 729 l 1
 877 729 l 1
 865 670 l 1
 803 670 l 1
 528 327 l 1
 471 59 l 1
 569 59 l 1
 557 0 l 1
 172 0 l 1
360 867 m 0
 368 906 408 939 447 939 c 0
 481.095145972 939 504.490288194 913.778562589 504.490288194 881.3761477 c 0
 504.490288194 876.714806308 504.006123903 871.904854028 503 867 c 0
 494 828 456 796 417 796 c 0
 383.097050643 796 358.262424561 820.1821954 358.262424561 852.123354108 c 0
 358.262424561 856.925464444 358.823757544 861.902949357 360 867 c 0
578 867 m 0
 586 906 626 939 665 939 c 0
 699.231724969 939 723.447971354 913.576092825 723.447971354 880.986408503 c 0
 723.447971354 876.446859937 722.978107699 871.768275031 722 867 c 0
 713 828 674 796 635 796 c 0
 601.097050643 796 576.262424561 820.1821954 576.262424561 852.123354108 c 0
 576.262424561 856.925464444 576.823757544 861.902949357 578 867 c 0
EndSplineSet
Validated: 524289
Position2: "sous-table 'cpsp' Chasses pour composition en capitales dans Latin lookup 1" dx=5 dy=0 dh=10 dv=0
EndChar

StartChar: exclamdown
Encoding: 161 161 121
Width: 439
Flags: W
HStem: 0 21G<128 312.411> 557 185<313.49 400.504>
VStem: 128 321
LayerCount: 2
Fore
SplineSet
449 649 m 0
 439 598 388 557 337 557 c 0
 292.283395008 557 262.173449177 588.519632926 262.173449177 630.663164572 c 0
 262.173449177 636.585001805 262.767961763 642.716604992 264 649 c 1
 276 701 325 742 376 742 c 0
 420.370376661 742 451.116322007 710.209660265 451.116322007 668.360133218 c 0
 451.116322007 662.10716396 450.429918759 655.629623339 449 649 c 0
311 0 m 1
 128 0 l 1
 272 411 l 1
 292 504 l 1
 360 504 l 1
 340 411 l 1
 311 0 l 1
EndSplineSet
Validated: 524289
Position2: "sous-table 'cpsp' Chasses pour composition en capitales dans Latin lookup 1" dx=5 dy=0 dh=10 dv=0
EndChar

StartChar: cent
Encoding: 162 162 122
Width: 696
Flags: W
HStem: 478 53<532 575.472>
VStem: 124.291 185.929<88.2162 290.959> 603 55<348 373.047>
LayerCount: 2
Fore
SplineSet
370 46 m 1
 461 473 l 1
 394 457 354 397 325 260 c 0
 315.223513204 213.814527894 310.220328609 176.380109823 310.220328609 146.39407889 c 0
 310.220328609 87.4325241314 329.564334295 57.268956016 370 46 c 1
636 162 m 1
 593 59 519 1 417 -11 c 1
 388 -146 l 1
 329 -146 l 1
 358 -14 l 1
 206.377952184 -10.6306211597 124.291276209 60.1454956889 124.291276209 184.581684111 c 0
 124.291276209 207.871464561 127.166754273 233.040945425 133 260 c 0
 169 431 293 529 474 533 c 1
 501 662 l 1
 560 662 l 1
 532 531 l 1
 571 528 617 516 689 492 c 1
 658 348 l 1
 603 348 l 1
 603.756678708 356.972047541 604.13943894 365.44164213 604.13943894 373.421414843 c 0
 604.13943894 439.262153237 578.081794667 471.756678708 521 478 c 1
 429 43 l 1
 490 54 532 93 555 162 c 1
 636 162 l 1
EndSplineSet
Validated: 524289
EndChar

StartChar: sterling
Encoding: 163 163 123
Width: 696
Flags: W
HStem: 0 67<365 570> 0 59<84 178> 339 59<156 238 435 595> 687 55<530.504 659.74>
VStem: 674 59<587 612.249>
LayerCount: 2
Fore
SplineSet
733 587 m 1x78
 674 587 l 1
 675.443453996 596.093760175 676.157662188 604.645794895 676.157662188 612.623021418 c 0
 676.157662188 659.910642578 651.061003022 687 604 687 c 0
 528 687 487 642 463 529 c 2
 435 398 l 1
 607 398 l 1
 595 339 l 1
 423 339 l 1
 365 67 l 1
 570 67 l 1xb8
 593 178 l 1
 660 178 l 1
 623 0 l 1
 72 0 l 1
 84 59 l 1
 178 59 l 1
 238 339 l 1
 144 339 l 1
 156 398 l 1
 250 398 l 1
 279 533 l 2
 309 674 408 742 587 742 c 0
 630 742 686 736 763 725 c 1
 733 587 l 1x78
EndSplineSet
Validated: 524289
EndChar

StartChar: currency
Encoding: 164 164 124
Width: 636
Flags: W
HStem: 104 102<301.27 430.541> 420 102<339.04 468.251>
VStem: 170.477 104.877<232.054 357.752> 494.598 103.771<268.417 393.669>
LayerCount: 2
Fore
SplineSet
362 206 m 0
 421 206 479 253 492 313 c 0
 493.753888767 321.094871231 494.597681141 328.9531174 494.597681141 336.491244559 c 0
 494.597681141 384.82647432 459.905128769 420 408 420 c 0
 348 420 291 373 278 313 c 0
 276.215522244 304.76394882 275.354320715 296.772848476 275.354320715 289.11463812 c 0
 275.354320715 240.982444634 309.373318699 206 362 206 c 0
240 131 m 1
 117 30 l 1
 59 105 l 1
 182 207 l 1
 174.318181818 224.136363636 170.477272727 243.716942149 170.477272727 265.329075883 c 0
 170.477272727 280.291322314 172.318181818 296.227272727 176 313 c 0
 185 354 202 388 228 419 c 1
 147 519 l 1
 238 596 l 1
 317 493 l 1
 353 513 389 522 429 522 c 0
 465 522 499 513 531 493 c 1
 653 596 l 1
 711 521 l 1
 588 421 l 1
 595.121822171 399.634533488 598.369173082 377.916842315 598.369173082 356.474046831 c 0
 598.369173082 341.786545933 596.845603734 327.228018668 594 313 c 0
 585 272 569 239 543 208 c 1
 623 105 l 1
 531 30 l 1
 452 133 l 1
 417 113 382 104 341 104 c 0
 304 104 270 114 240 131 c 1
EndSplineSet
Validated: 524289
EndChar

StartChar: yen
Encoding: 165 165 125
Width: 696
Flags: W
HStem: 0 59<171 264 449 530> 228 57<115 300 497 682> 380 57<147 287 583 714> 670 59<173 228 417 500 606 668 741 807>
LayerCount: 2
Fore
SplineSet
159 0 m 1
 171 59 l 1
 264 59 l 1
 300 228 l 1
 103 228 l 1
 115 285 l 1
 312 285 l 1
 318 314 l 1
 302 380 l 1
 135 380 l 1
 147 437 l 1
 287 437 l 1
 228 670 l 1
 161 670 l 1
 173 729 l 1
 512 729 l 1
 500 670 l 1
 417 670 l 1
 486 401 l 1
 668 670 l 1
 594 670 l 1
 606 729 l 1
 819 729 l 1
 807 670 l 1
 741 670 l 1
 583 437 l 1
 726 437 l 1
 714 380 l 1
 543 380 l 1
 505 323 l 1
 497 285 l 1
 694 285 l 1
 682 228 l 1
 485 228 l 1
 449 59 l 1
 542 59 l 1
 530 0 l 1
 159 0 l 1
EndSplineSet
Validated: 1
EndChar

StartChar: brokenbar
Encoding: 166 166 126
Width: 364
Flags: W
VStem: 92 290
LayerCount: 2
Fore
SplineSet
382 699 m 1
 303 329 l 1
 198 329 l 1
 277 699 l 1
 382 699 l 1
276 199 m 1
 197 -171 l 1
 92 -171 l 1
 171 199 l 1
 276 199 l 1
EndSplineSet
Validated: 1
EndChar

StartChar: section
Encoding: 167 167 127
Width: 523
Flags: W
HStem: -95 55<157.719 303.734> -73 117<85 139.586> 603 117<511.178 566> 687 55<355.026 492.979>
VStem: 85 58<25.5599 44> 96.7209 127.237<295.857 375.672> 187.285 136.546<563.443 647.017> 335.786 136.449<0.078125 83.6339> 436.668 126.054<269.046 352.904> 508 58<603 620.395>
LayerCount: 2
Fore
SplineSet
591 720 m 1x22
 566 603 l 1
 508 603 l 1x2240
 508.890264881 609.231854168 509.334708261 615.11695828 509.334708261 620.655312334 c 0
 509.334708261 664.885104111 480.989164061 687 425 687 c 0
 372 687 335 662 326 618 c 0
 324.626995653 611.919552178 323.831075266 606.416188317 323.831075266 601.263525905 c 0
 323.831075266 580.14632474 337.199460862 564.919552178 379 540 c 2
 438 505 l 2
 492 473 528 443 545 416 c 0
 556.705818188 397.408406408 562.721968025 375.97197864 562.721968025 352.343679671 c 0x1280
 562.721968025 341.657326213 561.491379676 330.522631003 559 319 c 0
 545 251 499 203 418 175 c 1
 453.997080289 150.741098066 472.235226792 121.583179916 472.235226792 81.7756929368 c 0
 472.235226792 70.7139320119 470.826912092 58.8298318034 468 46 c 0
 449 -43 365 -95 234 -95 c 0x91
 179 -95 124 -88 60 -73 c 1
 85 44 l 1
 143 44 l 1x49
 142.095931044 37.3324914508 141.638845271 31.0991951362 141.638845271 25.2871220113 c 0
 141.638845271 -20.331157272 169.797594744 -40 231 -40 c 0
 288 -40 324 -15 334 30 c 0
 335.11949892 35.784077754 335.78642529 41.0459564112 335.78642529 45.98050308 c 0
 335.78642529 67.492860004 323.111092872 82.784077754 280 108 c 2
 222 143 l 2
 168 175 131 205 114 232 c 0
 102.261075328 250.644174479 96.720872393 272.149297451 96.720872393 295.856850116 c 0x85
 96.720872393 306.481947721 97.8336748648 317.549424285 100 329 c 1
 115 396 162 444 243 472 c 1
 205.689695452 496.608924276 187.284671467 527.51960874 187.284671467 567.733592862 c 0
 187.284671467 578.177390193 188.526035204 589.248667218 191 601 c 0
 210 689 295 742 423 742 c 0x92
 471 742 526 735 591 720 c 1x22
286 440 m 1
 253 419 232 393 226 364 c 0
 224.655400778 358.024003457 223.958091247 352.248889922 223.958091247 346.624639554 c 0
 223.958091247 314.603283353 246.561594469 287.472203198 301 256 c 2
 374 213 l 1
 408 236 429 262 435 289 c 0
 436.097177306 294.348739369 436.66769297 299.528194638 436.66769297 304.584799476 c 0x0480
 436.66769297 336.398113898 414.085434385 363.348739369 358 397 c 2
 286 440 l 1
EndSplineSet
Validated: 524289
EndChar

StartChar: dieresis
Encoding: 168 168 128
Width: 500
Flags: W
HStem: 645 143<252.875 332.625 470.875 550.892>
VStem: 219.552 145.938<677.623 755.174> 437.552 146.896<678.531 755.174>
LayerCount: 2
Fore
SplineSet
221 717 m 0
 229 756 269 788 308 788 c 0
 342.095145972 788 365.490288194 763.542848571 365.490288194 731.332675281 c 0
 365.490288194 726.69898935 365.006123903 721.904854028 364 717 c 0
 356 678 317 645 278 645 c 0
 243.768275031 645 219.552028646 670.423907175 219.552028646 703.013591497 c 0
 219.552028646 707.553140063 220.021892301 712.231724969 221 717 c 0
439 717 m 0
 447 756 487 788 526 788 c 0
 560.231724969 788 584.447971354 763.346514254 584.447971354 730.945218716 c 0
 584.447971354 726.431911582 583.978107699 721.768275031 583 717 c 0
 575 678 535 645 496 645 c 0
 461.768275031 645 437.552028646 670.423907175 437.552028646 703.013591497 c 0
 437.552028646 707.553140063 438.021892301 712.231724969 439 717 c 0
EndSplineSet
Validated: 524289
EndChar

StartChar: copyright
Encoding: 169 169 129
Width: 1000
Flags: W
HStem: 0 75<389.965 610.223> 147 48<458.073 574.994> 432 109<612.505 666> 530 48<458.489 578.056> 650 75<391.777 611.848>
VStem: 138 75<251.947 468.776> 296 112<258.712 464.403> 613 67<233.639 283> 615 51<432 491.723> 787.027 74.9946<252.393 474.686>
LayerCount: 2
Fore
SplineSet
502 725 m 0xce40
 601 725 687 689 758 618 c 0
 827.986127942 548.013872058 862.021422744 464.42472617 862.021422744 366.274793169 c 0
 862.021422744 364.852918899 862.014279888 363.427988814 862 362 c 0
 862 263 827 178 756 107 c 0
 685 36 599 0 500 0 c 0
 401 0 315 36 244 107 c 0
 173 178 138 263 138 362 c 0
 139 462 175 547 246 618 c 0
 317 689 403 725 502 725 c 0xce40
502 650 m 0
 423 650 354 621 299 565 c 0
 243 509 214 442 213 362 c 0
 213 282 241 215 297 159 c 0
 353 103 421 75 500 75 c 0
 580 75 647 103 703 159 c 0
 759 215 787 282 787 362 c 0
 787.017851452 363.42811618 787.026780023 364.852089592 787.026780023 366.271931617 c 0
 787.026780023 444.388589183 760.000318674 509.999681326 705 565 c 0
 648 622 581 650 502 650 c 0
680 283 m 1xdf40
 662 192 603 147 502 147 c 0
 441 147 390 167 352 206 c 1
 316 245 297 297 296 362 c 1
 297 427 317 480 355 519 c 0
 392 558 443 578 507 578 c 0xdf40
 558 578 611 566 666 541 c 1
 666 432 l 1
 615 432 l 1xeec0
 607 493 571 530 518 530 c 0
 450 530 410 466 408 362 c 1
 409 257 450 195 518 195 c 0
 566 195 598 226 613 283 c 1
 680 283 l 1xdf40
EndSplineSet
Validated: 524289
EndChar

StartChar: ordfeminine
Encoding: 170 170 130
Width: 487
Flags: W
HStem: 246 66<121 497> 360 62<196.943 325.104> 369 46<501 547> 553 46<288.517 401> 638 81<212 252.786> 700 42<272.559 401.933>
VStem: 126.669 132.878<426.847 520.775> 195 47<638 671.353> 416.923 125.94<599.141 685.869>
LayerCount: 2
Fore
SplineSet
121 312 m 1x9080
 511 312 l 1
 497 246 l 1
 107 246 l 1
 121 312 l 1x9080
538 592 m 2
 501 415 l 1
 557 415 l 1
 547 369 l 1
 362 369 l 1xb580
 371 414 l 1
 331 377 286 360 231 360 c 0
 162.885897289 360 126.668570122 388.997068676 126.668570122 443.905097723 c 0
 126.668570122 453.486537802 127.771394258 463.856971291 130 475 c 1
 148 559 218 599 343 599 c 2
 411 599 l 1
 414 613 l 2
 415.950229047 622.588626146 416.923197306 631.358466226 416.923197306 639.322397825 c 0
 416.923197306 680.36152018 391.08633568 700 340 700 c 0xd680
 291 700 258 678 242 638 c 1
 195 638 l 1
 212 719 l 1x9980
 264 734 314 742 369 742 c 0x9580
 487.600799909 742 542.863520666 708.510900678 542.863520666 634.078525053 c 0
 542.863520666 621.276242735 541.228650374 607.262710859 538 592 c 2
387 489 m 2
 401 553 l 1
 352 553 l 2
 305 553 271 528 262 485 c 0
 260.355974948 477.69322199 259.546153097 470.953702157 259.546153097 464.818012527 c 0
 259.546153097 437.364672234 275.758769659 422 306 422 c 0xd080
 347 422 379 448 387 489 c 2
EndSplineSet
Validated: 524289
EndChar

StartChar: guillemotleft
Encoding: 171 171 131
Width: 625
Flags: W
HStem: 502 20G<387.383 411.833 612.383 636.833>
LayerCount: 2
Fore
SplineSet
641 522 m 1
 626 450 l 1
 476 293 l 1
 559 136 l 1
 544 64 l 1
 355 252 l 1
 372 334 l 1
 641 522 l 1
416 522 m 1
 401 450 l 1
 251 293 l 1
 334 136 l 1
 319 64 l 1
 130 252 l 1
 147 334 l 1
 416 522 l 1
EndSplineSet
Validated: 1
EndChar

StartChar: logicalnot
Encoding: 172 172 132
Width: 838
Flags: W
HStem: 330 111<199 690>
LayerCount: 2
Fore
SplineSet
199 441 m 1
 825 441 l 1
 761 140 l 1
 649 140 l 1
 690 330 l 1
 176 330 l 1
 199 441 l 1
EndSplineSet
Validated: 1
EndChar

StartChar: minus
Encoding: 8722 8722 133
Width: 838
Flags: W
HStem: 257 112<184 786>
LayerCount: 2
Fore
SplineSet
184 369 m 1
 810 369 l 1
 786 257 l 1
 160 257 l 1
 184 369 l 1
EndSplineSet
Validated: 1
EndChar

StartChar: registered
Encoding: 174 174 134
Width: 1000
Flags: W
HStem: 0 75<389.965 610.223> 172 40<318 360 456 497 677 705> 350 40<456 519.237> 526 40<319 360 456 547.312> 650 75<391.777 611.848>
VStem: 138 75<251.947 468.776> 360 96<212 350 390 526> 569 97<407.414 507.93> 787.027 74.9946<252.393 474.686>
LayerCount: 2
Fore
SplineSet
570 368 m 1
 595 361 616 344 628 317 c 2
 677 212 l 1
 706 212 l 1
 705 172 l 1
 596 172 l 1
 539 296 l 2
 519 340 505 350 469 350 c 2
 456 350 l 1
 456 212 l 1
 498 212 l 1
 497 172 l 1
 317 172 l 1
 318 212 l 1
 360 212 l 1
 360 526 l 1
 318 526 l 1
 319 566 l 1
 540 566 l 2
 619 566 666 527 666 466 c 1
 665 407 633 375 570 368 c 1
456 390 m 1
 489 390 l 2
 540 390 569 414 569 458 c 0
 569 502 540 526 489 526 c 2
 456 526 l 1
 456 390 l 1
502 725 m 0
 601 725 687 689 758 618 c 0
 827.986127942 548.013872058 862.021422744 464.42472617 862.021422744 366.274793169 c 0
 862.021422744 364.852918899 862.014279888 363.427988814 862 362 c 0
 862 263 827 178 756 107 c 0
 685 36 599 0 500 0 c 0
 401 0 315 36 244 107 c 0
 173 178 138 263 138 362 c 0
 139 462 175 547 246 618 c 0
 317 689 403 725 502 725 c 0
502 650 m 0
 423 650 354 621 299 565 c 0
 243 509 214 442 213 362 c 0
 213 282 241 215 297 159 c 0
 353 103 421 75 500 75 c 0
 580 75 647 103 703 159 c 0
 759 215 787 282 787 362 c 0
 787.017851452 363.42811618 787.026780023 364.852089592 787.026780023 366.271931617 c 0
 787.026780023 444.388589183 760.000318674 509.999681326 705 565 c 0
 648 622 581 650 502 650 c 0
EndSplineSet
Validated: 524289
EndChar

StartChar: macron
Encoding: 175 175 135
Width: 500
Flags: W
HStem: 664 92<256 545>
VStem: 237 327
LayerCount: 2
Fore
SplineSet
256 756 m 1
 564 756 l 1
 545 664 l 1
 237 664 l 1
 256 756 l 1
EndSplineSet
Validated: 1
EndChar

StartChar: degree
Encoding: 176 176 136
Width: 500
Flags: W
HStem: 424 79<303.866 417.067> 670 79<330.743 443.581>
VStem: 206.588 81.395<518.132 627.044> 459.97 79.8051<545.904 653.478>
LayerCount: 2
Fore
SplineSet
409 749 m 0
 452 749 489 732 514 701 c 0
 531.308305694 678.643438479 539.774915933 651.605979365 539.774915933 621.763048732 c 0
 539.774915933 610.225248758 538.509385365 598.268106228 536 586 c 0
 527 542 501 501 466 472 c 0
 428 441 383 424 339 424 c 0
 293 424 257 439 232 470 c 0
 215.058823529 491.882352941 206.588235294 517.750865052 206.588235294 547.253816405 c 0
 206.588235294 559.546712803 208.058823529 572.470588235 211 586 c 0
 221 632 245 671 283 702 c 0
 320 733 363 749 409 749 c 0
392 670 m 0
 345 670 300 633 290 586 c 0
 288.640432038 579.610030581 287.983265593 573.423387916 287.983265593 567.502898493 c 0
 287.983265593 529.876543692 314.525926215 503 356 503 c 0
 403 503 448 539 458 586 c 0
 459.329650485 592.249357282 459.96979251 598.321917522 459.96979251 604.154209588 c 0
 459.96979251 642.18526454 432.750642718 670 392 670 c 0
EndSplineSet
Validated: 524289
EndChar

StartChar: plusminus
Encoding: 177 177 137
Width: 838
Flags: W
HStem: 0 111<129 732> 341 111<202 435 571 804>
LayerCount: 2
Fore
SplineSet
129 111 m 1
 755 111 l 1
 732 0 l 1
 106 0 l 1
 129 111 l 1
608 627 m 1
 571 452 l 1
 828 452 l 1
 804 341 l 1
 547 341 l 1
 510 166 l 1
 398 166 l 1
 435 341 l 1
 178 341 l 1
 202 452 l 1
 459 452 l 1
 496 627 l 1
 608 627 l 1
EndSplineSet
Validated: 1
EndChar

StartChar: twosuperior
Encoding: 178 178 138
Width: 438
Flags: W
HStem: 334 75<217 419> 627 95<199 234.182> 701 41<261.903 366.319>
VStem: 179 46<627 660.25> 378.31 136.239<579.841 689.588>
LayerCount: 2
Fore
SplineSet
225 627 m 1xd8
 179 627 l 1
 199 722 l 1xd8
 249 735 299 742 351 742 c 0
 455.517750535 742 514.548925712 707.685565957 514.548925712 646.898308293 c 0
 514.548925712 639.638663778 513.706974286 632.001441965 512 624 c 0
 506 597 492 573 470 552 c 0
 448 531 408 506 351 477 c 2
 217 409 l 1
 419 409 l 1
 429 456 l 1
 478 456 l 1
 452 334 l 1
 112 334 l 1
 126 399 l 1
 198 440 l 2
 268 480 312 511 333 534 c 0
 355 557 368 583 375 614 c 0
 377.219125124 624.17099015 378.309715259 633.555425611 378.309715259 642.096389102 c 0
 378.309715259 679.740997034 357.123499506 701 318 701 c 0xb8
 277 701 239 672 225 627 c 1xd8
EndSplineSet
Validated: 524289
EndChar

StartChar: threesuperior
Encoding: 179 179 139
Width: 438
Flags: W
HStem: 326 41<196.401 321.003> 347 98<138 182.377> 531 41<272 345.15> 634 89<207 242.333> 701 41<265.403 374.284>
VStem: 138 47<428.082 445> 188 47<634 666.789> 360.407 134.306<405.219 516.181> 384.717 133.421<601.631 692.044>
LayerCount: 2
Fore
SplineSet
207 723 m 1x3680
 267 735 317 742 358 742 c 0
 463.068717421 742 518.137800567 713.774400006 518.137800567 660.944234927 c 0x2e80
 518.137800567 654.94500277 517.427674839 648.628490322 516 642 c 0
 506 595 465 564 396 553 c 1
 460.534444379 543.534948158 494.712893209 515.560142932 494.712893209 469.712659869 c 0
 494.712893209 462.277570148 493.814029641 454.372444497 492 446 c 0
 475 366 400 326 269 326 c 0xaf
 217 326 166 332 117 347 c 1
 138 445 l 1
 185 445 l 1x67
 184.181739165 438.921490938 183.773407387 433.198253727 183.773407387 427.830288365 c 0
 183.773407387 387.276762788 207.078509062 367 253 367 c 0
 310 367 347 396 358 449 c 0
 359.610725625 456.614339317 360.40666937 463.756962808 360.40666937 470.402752962 c 0xa7
 360.40666937 509.142527282 333.360653468 531 283 531 c 2
 263 531 l 1
 272 572 l 1
 287 572 l 2
 340 572 374 595 383 636 c 0
 384.145787565 641.872161271 384.71721238 647.3956023 384.71721238 652.549757535 c 0
 384.71721238 683.382414461 364.268498055 701 324 701 c 0xae80
 281 701 248 677 235 634 c 1
 188 634 l 1
 207 723 l 1x3680
EndSplineSet
Validated: 524289
EndChar

StartChar: acute
Encoding: 180 180 140
Width: 500
Flags: W
HStem: 616 184
VStem: 299 302
LayerCount: 2
Fore
SplineSet
465 800 m 1
 601 800 l 1
 379 616 l 1
 299 616 l 1
 465 800 l 1
EndSplineSet
Validated: 1
EndChar

StartChar: mu
Encoding: 181 181 141
Width: 732
Flags: W
HStem: -208 59<-4 70 243 304> -14 81<312.937 403.709> 0 59<636 698> 460 59<138 199 497 548>
LayerCount: 2
Fore
SplineSet
734 519 m 1xd0
 636 59 l 1
 710 59 l 1
 698 0 l 1
 451 0 l 1xb0
 463 61 l 1
 416 8 380 -14 332 -14 c 0
 312 -14 294 -7 276 6 c 1
 243 -149 l 1
 317 -149 l 1
 304 -208 l 1
 -17 -208 l 1
 -4 -149 l 1
 70 -149 l 1
 199 460 l 1
 125 460 l 1
 138 519 l 1
 385 519 l 1
 323 228 l 2
 312.486843118 178.23772409 306.885973686 141.247395551 306.885973686 117.373305374 c 0
 306.885973686 107.184234822 307.906139878 99.3842117411 310 94 c 0
 318 76 336 67 365 67 c 0
 434 67 475 117 499 228 c 2
 548 460 l 1
 484 460 l 1
 497 519 l 1
 734 519 l 1xd0
EndSplineSet
Validated: 524289
EndChar

StartChar: paragraph
Encoding: 182 182 142
Width: 636
Flags: W
HStem: 668 61<507 587 661 716>
LayerCount: 2
Fore
SplineSet
458 729 m 2
 729 729 l 1
 716 668 l 1
 661 668 l 1
 499 -96 l 1
 425 -96 l 1
 587 668 l 1
 507 668 l 1
 345 -96 l 1
 271 -96 l 1
 359 317 l 1
 241.196058472 326.390169252 177.31749393 382.418502384 177.31749393 473.265589174 c 0
 177.31749393 488.840221509 179.194945505 505.438210024 183 523 c 0
 196 585 227 635 277 672 c 0
 328 710 388 729 458 729 c 2
EndSplineSet
Validated: 524289
EndChar

StartChar: periodcentered
Encoding: 183 183 143
Width: 348
Flags: W
HStem: 255 185<203.412 291.181>
VStem: 151.929 190.187<305.033 388.696>
LayerCount: 2
Fore
SplineSet
154 347 m 0
 165 398 216 440 267 440 c 0
 311.370376661 440 342.116322007 408.209660265 342.116322007 366.360133218 c 0
 342.116322007 360.10716396 341.429918759 353.629623339 340 347 c 0
 329 296 279 255 228 255 c 0
 183.490298778 255 151.929051823 286.228624997 151.929051823 328.078854517 c 0
 151.929051823 334.181355456 152.600131636 340.509701222 154 347 c 0
EndSplineSet
Validated: 524289
EndChar

StartChar: cedilla
Encoding: 184 184 144
Width: 500
Flags: W
HStem: -196 72<102.237 239.738> -20 20G<228 302.384>
VStem: 253.248 74.1599<-110.903 -23.2407>
LayerCount: 2
Fore
SplineSet
290 0 m 1
 314.76868607 -32.7585848022 327.408060607 -61.0484758817 327.408060607 -88.950177274 c 0
 327.408060607 -95.9696961967 326.608081014 -102.964645563 325 -110 c 0
 313 -166 264 -196 185 -196 c 0
 154 -196 122 -191 89 -183 c 1
 105 -107 l 1
 131 -118 158 -124 182 -124 c 0
 221 -124 246 -108 252 -79 c 0
 252.807401701 -75.1648419221 253.248111054 -71.4519146265 253.248111054 -67.6062706476 c 0
 253.248111054 -52.3999657593 246.357440221 -35.1185812932 228 0 c 1
 290 0 l 1
EndSplineSet
Validated: 524289
EndChar

StartChar: onesuperior
Encoding: 185 185 145
Width: 438
Flags: W
HStem: 334 46<159 239 369 439> 722 20G<295.328 446>
VStem: 149 297
LayerCount: 2
Fore
SplineSet
149 334 m 1
 159 380 l 1
 239 380 l 1
 303 679 l 1
 203 630 l 1
 214 681 l 1
 335 742 l 1
 446 742 l 1
 369 380 l 1
 449 380 l 1
 439 334 l 1
 149 334 l 1
EndSplineSet
Validated: 1
EndChar

StartChar: ordmasculine
Encoding: 186 186 146
Width: 500
Flags: W
HStem: 246 66<121 497> 360 42<293.602 383.227> 700 42<349.508 436.448>
VStem: 141.434 143.862<425.738 593.016> 447.577 144.622<506.928 675.001>
LayerCount: 2
Fore
SplineSet
121 312 m 1
 511 312 l 1
 497 246 l 1
 107 246 l 1
 121 312 l 1
335 402 m 0
 384 402 414 444 437 551 c 0
 444.018854963 585.13715823 447.576992881 612.658239757 447.576992881 634.310137939 c 0
 447.576992881 680.524260996 431.367095764 700 398 700 c 0
 347 700 320 659 297 551 c 0
 289.297514044 514.831805077 285.296036721 486.177779197 285.296036721 464.061399114 c 0
 285.296036721 420.137185961 301.07942538 402 335 402 c 0
326 360 m 0
 206.936576258 360 141.434314865 412.093733243 141.434314865 502.454663993 c 0
 141.434314865 517.585151006 143.270856239 533.788567259 147 551 c 0
 172 670 268 742 407 742 c 0
 526.639906801 742 592.198729142 688.659752314 592.198729142 597.920559554 c 0
 592.198729142 583.237171079 590.482031151 567.574468279 587 551 c 0
 561 431 465 360 326 360 c 0
EndSplineSet
Validated: 524289
EndChar

StartChar: guillemotright
Encoding: 187 187 147
Width: 625
Flags: W
HStem: 502 20G<199.833 224.106 424.833 449.106>
LayerCount: 2
Fore
SplineSet
204 522 m 1
 393 334 l 1
 376 252 l 1
 107 64 l 1
 122 136 l 1
 273 293 l 1
 189 450 l 1
 204 522 l 1
429 522 m 1
 618 334 l 1
 601 252 l 1
 332 64 l 1
 347 136 l 1
 498 293 l 1
 414 450 l 1
 429 522 l 1
EndSplineSet
Validated: 1
EndChar

StartChar: onequarter
Encoding: 188 188 148
Width: 1043
Flags: W
HStem: -14 21G<249 348.296> 8 46<756 817 948 999> 113 46<722 830 970 1033> 334 46<159 239 369 439> 722 20G<295.328 446 848.704 948>
LayerCount: 2
Fore
SplineSet
149 334 m 1
 159 380 l 1
 239 380 l 1
 303 679 l 1
 203 630 l 1
 214 681 l 1
 335 742 l 1
 446 742 l 1
 369 380 l 1
 449 380 l 1
 439 334 l 1
 149 334 l 1
865 742 m 1
 948 742 l 1
 332 -14 l 1
 249 -14 l 1
 865 742 l 1
999 8 m 1
 746 8 l 1
 756 54 l 1
 817 54 l 1
 830 113 l 1
 653 113 l 1
 662 156 l 1
 902 416 l 1
 1025 416 l 1
 970 159 l 1
 1042 159 l 1
 1033 113 l 1
 961 113 l 1
 948 54 l 1
 1009 54 l 1
 999 8 l 1
839 159 m 1
 874 322 l 1
 722 159 l 1
 839 159 l 1
EndSplineSet
Validated: 1
Ligature2: "sous-table Remplacement de ligature lookups11" one fraction four
Ligature2: "sous-table Remplacement de ligature lookups11" one slash four
EndChar

StartChar: onehalf
Encoding: 189 189 149
Width: 1043
Flags: W
HStem: -14 21G<249 348.296> 8 75<753 955> 334 46<159 239 369 439> 375 41<797.379 901.653> 722 20G<295.328 446 848.704 948>
VStem: 714 46<301 332.667> 913.862 136.687<253.841 363.588>
LayerCount: 2
Fore
SplineSet
149 334 m 1xee
 159 380 l 1
 239 380 l 1
 303 679 l 1
 203 630 l 1
 214 681 l 1
 335 742 l 1
 446 742 l 1
 369 380 l 1
 449 380 l 1
 439 334 l 1
 149 334 l 1xee
865 742 m 1
 948 742 l 1
 332 -14 l 1
 249 -14 l 1
 865 742 l 1
760 301 m 1
 714 301 l 1
 735 396 l 1
 784 409 835 416 887 416 c 0
 991.517750535 416 1050.54892571 381.685565957 1050.54892571 320.898308293 c 0
 1050.54892571 313.638663778 1049.70697429 306.001441965 1048 298 c 0
 1042 271 1028 247 1006 226 c 0
 984 205 944 180 887 151 c 2
 753 83 l 1
 955 83 l 1
 965 130 l 1
 1014 130 l 1
 988 8 l 1
 648 8 l 1
 662 73 l 1
 734 114 l 2
 803 154 848 185 869 208 c 0
 891 231 904 257 911 288 c 0
 912.916717368 297.583586842 913.861849819 306.468847024 913.861849819 314.608166106 c 0
 913.861849819 353.180225226 892.636142392 375 853 375 c 0xde
 812 375 775 346 760 301 c 1
EndSplineSet
Validated: 524289
Ligature2: "sous-table Remplacement de ligature lookups11" one fraction two
Ligature2: "sous-table Remplacement de ligature lookups11" one slash two
EndChar

StartChar: threequarters
Encoding: 190 190 150
Width: 1043
Flags: W
HStem: -14 21G<249 348.296> 8 46<756 817 948 999> 113 46<722 830 970 1033> 326 41<196.401 321.003> 347 98<138 182.377> 531 41<272 345.15> 634 89<207 242.333> 701 41<265.403 374.284>
VStem: 138 47<428.082 445> 188 47<634 666.789> 360.407 134.306<405.219 516.181> 384.717 133.421<601.631 692.044>
LayerCount: 2
Fore
SplineSet
207 723 m 1xe6d0
 267 735 317 742 358 742 c 0
 463.068717421 742 518.137800567 713.774400006 518.137800567 660.944234927 c 0xe5d0
 518.137800567 654.94500277 517.427674839 648.628490322 516 642 c 0
 506 595 465 564 396 553 c 1
 460.534444379 543.534948158 494.712893209 515.560142932 494.712893209 469.712659869 c 0
 494.712893209 462.277570148 493.814029641 454.372444497 492 446 c 0
 475 366 400 326 269 326 c 0xf5e0
 217 326 166 332 117 347 c 1
 138 445 l 1
 185 445 l 1xece0
 184.181739165 438.921490938 183.773407387 433.198253727 183.773407387 427.830288365 c 0
 183.773407387 387.276762788 207.078509062 367 253 367 c 0
 310 367 347 396 358 449 c 0
 359.610725625 456.614339317 360.40666937 463.756962808 360.40666937 470.402752962 c 0xf4e0
 360.40666937 509.142527282 333.360653468 531 283 531 c 2
 263 531 l 1
 272 572 l 1
 287 572 l 2
 340 572 374 595 383 636 c 0
 384.145787565 641.872161271 384.71721238 647.3956023 384.71721238 652.549757535 c 0
 384.71721238 683.382414461 364.268498055 701 324 701 c 0xf5d0
 281 701 248 677 235 634 c 1
 188 634 l 1
 207 723 l 1xe6d0
865 742 m 1
 948 742 l 1
 332 -14 l 1
 249 -14 l 1
 865 742 l 1
999 8 m 1
 746 8 l 1
 756 54 l 1
 817 54 l 1
 830 113 l 1
 653 113 l 1
 662 156 l 1
 902 416 l 1
 1025 416 l 1
 970 159 l 1
 1042 159 l 1
 1033 113 l 1
 961 113 l 1
 948 54 l 1
 1009 54 l 1
 999 8 l 1
839 159 m 1
 874 322 l 1
 722 159 l 1
 839 159 l 1
EndSplineSet
Validated: 524289
Ligature2: "sous-table Remplacement de ligature lookups11" three fraction four
Ligature2: "sous-table Remplacement de ligature lookups11" three slash four
EndChar

StartChar: questiondown
Encoding: 191 191 151
Width: 586
Flags: W
HStem: -14 55<287.908 429.362> 557 185<420.49 507.504>
VStem: 79.9473 180.132<68.0133 234.899> 497 59<135.129 169>
LayerCount: 2
Fore
SplineSet
556 649 m 0
 546 598 495 557 444 557 c 0
 399.283395008 557 369.173449177 588.519632926 369.173449177 630.663164572 c 0
 369.173449177 636.585001805 369.767961763 642.716604992 371 649 c 1
 383 701 432 742 483 742 c 0
 527.370376661 742 558.116322007 710.209660265 558.116322007 668.360133218 c 0
 558.116322007 662.10716396 557.429918759 655.629623339 556 649 c 0
525 19 m 1
 439 -4 365 -14 297 -14 c 0
 155.90662393 -14 79.9473193882 41.5119927803 79.9473193882 141.710745328 c 0
 79.9473193882 157.978093993 81.9494384515 175.423286691 86 194 c 0
 114 325 217 403 380 415 c 1
 401 515 l 1
 469 515 l 1
 438 369 l 1
 341 341 288 283 266 183 c 0
 262.039996001 164.189981004 260.07940004 147.261757808 260.07940004 132.207567998 c 0
 260.07940004 71.2305729254 292.246015397 41 354 41 c 0
 425 41 474 84 497 169 c 1
 556 169 l 1
 525 19 l 1
EndSplineSet
Validated: 524289
Position2: "sous-table 'cpsp' Chasses pour composition en capitales dans Latin lookup 1" dx=5 dy=0 dh=10 dv=0
EndChar

StartChar: Agrave
Encoding: 192 192 152
Width: 776
Flags: W
HStem: 0 59<4 64 134 209 458 529 730 787> 208 59<263 489> 709 20G<467.582 600.97>
LayerCount: 2
Fore
SplineSet
-8 0 m 1
 4 59 l 1
 64 59 l 1
 480 729 l 1
 597 729 l 1
 730 59 l 1
 799 59 l 1
 787 0 l 1
 446 0 l 1
 458 59 l 1
 529 59 l 1
 501 208 l 1
 227 208 l 1
 134 59 l 1
 221 59 l 1
 209 0 l 1
 -8 0 l 1
263 267 m 1
 489 267 l 1
 437 546 l 1
 263 267 l 1
566 927 m 1
 627 798 l 1
 547 798 l 1
 430 927 l 1
 566 927 l 1
EndSplineSet
Validated: 1
Position2: "sous-table 'cpsp' Chasses pour composition en capitales dans Latin lookup 1" dx=5 dy=0 dh=10 dv=0
EndChar

StartChar: Aacute
Encoding: 193 193 153
Width: 776
Flags: W
HStem: 0 59<4 64 134 209 458 529 730 787> 208 59<263 489> 709 20G<467.582 600.97>
LayerCount: 2
Fore
SplineSet
-8 0 m 1
 4 59 l 1
 64 59 l 1
 480 729 l 1
 597 729 l 1
 730 59 l 1
 799 59 l 1
 787 0 l 1
 446 0 l 1
 458 59 l 1
 529 59 l 1
 501 208 l 1
 227 208 l 1
 134 59 l 1
 221 59 l 1
 209 0 l 1
 -8 0 l 1
263 267 m 1
 489 267 l 1
 437 546 l 1
 263 267 l 1
582 927 m 1
 718 927 l 1
 545 798 l 1
 465 798 l 1
 582 927 l 1
EndSplineSet
Validated: 1
Position2: "sous-table 'cpsp' Chasses pour composition en capitales dans Latin lookup 1" dx=5 dy=0 dh=10 dv=0
EndChar

StartChar: Acircumflex
Encoding: 194 194 154
Width: 776
Flags: W
HStem: 0 59<4 64 134 209 458 529 730 787> 208 59<263 489> 709 20G<467.582 600.97>
LayerCount: 2
Fore
SplineSet
-8 0 m 1
 4 59 l 1
 64 59 l 1
 480 729 l 1
 597 729 l 1
 730 59 l 1
 799 59 l 1
 787 0 l 1
 446 0 l 1
 458 59 l 1
 529 59 l 1
 501 208 l 1
 227 208 l 1
 134 59 l 1
 221 59 l 1
 209 0 l 1
 -8 0 l 1
263 267 m 1
 489 267 l 1
 437 546 l 1
 263 267 l 1
499 927 m 1
 649 927 l 1
 730 798 l 1
 650 798 l 1
 563 877 l 1
 442 798 l 1
 362 798 l 1
 499 927 l 1
EndSplineSet
Validated: 1
Position2: "sous-table 'cpsp' Chasses pour composition en capitales dans Latin lookup 1" dx=5 dy=0 dh=10 dv=0
EndChar

StartChar: Atilde
Encoding: 195 195 155
Width: 776
Flags: W
HStem: 0 59<4 64 134 209 458 529 730 787> 208 59<263 489> 709 20G<467.582 600.97> 797 83<581.459 682.978> 846 83<435.919 539.79>
VStem: 371 55<800 835.646> 694 53<892.703 926>
LayerCount: 2
Fore
SplineSet
-8 0 m 1xe6
 4 59 l 1
 64 59 l 1
 480 729 l 1
 597 729 l 1
 730 59 l 1
 799 59 l 1
 787 0 l 1
 446 0 l 1
 458 59 l 1
 529 59 l 1
 501 208 l 1
 227 208 l 1
 134 59 l 1
 221 59 l 1
 209 0 l 1
 -8 0 l 1xe6
263 267 m 1
 489 267 l 1
 437 546 l 1
 263 267 l 1
371 798 m 1
 372 804 l 1
 389 884 436 929 501 929 c 0xee
 521 929 543 923 566 910 c 0
 569 909 571 908 571 907 c 2
 603 891 l 2
 620 883 629 880 641 880 c 0
 668 880 688 898 694 926 c 1
 695 928 l 1
 749 928 l 1
 747 921 l 1
 730 841 686 797 619 797 c 0xf6
 598 797 580 802 549 819 c 2
 524 833 l 2
 508 841 491 846 479 846 c 0xee
 452 846 431 828 426 800 c 1
 425 798 l 1
 371 798 l 1
EndSplineSet
Validated: 1
Position2: "sous-table 'cpsp' Chasses pour composition en capitales dans Latin lookup 1" dx=5 dy=0 dh=10 dv=0
EndChar

StartChar: Adieresis
Encoding: 196 196 156
Width: 776
Flags: W
HStem: 0 59<4 64 134 209 458 529 730 787> 208 59<263 489> 709 20G<467.582 600.97> 796 143<412.199 491.25 630.199 709.75>
VStem: 378.262 146.228<828.826 905.339> 596.262 147.186<828.826 905.097>
LayerCount: 2
Fore
SplineSet
-8 0 m 1
 4 59 l 1
 64 59 l 1
 480 729 l 1
 597 729 l 1
 730 59 l 1
 799 59 l 1
 787 0 l 1
 446 0 l 1
 458 59 l 1
 529 59 l 1
 501 208 l 1
 227 208 l 1
 134 59 l 1
 221 59 l 1
 209 0 l 1
 -8 0 l 1
263 267 m 1
 489 267 l 1
 437 546 l 1
 263 267 l 1
380 867 m 0
 388 906 428 939 467 939 c 0
 501.095145972 939 524.490288194 913.778562589 524.490288194 881.3761477 c 0
 524.490288194 876.714806308 524.006123903 871.904854028 523 867 c 0
 514 828 476 796 437 796 c 0
 403.097050643 796 378.262424561 820.1821954 378.262424561 852.123354108 c 0
 378.262424561 856.925464444 378.823757544 861.902949357 380 867 c 0
598 867 m 0
 606 906 646 939 685 939 c 0
 719.231724969 939 743.447971354 913.576092825 743.447971354 880.986408503 c 0
 743.447971354 876.446859937 742.978107699 871.768275031 742 867 c 0
 733 828 694 796 655 796 c 0
 621.097050643 796 596.262424561 820.1821954 596.262424561 852.123354108 c 0
 596.262424561 856.925464444 596.823757544 861.902949357 598 867 c 0
EndSplineSet
Validated: 524289
Position2: "sous-table 'cpsp' Chasses pour composition en capitales dans Latin lookup 1" dx=5 dy=0 dh=10 dv=0
EndChar

StartChar: Aring
Encoding: 197 197 157
Width: 776
Flags: W
HStem: 0 59<4 64 134 209 458 529 730 787> 208 59<263 489> 853 75<513.802 609.119>
VStem: 409.697 77.048<734.9 825.898> 617.592 76.6274<751.716 844.37>
LayerCount: 2
Fore
SplineSet
488 789 m 0
 487.152554911 784.762774557 486.744801565 780.613487462 486.744801565 776.592948887 c 0
 486.744801565 747.403347473 508.237225443 725 539 725 c 0
 575 725 609 754 616 789 c 0
 617.076663029 793.710400751 617.59183697 798.312126195 617.59183697 802.749110627 c 0
 617.59183697 831.280542973 596.289599249 853 566 853 c 0
 531 853 496 824 488 789 c 0
-8 0 m 1
 4 59 l 1
 64 59 l 1
 448 676 l 1
 423.0932449 694.680066325 409.696824314 723.658853005 409.696824314 758.221144861 c 0
 409.696824314 768.064209502 410.783360969 778.36013265 413 789 c 0
 421 827 442 860 475 887 c 0
 508 914 544 928 582 928 c 0
 620 928 650 914 671 887 c 0
 686.349317116 867.265163708 694.219220393 844.324864343 694.219220393 818.569591342 c 0
 694.219220393 809.088069837 693.152641099 799.225045219 691 789 c 0
 681 741 653 701 608 676 c 1
 730 59 l 1
 799 59 l 1
 787 0 l 1
 446 0 l 1
 458 59 l 1
 529 59 l 1
 501 208 l 1
 227 208 l 1
 134 59 l 1
 221 59 l 1
 209 0 l 1
 -8 0 l 1
263 267 m 1
 489 267 l 1
 438 546 l 1
 263 267 l 1
EndSplineSet
Validated: 524289
Position2: "sous-table 'cpsp' Chasses pour composition en capitales dans Latin lookup 1" dx=5 dy=0 dh=10 dv=0
EndChar

StartChar: AE
Encoding: 198 198 158
Width: 1034
Flags: W
HStem: 0 67<626 930> 0 59<-19 37 110 178 342 435> 207 59<252 466> 362 66<702 867> 501 20G<896.699 967> 662 67<752 1046> 670 59<370 456 528 565>
LayerCount: 2
Fore
SplineSet
252 266 m 1x3a
 479 266 l 1
 565 670 l 1
 528 670 l 1
 252 266 l 1x3a
330 0 m 1x78
 342 59 l 1
 435 59 l 1
 466 207 l 1
 211 207 l 1
 110 59 l 1
 190 59 l 1
 178 0 l 1
 -31 0 l 1
 -19 59 l 1
 37 59 l 1
 456 670 l 1
 358 670 l 1
 370 729 l 1
 1127 729 l 1x7a
 1091 557 l 1
 1024 557 l 1
 1046 662 l 1
 752 662 l 1
 702 428 l 1
 881 428 l 1
 901 521 l 1
 967 521 l 1
 914 269 l 1
 848 269 l 1
 867 362 l 1
 688 362 l 1
 626 67 l 1
 930 67 l 1xbc
 952 172 l 1
 1018 172 l 1
 982 0 l 1
 330 0 l 1x78
EndSplineSet
Validated: 1
Ligature2: "sous-table 'dpng' Dipthongs (Obsolete) dans Latin lookup 9" A e
Ligature2: "sous-table 'dpng' Dipthongs (Obsolete) dans Latin lookup 9" A E
Position2: "sous-table 'cpsp' Chasses pour composition en capitales dans Latin lookup 1" dx=5 dy=0 dh=10 dv=0
EndChar

StartChar: Ccedilla
Encoding: 199 199 159
Width: 796
Flags: W
HStem: -196 72<281.237 418.738> -13.5517 58.5517<379.229 424.033> 683 59<503.551 697.592>
VStem: 107.567 203.12<149.365 382.104> 432.248 74.1599<-110.903 -22.8858> 769 62<500 532.974>
LayerCount: 2
Fore
SplineSet
413.952010262 -13.551708805 m 1
 303.079934401 -9.34535191171 220.219962565 24.4432018977 167 87 c 0
 127.37804878 134.268292683 107.567073171 193.133254015 107.567073171 263.93076312 c 0
 107.567073171 294.982302201 111.37804878 328.329268293 119 364 c 0
 144 481 199 573 285 640 c 1
 370 708 475 742 598 742 c 0
 685 742 773 722 869 679 c 1
 831 500 l 1
 769 500 l 1
 769 501.09838944 769 502.191754955 769 503.280098684 c 0
 769 624.066814764 714.026630497 683 606 683 c 0
 463 683 374 580 328 364 c 0
 316.5 309.75 310.6875 262.6875 310.6875 222.609375 c 0
 310.6875 102.375 363 45 471 45 c 0
 568 45 641 99 692 208 c 1
 789 208 l 1
 723.799339845 69.3338072755 624.022966642 -1.86757950294 478.054463419 -12.5740101881 c 1
 496.844966257 -40.1167662348 506.40806063 -64.6803262767 506.408060607 -88.950177274 c 0
 506.408060607 -95.9696961967 505.608081014 -102.964645563 504 -110 c 0
 492 -166 443 -196 364 -196 c 0
 333 -196 301 -191 268 -183 c 1
 284 -107 l 1
 310 -118 337 -124 361 -124 c 0
 400 -124 425 -108 431 -79 c 0
 431.807401701 -75.1648419221 432.248111054 -71.4519146265 432.248111054 -67.6062706476 c 0
 432.248111054 -54.4968181582 427.126775592 -39.8451096409 413.952010262 -13.551708805 c 1
EndSplineSet
Validated: 524289
Position2: "sous-table 'cpsp' Chasses pour composition en capitales dans Latin lookup 1" dx=5 dy=0 dh=10 dv=0
EndChar

StartChar: Egrave
Encoding: 200 200 160
Width: 762
Flags: W
HStem: 0 67<342 658> 0 59<59 152> 362 66<418 595> 501 20G<624.699 696> 662 67<468 775> 670 59<201 282>
LayerCount: 2
Fore
SplineSet
47 0 m 1x70
 59 59 l 1
 152 59 l 1
 282 670 l 1
 189 670 l 1
 201 729 l 1
 856 729 l 1x74
 820 557 l 1
 753 557 l 1
 775 662 l 1
 468 662 l 1
 418 428 l 1
 609 428 l 1
 629 521 l 1
 696 521 l 1
 643 269 l 1
 576 269 l 1
 595 362 l 1
 404 362 l 1
 342 67 l 1
 658 67 l 1xb8
 680 172 l 1
 747 172 l 1
 711 0 l 1
 47 0 l 1x70
587 927 m 1
 648 798 l 1
 568 798 l 1
 451 927 l 1
 587 927 l 1
EndSplineSet
Validated: 1
Position2: "sous-table 'cpsp' Chasses pour composition en capitales dans Latin lookup 1" dx=5 dy=0 dh=10 dv=0
EndChar

StartChar: Eacute
Encoding: 201 201 161
Width: 762
Flags: W
HStem: 0 67<342 658> 0 59<59 152> 362 66<418 595> 501 20G<624.699 696> 662 67<468 775> 670 59<201 282>
LayerCount: 2
Fore
SplineSet
47 0 m 1x70
 59 59 l 1
 152 59 l 1
 282 670 l 1
 189 670 l 1
 201 729 l 1
 856 729 l 1x74
 820 557 l 1
 753 557 l 1
 775 662 l 1
 468 662 l 1
 418 428 l 1
 609 428 l 1
 629 521 l 1
 696 521 l 1
 643 269 l 1
 576 269 l 1
 595 362 l 1
 404 362 l 1
 342 67 l 1
 658 67 l 1xb8
 680 172 l 1
 747 172 l 1
 711 0 l 1
 47 0 l 1x70
603 927 m 1
 739 927 l 1
 566 798 l 1
 486 798 l 1
 603 927 l 1
EndSplineSet
Validated: 1
Position2: "sous-table 'cpsp' Chasses pour composition en capitales dans Latin lookup 1" dx=5 dy=0 dh=10 dv=0
EndChar

StartChar: Ecircumflex
Encoding: 202 202 162
Width: 762
Flags: W
HStem: 0 67<342 658> 0 59<59 152> 362 66<418 595> 501 20G<624.699 696> 662 67<468 775> 670 59<201 282>
LayerCount: 2
Fore
SplineSet
47 0 m 1x70
 59 59 l 1
 152 59 l 1
 282 670 l 1
 189 670 l 1
 201 729 l 1
 856 729 l 1x74
 820 557 l 1
 753 557 l 1
 775 662 l 1
 468 662 l 1
 418 428 l 1
 609 428 l 1
 629 521 l 1
 696 521 l 1
 643 269 l 1
 576 269 l 1
 595 362 l 1
 404 362 l 1
 342 67 l 1
 658 67 l 1xb8
 680 172 l 1
 747 172 l 1
 711 0 l 1
 47 0 l 1x70
520 927 m 1
 670 927 l 1
 751 798 l 1
 671 798 l 1
 584 877 l 1
 463 798 l 1
 383 798 l 1
 520 927 l 1
EndSplineSet
Validated: 1
Position2: "sous-table 'cpsp' Chasses pour composition en capitales dans Latin lookup 1" dx=5 dy=0 dh=10 dv=0
EndChar

StartChar: Edieresis
Encoding: 203 203 163
Width: 762
Flags: W
HStem: 0 67<342 658> 0 59<59 152> 362 66<418 595> 501 20G<624.699 696> 662 67<468 775> 670 59<201 282> 796 143<433.199 512.25 651.199 730.75>
VStem: 399.262 146.228<828.826 905.339> 617.262 147.186<828.826 905.097>
LayerCount: 2
Fore
SplineSet
47 0 m 1x7380
 59 59 l 1
 152 59 l 1
 282 670 l 1
 189 670 l 1
 201 729 l 1
 856 729 l 1x7780
 820 557 l 1
 753 557 l 1
 775 662 l 1
 468 662 l 1
 418 428 l 1
 609 428 l 1
 629 521 l 1
 696 521 l 1
 643 269 l 1
 576 269 l 1
 595 362 l 1
 404 362 l 1
 342 67 l 1
 658 67 l 1xbb80
 680 172 l 1
 747 172 l 1
 711 0 l 1
 47 0 l 1x7380
401 867 m 0
 409 906 449 939 488 939 c 0
 522.095145972 939 545.490288194 913.778562589 545.490288194 881.3761477 c 0
 545.490288194 876.714806308 545.006123903 871.904854028 544 867 c 0
 535 828 497 796 458 796 c 0
 424.097050643 796 399.262424561 820.1821954 399.262424561 852.123354108 c 0
 399.262424561 856.925464444 399.823757544 861.902949357 401 867 c 0
619 867 m 0
 627 906 667 939 706 939 c 0
 740.231724969 939 764.447971354 913.576092825 764.447971354 880.986408503 c 0
 764.447971354 876.446859937 763.978107699 871.768275031 763 867 c 0
 754 828 715 796 676 796 c 0
 642.097050643 796 617.262424561 820.1821954 617.262424561 852.123354108 c 0
 617.262424561 856.925464444 617.823757544 861.902949357 619 867 c 0
EndSplineSet
Validated: 524289
Position2: "sous-table 'cpsp' Chasses pour composition en capitales dans Latin lookup 1" dx=5 dy=0 dh=10 dv=0
EndChar

StartChar: Igrave
Encoding: 204 204 164
Width: 468
Flags: W
HStem: 0 59<59 152 340 422> 670 59<201 282 470 564>
LayerCount: 2
Fore
SplineSet
47 0 m 1
 59 59 l 1
 152 59 l 1
 282 670 l 1
 189 670 l 1
 201 729 l 1
 576 729 l 1
 564 670 l 1
 470 670 l 1
 340 59 l 1
 434 59 l 1
 422 0 l 1
 47 0 l 1
423 927 m 1
 484 798 l 1
 404 798 l 1
 287 927 l 1
 423 927 l 1
EndSplineSet
Validated: 1
Position2: "sous-table 'cpsp' Chasses pour composition en capitales dans Latin lookup 1" dx=5 dy=0 dh=10 dv=0
EndChar

StartChar: Iacute
Encoding: 205 205 165
Width: 468
Flags: W
HStem: 0 59<59 152 340 422> 670 59<201 282 470 564>
LayerCount: 2
Fore
SplineSet
47 0 m 1
 59 59 l 1
 152 59 l 1
 282 670 l 1
 189 670 l 1
 201 729 l 1
 576 729 l 1
 564 670 l 1
 470 670 l 1
 340 59 l 1
 434 59 l 1
 422 0 l 1
 47 0 l 1
439 927 m 1
 575 927 l 1
 402 798 l 1
 322 798 l 1
 439 927 l 1
EndSplineSet
Validated: 1
Position2: "sous-table 'cpsp' Chasses pour composition en capitales dans Latin lookup 1" dx=5 dy=0 dh=10 dv=0
EndChar

StartChar: Icircumflex
Encoding: 206 206 166
Width: 468
Flags: W
HStem: 0 59<59 152 340 422> 670 59<201 282 470 564>
LayerCount: 2
Fore
SplineSet
47 0 m 1
 59 59 l 1
 152 59 l 1
 282 670 l 1
 189 670 l 1
 201 729 l 1
 576 729 l 1
 564 670 l 1
 470 670 l 1
 340 59 l 1
 434 59 l 1
 422 0 l 1
 47 0 l 1
356 927 m 1
 506 927 l 1
 587 798 l 1
 507 798 l 1
 420 877 l 1
 299 798 l 1
 219 798 l 1
 356 927 l 1
EndSplineSet
Validated: 1
Position2: "sous-table 'cpsp' Chasses pour composition en capitales dans Latin lookup 1" dx=5 dy=0 dh=10 dv=0
EndChar

StartChar: Idieresis
Encoding: 207 207 167
Width: 468
Flags: W
HStem: 0 59<59 152 340 422> 670 59<201 282 470 564> 796 143<269.199 348.25 487.199 566.75>
VStem: 235.262 146.228<828.826 905.339> 453.262 147.186<828.826 905.097>
LayerCount: 2
Fore
SplineSet
47 0 m 1
 59 59 l 1
 152 59 l 1
 282 670 l 1
 189 670 l 1
 201 729 l 1
 576 729 l 1
 564 670 l 1
 470 670 l 1
 340 59 l 1
 434 59 l 1
 422 0 l 1
 47 0 l 1
237 867 m 0
 245 906 285 939 324 939 c 0
 358.095145972 939 381.490288194 913.778562589 381.490288194 881.3761477 c 0
 381.490288194 876.714806308 381.006123903 871.904854028 380 867 c 0
 371 828 333 796 294 796 c 0
 260.097050643 796 235.262424561 820.1821954 235.262424561 852.123354108 c 0
 235.262424561 856.925464444 235.823757544 861.902949357 237 867 c 0
455 867 m 0
 463 906 503 939 542 939 c 0
 576.231724969 939 600.447971354 913.576092825 600.447971354 880.986408503 c 0
 600.447971354 876.446859937 599.978107699 871.768275031 599 867 c 0
 590 828 551 796 512 796 c 0
 478.097050643 796 453.262424561 820.1821954 453.262424561 852.123354108 c 0
 453.262424561 856.925464444 453.823757544 861.902949357 455 867 c 0
EndSplineSet
Validated: 524289
Position2: "sous-table 'cpsp' Chasses pour composition en capitales dans Latin lookup 1" dx=5 dy=0 dh=10 dv=0
EndChar

StartChar: Eth
Encoding: 208 208 168
Width: 874
Flags: W
HStem: 0 59<65 159 347 521.51> 348 67<131 220 423 570> 670 59<207 289 477 641.413>
VStem: 715.323 204.108<344.286 578.903>
LayerCount: 2
Fore
SplineSet
347 59 m 1
 415 59 l 2
 567 59 654 152 699 365 c 0
 709.821572044 415.981628294 715.32275358 460.081447127 715.32275358 497.661038558 c 0
 715.32275358 616.350943608 660.447134431 670 545 670 c 2
 477 670 l 1
 423 415 l 1
 585 415 l 1
 570 348 l 1
 408 348 l 1
 347 59 l 1
53 0 m 1
 65 59 l 1
 159 59 l 1
 220 348 l 1
 116 348 l 1
 131 415 l 1
 235 415 l 1
 289 670 l 1
 195 670 l 1
 207 729 l 1
 582 729 l 2
 803.10341327 729 919.430604428 637.141394312 919.430604428 465.583097721 c 0
 919.430604428 434.626585753 915.643024278 401.075074591 908 365 c 0
 858 129 689 0 428 0 c 2
 53 0 l 1
EndSplineSet
Validated: 524289
Position2: "sous-table 'cpsp' Chasses pour composition en capitales dans Latin lookup 1" dx=5 dy=0 dh=10 dv=0
EndChar

StartChar: Ntilde
Encoding: 209 209 169
Width: 914
Flags: W
HStem: 0 59<56 149 218 299> 670 59<198 279 773 854 923 1016> 797 83<661.459 762.978> 846 83<515.919 619.79>
VStem: 451 55<800 835.646> 774 53<892.703 926>
LayerCount: 2
Fore
SplineSet
44 0 m 1xcc
 56 59 l 1
 149 59 l 1
 279 670 l 1
 186 670 l 1
 198 729 l 1
 426 729 l 1
 757 213 l 1
 854 670 l 1
 761 670 l 1
 773 729 l 1
 1028 729 l 1
 1016 670 l 1
 923 670 l 1
 781 0 l 1
 653 0 l 1
 318 527 l 1
 218 59 l 1
 311 59 l 1
 299 0 l 1
 44 0 l 1xcc
451 798 m 1
 452 804 l 1
 469 884 516 929 581 929 c 0xdc
 601 929 623 923 646 910 c 0
 649 909 651 908 651 907 c 2
 683 891 l 2
 700 883 709 880 721 880 c 0
 748 880 768 898 774 926 c 1
 775 928 l 1
 829 928 l 1
 827 921 l 1
 810 841 766 797 699 797 c 0xec
 678 797 660 802 629 819 c 2
 604 833 l 2
 588 841 571 846 559 846 c 0xdc
 532 846 511 828 506 800 c 1
 505 798 l 1
 451 798 l 1
EndSplineSet
Validated: 1
Position2: "sous-table 'cpsp' Chasses pour composition en capitales dans Latin lookup 1" dx=5 dy=0 dh=10 dv=0
EndChar

StartChar: Ograve
Encoding: 210 210 170
Width: 871
Flags: W
HStem: -14 59<366.392 531.035> 683 59<493.792 658.612>
VStem: 107.281 202.299<144.757 374.446> 714.852 201.836<353.484 581.472>
LayerCount: 2
Fore
SplineSet
444 45 m 0
 568 45 650 148 696 364 c 0
 708.554447682 422.95131955 714.852000679 473.485626012 714.852000679 515.80621094 c 0
 714.852000679 628.54994712 670.157575814 683 580 683 c 0
 456 683 373 577 328 364 c 0
 315.754040331 306.035790899 309.580677854 255.995580573 309.580677854 213.859215965 c 0
 309.580677854 101.157866048 353.7444222 45 444 45 c 0
432 -14 m 0
 309 -14 220 19 164 86 c 0
 126.1875 132.0625 107.28125 190.4140625 107.28125 260.729736328 c 0
 107.28125 292.69140625 111.1875 327.125 119 364 c 0
 144 482 199 574 282 641 c 0
 366 708 469 742 592 742 c 0
 715 742 804 708 859 641 c 0
 897.567830476 594.85634568 916.688409851 536.85461142 916.688409851 466.668125494 c 0
 916.688409851 434.944725297 912.782218537 400.732071496 905 364 c 0
 880 246 825 153 741 86 c 0
 658 19 555 -14 432 -14 c 0
625 927 m 1
 686 798 l 1
 606 798 l 1
 489 927 l 1
 625 927 l 1
EndSplineSet
Validated: 524289
Position2: "sous-table 'cpsp' Chasses pour composition en capitales dans Latin lookup 1" dx=5 dy=0 dh=10 dv=0
EndChar

StartChar: Oacute
Encoding: 211 211 171
Width: 871
Flags: W
HStem: -14 59<366.392 531.035> 683 59<493.792 658.612>
VStem: 107.281 202.299<144.757 374.446> 714.852 201.836<353.484 581.472>
LayerCount: 2
Fore
SplineSet
444 45 m 0
 568 45 650 148 696 364 c 0
 708.554447682 422.95131955 714.852000679 473.485626012 714.852000679 515.80621094 c 0
 714.852000679 628.54994712 670.157575814 683 580 683 c 0
 456 683 373 577 328 364 c 0
 315.754040331 306.035790899 309.580677854 255.995580573 309.580677854 213.859215965 c 0
 309.580677854 101.157866048 353.7444222 45 444 45 c 0
432 -14 m 0
 309 -14 220 19 164 86 c 0
 126.1875 132.0625 107.28125 190.4140625 107.28125 260.729736328 c 0
 107.28125 292.69140625 111.1875 327.125 119 364 c 0
 144 482 199 574 282 641 c 0
 366 708 469 742 592 742 c 0
 715 742 804 708 859 641 c 0
 897.567830476 594.85634568 916.688409851 536.85461142 916.688409851 466.668125494 c 0
 916.688409851 434.944725297 912.782218537 400.732071496 905 364 c 0
 880 246 825 153 741 86 c 0
 658 19 555 -14 432 -14 c 0
641 927 m 1
 777 927 l 1
 604 798 l 1
 524 798 l 1
 641 927 l 1
EndSplineSet
Validated: 524289
Position2: "sous-table 'cpsp' Chasses pour composition en capitales dans Latin lookup 1" dx=5 dy=0 dh=10 dv=0
EndChar

StartChar: Ocircumflex
Encoding: 212 212 172
Width: 871
Flags: W
HStem: -14 59<366.392 531.035> 683 59<493.792 658.612>
VStem: 107.281 202.299<144.757 374.446> 714.852 201.836<353.484 581.472>
LayerCount: 2
Fore
SplineSet
444 45 m 0
 568 45 650 148 696 364 c 0
 708.554447682 422.95131955 714.852000679 473.485626012 714.852000679 515.80621094 c 0
 714.852000679 628.54994712 670.157575814 683 580 683 c 0
 456 683 373 577 328 364 c 0
 315.754040331 306.035790899 309.580677854 255.995580573 309.580677854 213.859215965 c 0
 309.580677854 101.157866048 353.7444222 45 444 45 c 0
432 -14 m 0
 309 -14 220 19 164 86 c 0
 126.1875 132.0625 107.28125 190.4140625 107.28125 260.729736328 c 0
 107.28125 292.69140625 111.1875 327.125 119 364 c 0
 144 482 199 574 282 641 c 0
 366 708 469 742 592 742 c 0
 715 742 804 708 859 641 c 0
 897.567830476 594.85634568 916.688409851 536.85461142 916.688409851 466.668125494 c 0
 916.688409851 434.944725297 912.782218537 400.732071496 905 364 c 0
 880 246 825 153 741 86 c 0
 658 19 555 -14 432 -14 c 0
558 927 m 1
 708 927 l 1
 789 798 l 1
 709 798 l 1
 622 877 l 1
 501 798 l 1
 421 798 l 1
 558 927 l 1
EndSplineSet
Validated: 524289
Position2: "sous-table 'cpsp' Chasses pour composition en capitales dans Latin lookup 1" dx=5 dy=0 dh=10 dv=0
EndChar

StartChar: Otilde
Encoding: 213 213 173
Width: 871
Flags: W
HStem: -14 59<366.392 531.035> 683 59<493.792 658.612> 797 83<640.459 741.978> 846 83<494.919 598.79>
VStem: 107.281 202.299<144.757 374.446> 430 55<800 835.646> 714.852 201.836<353.484 581.472> 753 53<892.703 926>
LayerCount: 2
Fore
SplineSet
444 45 m 0xce
 568 45 650 148 696 364 c 0
 708.554447682 422.95131955 714.852000679 473.485626012 714.852000679 515.80621094 c 0
 714.852000679 628.54994712 670.157575814 683 580 683 c 0
 456 683 373 577 328 364 c 0
 315.754040331 306.035790899 309.580677854 255.995580573 309.580677854 213.859215965 c 0
 309.580677854 101.157866048 353.7444222 45 444 45 c 0xce
432 -14 m 0
 309 -14 220 19 164 86 c 0
 126.1875 132.0625 107.28125 190.4140625 107.28125 260.729736328 c 0
 107.28125 292.69140625 111.1875 327.125 119 364 c 0
 144 482 199 574 282 641 c 0
 366 708 469 742 592 742 c 0
 715 742 804 708 859 641 c 0
 897.567830476 594.85634568 916.688409851 536.85461142 916.688409851 466.668125494 c 0
 916.688409851 434.944725297 912.782218537 400.732071496 905 364 c 0
 880 246 825 153 741 86 c 0
 658 19 555 -14 432 -14 c 0
430 798 m 1
 431 804 l 1
 448 884 495 929 560 929 c 0xdd
 580 929 602 923 625 910 c 0
 628 909 630 908 630 907 c 2
 662 891 l 2
 679 883 688 880 700 880 c 0
 727 880 747 898 753 926 c 1
 754 928 l 1
 808 928 l 1
 806 921 l 1
 789 841 745 797 678 797 c 0xed
 657 797 639 802 608 819 c 2
 583 833 l 2
 567 841 550 846 538 846 c 0xdd
 511 846 490 828 485 800 c 1
 484 798 l 1
 430 798 l 1
EndSplineSet
Validated: 524289
Position2: "sous-table 'cpsp' Chasses pour composition en capitales dans Latin lookup 1" dx=5 dy=0 dh=10 dv=0
EndChar

StartChar: Odieresis
Encoding: 214 214 174
Width: 871
Flags: W
HStem: -14 59<366.392 531.035> 683 59<493.792 658.612> 796 143<471.199 550.25 689.199 768.75>
VStem: 107.281 202.299<144.757 374.446> 437.262 146.228<828.826 905.339> 655.262 147.186<828.826 905.097> 714.852 201.836<353.484 581.472>
LayerCount: 2
Fore
SplineSet
444 45 m 0xfa
 568 45 650 148 696 364 c 0
 708.554447682 422.95131955 714.852000679 473.485626012 714.852000679 515.80621094 c 0
 714.852000679 628.54994712 670.157575814 683 580 683 c 0
 456 683 373 577 328 364 c 0
 315.754040331 306.035790899 309.580677854 255.995580573 309.580677854 213.859215965 c 0
 309.580677854 101.157866048 353.7444222 45 444 45 c 0xfa
432 -14 m 0
 309 -14 220 19 164 86 c 0
 126.1875 132.0625 107.28125 190.4140625 107.28125 260.729736328 c 0
 107.28125 292.69140625 111.1875 327.125 119 364 c 0
 144 482 199 574 282 641 c 0
 366 708 469 742 592 742 c 0
 715 742 804 708 859 641 c 0
 897.567830476 594.85634568 916.688409851 536.85461142 916.688409851 466.668125494 c 0
 916.688409851 434.944725297 912.782218537 400.732071496 905 364 c 0
 880 246 825 153 741 86 c 0
 658 19 555 -14 432 -14 c 0
439 867 m 0
 447 906 487 939 526 939 c 0
 560.095145972 939 583.490288194 913.778562589 583.490288194 881.3761477 c 0
 583.490288194 876.714806308 583.006123903 871.904854028 582 867 c 0
 573 828 535 796 496 796 c 0
 462.097050643 796 437.262424561 820.1821954 437.262424561 852.123354108 c 0
 437.262424561 856.925464444 437.823757544 861.902949357 439 867 c 0
657 867 m 0
 665 906 705 939 744 939 c 0
 778.231724969 939 802.447971354 913.576092825 802.447971354 880.986408503 c 0
 802.447971354 876.446859937 801.978107699 871.768275031 801 867 c 0
 792 828 753 796 714 796 c 0
 680.097050643 796 655.262424561 820.1821954 655.262424561 852.123354108 c 0xfc
 655.262424561 856.925464444 655.823757544 861.902949357 657 867 c 0
EndSplineSet
Validated: 524289
Position2: "sous-table 'cpsp' Chasses pour composition en capitales dans Latin lookup 1" dx=5 dy=0 dh=10 dv=0
EndChar

StartChar: multiply
Encoding: 215 215 175
Width: 838
Flags: W
LayerCount: 2
Fore
SplineSet
821 528 m 1
 560 313 l 1
 729 98 l 1
 638 23 l 1
 469 238 l 1
 208 23 l 1
 149 98 l 1
 410 313 l 1
 241 528 l 1
 332 604 l 1
 501 389 l 1
 762 604 l 1
 821 528 l 1
EndSplineSet
Validated: 1
EndChar

StartChar: Oslash
Encoding: 216 216 176
Width: 871
Flags: W
HStem: -14 59<366.429 530.869> 683 59<493.792 658.081> 746 20G<930.758 970.909>
VStem: 107.369 202.631<234 373.906> 711.592 205.077<338.804 532.61>
LayerCount: 2
Fore
SplineSet
310 234 m 1
 712 565 l 1
 700 642 656 683 580 683 c 0
 456 683 373 577 328 364 c 0
 317 315 311 271 310 234 c 1
313 163 m 1
 325 84 368 45 444 45 c 0
 571 45 651 150 701 383 c 0
 708.234628196 417.565445824 711.592230826 444.376840517 711.592230826 468.108990492 c 0
 711.592230826 473.90003701 711.392304845 479.507732164 711 485 c 1
 313 163 l 1
872 625 m 1
 901.779411765 580 916.669117647 527.117214533 916.669117647 465.482218731 c 0
 916.669117647 433.979887543 912.779411765 400.191176471 905 364 c 0
 880 246 825 153 741 86 c 0
 658 19 555 -14 432 -14 c 0
 329 -14 248 11 190 62 c 1
 68 -38 l 1
 34 6 l 1
 153 104 l 1
 122.482193632 148.449848406 107.369291656 201.262359196 107.369291656 263.021537202 c 0
 107.369291656 294.353001229 111.258903184 327.987071335 119 364 c 0
 144 482 199 574 282 641 c 0
 366 708 469 742 592 742 c 0
 696 742 778 718 835 667 c 1
 955 766 l 1
 990 722 l 1
 872 625 l 1
EndSplineSet
Validated: 524289
Position2: "sous-table 'cpsp' Chasses pour composition en capitales dans Latin lookup 1" dx=5 dy=0 dh=10 dv=0
EndChar

StartChar: Ugrave
Encoding: 217 217 177
Width: 872
Flags: W
HStem: -14 74<416.84 599.889> 670 59<188 269 458 551 750 831 899 992>
VStem: 175.831 190.523<105.41 335.211>
LayerCount: 2
Fore
SplineSet
269 670 m 1
 176 670 l 1
 188 729 l 1
 563 729 l 1
 551 670 l 1
 458 670 l 1
 380 305 l 2
 370.865204623 261.249137931 366.353372491 223.970424405 366.353372491 192.941597196 c 0
 366.353372491 159.431735508 371.615574081 133.21118795 382 114 c 1
 403 78 447 60 516 60 c 0
 583 60 634 78 670 115 c 0
 707 152 734 215 753 305 c 2
 831 670 l 1
 738 670 l 1
 750 729 l 1
 1004 729 l 1
 992 670 l 1
 899 670 l 1
 819 295 l 2
 796 184 755 104 696 57 c 0
 638 10 552 -14 439 -14 c 0
 326 -14 250 10 211 57 c 1
 187.474772353 86.7160770275 175.830795683 128.696671193 175.830795683 182.704508188 c 0
 175.830795683 215.934841069 180.238953576 253.718428126 189 296 c 2
 269 670 l 1
650 927 m 1
 711 798 l 1
 631 798 l 1
 514 927 l 1
 650 927 l 1
EndSplineSet
Validated: 524289
Position2: "sous-table 'cpsp' Chasses pour composition en capitales dans Latin lookup 1" dx=5 dy=0 dh=10 dv=0
EndChar

StartChar: Uacute
Encoding: 218 218 178
Width: 872
Flags: W
HStem: -14 74<416.84 599.889> 670 59<188 269 458 551 750 831 899 992>
VStem: 175.831 190.523<105.41 335.211>
LayerCount: 2
Fore
SplineSet
269 670 m 1
 176 670 l 1
 188 729 l 1
 563 729 l 1
 551 670 l 1
 458 670 l 1
 380 305 l 2
 370.865204623 261.249137931 366.353372491 223.970424405 366.353372491 192.941597196 c 0
 366.353372491 159.431735508 371.615574081 133.21118795 382 114 c 1
 403 78 447 60 516 60 c 0
 583 60 634 78 670 115 c 0
 707 152 734 215 753 305 c 2
 831 670 l 1
 738 670 l 1
 750 729 l 1
 1004 729 l 1
 992 670 l 1
 899 670 l 1
 819 295 l 2
 796 184 755 104 696 57 c 0
 638 10 552 -14 439 -14 c 0
 326 -14 250 10 211 57 c 1
 187.474772353 86.7160770275 175.830795683 128.696671193 175.830795683 182.704508188 c 0
 175.830795683 215.934841069 180.238953576 253.718428126 189 296 c 2
 269 670 l 1
666 927 m 1
 802 927 l 1
 629 798 l 1
 549 798 l 1
 666 927 l 1
EndSplineSet
Validated: 524289
Position2: "sous-table 'cpsp' Chasses pour composition en capitales dans Latin lookup 1" dx=5 dy=0 dh=10 dv=0
EndChar

StartChar: Ucircumflex
Encoding: 219 219 179
Width: 872
Flags: W
HStem: -14 74<416.84 599.889> 670 59<188 269 458 551 750 831 899 992>
VStem: 175.831 190.523<105.41 335.211>
LayerCount: 2
Fore
SplineSet
269 670 m 1
 176 670 l 1
 188 729 l 1
 563 729 l 1
 551 670 l 1
 458 670 l 1
 380 305 l 2
 370.865204623 261.249137931 366.353372491 223.970424405 366.353372491 192.941597196 c 0
 366.353372491 159.431735508 371.615574081 133.21118795 382 114 c 1
 403 78 447 60 516 60 c 0
 583 60 634 78 670 115 c 0
 707 152 734 215 753 305 c 2
 831 670 l 1
 738 670 l 1
 750 729 l 1
 1004 729 l 1
 992 670 l 1
 899 670 l 1
 819 295 l 2
 796 184 755 104 696 57 c 0
 638 10 552 -14 439 -14 c 0
 326 -14 250 10 211 57 c 1
 187.474772353 86.7160770275 175.830795683 128.696671193 175.830795683 182.704508188 c 0
 175.830795683 215.934841069 180.238953576 253.718428126 189 296 c 2
 269 670 l 1
583 927 m 1
 733 927 l 1
 814 798 l 1
 734 798 l 1
 647 877 l 1
 526 798 l 1
 446 798 l 1
 583 927 l 1
EndSplineSet
Validated: 524289
Position2: "sous-table 'cpsp' Chasses pour composition en capitales dans Latin lookup 1" dx=5 dy=0 dh=10 dv=0
EndChar

StartChar: Udieresis
Encoding: 220 220 180
Width: 872
Flags: W
HStem: -14 74<416.84 599.889> 670 59<188 269 458 551 750 831 899 992> 796 143<496.199 575.25 714.199 793.75>
VStem: 175.831 190.523<105.41 335.211> 462.262 146.228<828.826 905.339> 680.262 147.186<828.826 905.097>
LayerCount: 2
Fore
SplineSet
269 670 m 1
 176 670 l 1
 188 729 l 1
 563 729 l 1
 551 670 l 1
 458 670 l 1
 380 305 l 2
 370.865204623 261.249137931 366.353372491 223.970424405 366.353372491 192.941597196 c 0
 366.353372491 159.431735508 371.615574081 133.21118795 382 114 c 1
 403 78 447 60 516 60 c 0
 583 60 634 78 670 115 c 0
 707 152 734 215 753 305 c 2
 831 670 l 1
 738 670 l 1
 750 729 l 1
 1004 729 l 1
 992 670 l 1
 899 670 l 1
 819 295 l 2
 796 184 755 104 696 57 c 0
 638 10 552 -14 439 -14 c 0
 326 -14 250 10 211 57 c 1
 187.474772353 86.7160770275 175.830795683 128.696671193 175.830795683 182.704508188 c 0
 175.830795683 215.934841069 180.238953576 253.718428126 189 296 c 2
 269 670 l 1
464 867 m 0
 472 906 512 939 551 939 c 0
 585.095145972 939 608.490288194 913.778562589 608.490288194 881.3761477 c 0
 608.490288194 876.714806308 608.006123903 871.904854028 607 867 c 0
 598 828 560 796 521 796 c 0
 487.097050643 796 462.262424561 820.1821954 462.262424561 852.123354108 c 0
 462.262424561 856.925464444 462.823757544 861.902949357 464 867 c 0
682 867 m 0
 690 906 730 939 769 939 c 0
 803.231724969 939 827.447971354 913.576092825 827.447971354 880.986408503 c 0
 827.447971354 876.446859937 826.978107699 871.768275031 826 867 c 0
 817 828 778 796 739 796 c 0
 705.097050643 796 680.262424561 820.1821954 680.262424561 852.123354108 c 0
 680.262424561 856.925464444 680.823757544 861.902949357 682 867 c 0
EndSplineSet
Validated: 524289
Position2: "sous-table 'cpsp' Chasses pour composition en capitales dans Latin lookup 1" dx=5 dy=0 dh=10 dv=0
EndChar

StartChar: Yacute
Encoding: 221 221 181
Width: 714
Flags: W
HStem: 0 59<184 282 471 557> 670 59<145 195 402 483 668 729 803 865>
LayerCount: 2
Fore
SplineSet
172 0 m 1
 184 59 l 1
 282 59 l 1
 334 302 l 1
 195 670 l 1
 133 670 l 1
 145 729 l 1
 495 729 l 1
 483 670 l 1
 402 670 l 1
 507 392 l 1
 729 670 l 1
 656 670 l 1
 668 729 l 1
 877 729 l 1
 865 670 l 1
 803 670 l 1
 528 327 l 1
 471 59 l 1
 569 59 l 1
 557 0 l 1
 172 0 l 1
562 927 m 1
 698 927 l 1
 525 798 l 1
 445 798 l 1
 562 927 l 1
EndSplineSet
Validated: 1
Position2: "sous-table 'cpsp' Chasses pour composition en capitales dans Latin lookup 1" dx=5 dy=0 dh=10 dv=0
EndChar

StartChar: Thorn
Encoding: 222 222 182
Width: 757
Flags: W
HStem: 0 59<59 152 340 446> 160 59<374 508.653> 528 59<452 567.516> 670 59<201 282 470 587>
VStem: 605.996 205.449<324.955 488.876>
LayerCount: 2
Fore
SplineSet
47 0 m 1
 59 59 l 1
 152 59 l 1
 282 670 l 1
 189 670 l 1
 201 729 l 1
 599 729 l 1
 587 670 l 1
 470 670 l 1
 452 587 l 1
 586 587 l 2
 667 587 727 568 767 529 c 0
 796.62962963 500.111111111 811.444444444 464.637860082 811.444444444 421.767362699 c 0
 811.444444444 406.762688615 809.62962963 390.851851852 806 374 c 0
 792 309 757 257 701 218 c 0
 645 179 577 160 496 160 c 2
 362 160 l 1
 340 59 l 1
 458 59 l 1
 446 0 l 1
 47 0 l 1
374 219 m 1
 429 219 l 2
 513 219 581 279 601 374 c 0
 604.357215247 389.611050896 605.995619126 404.320430256 605.995619126 417.990972364 c 0
 605.995619126 485.760201637 565.731835202 528 495 528 c 2
 440 528 l 1
 374 219 l 1
EndSplineSet
Validated: 524289
Position2: "sous-table 'cpsp' Chasses pour composition en capitales dans Latin lookup 1" dx=5 dy=0 dh=10 dv=0
EndChar

StartChar: germandbls
Encoding: 223 223 183
Width: 760
Flags: W
HStem: -14 55<426.119 551.302> 0 59<46 120> 15 126<350 407.896> 705 55<459.011 600.044>
VStem: 350 59<121.929 141> 416.825 163.128<367.257 482.557> 616.167 149.786<576.019 677.715>
LayerCount: 2
Fore
SplineSet
613 596 m 1x9e
 615.07820713 610.027898131 616.16665606 622.466184605 616.16665606 633.444715645 c 0
 616.16665606 685.858505105 591.35757329 705 531 705 c 0
 460 705 423 669 404 581 c 2
 281 0 l 1
 34 0 l 1
 46 59 l 1
 120 59 l 1x5e
 227 560 l 2
 254 691 362 760 537 760 c 0
 693.191590034 760 765.953021054 704.936095051 765.953021054 581.853401159 c 0
 765.953021054 570.184021325 765.29898333 557.903234415 764 545 c 1
 753 545 l 2
 653 545 594 514 582 457 c 0
 580.730129685 451.708873689 579.952989281 446.776096404 579.952989281 441.907777301 c 0
 579.952989281 423.773814768 590.735672412 406.534197903 627 375 c 1
 664 344 l 2
 712 303 742 269 752 243 c 1
 758.425315235 228.397010829 761.438673787 211.746847648 761.438673787 193.448108589 c 0
 761.438673787 180.419804183 759.911163032 166.555815161 757 152 c 0
 735 48 638 -14 491 -14 c 0x9e
 439 -14 384 -5 324 15 c 1
 350 141 l 1
 409 141 l 1x3e
 408.40684128 134.178674722 408.106880283 127.728733226 408.106880283 121.643412237 c 0
 408.106880283 66.1736642084 433.030446985 41 488 41 c 0
 537 41 578 72 588 119 c 0
 588.942307692 123.576923077 589.413461538 128.190088757 589.413461538 132.841936447 c 0
 589.413461538 162.746671598 569.942307692 194.25 531 228 c 0
 525 233 521 236 517 239 c 2
 481 270 l 2
 436.989366985 307.061585697 416.825281442 344.123171393 416.825281442 390.390911909 c 0
 416.825281442 404.046445129 418.58174553 418.50391307 422 434 c 1
 440 522 504 575 613 596 c 1x9e
EndSplineSet
Validated: 524289
Ligature2: "sous-table 'liga' Ligatures standard dans Latin lookup 8" s s
EndChar

StartChar: agrave
Encoding: 224 224 184
Width: 648
Flags: W
HStem: -14 55<289.043 352.02> 0 60<562 625> 478 55<371.95 489> 499 20G<515.238 660>
VStem: 87.747 182.561<91.8914 271.611>
LayerCount: 2
Fore
SplineSet
418 800 m 1x08
 504 616 l 1
 424 616 l 1
 282 800 l 1
 418 800 l 1x08
342 41 m 1xa8
 345.274967354 40.6491106407 348.686738421 40.4760661094 352.184110037 40.4760661094 c 0
 378.588228932 40.4760661094 409.871409916 50.3392623955 424 68 c 1
 501 431 l 1
 493 462 472 478 435 478 c 0
 398 478 369 462 347 431 c 0
 326 400 306 343 289 260 c 0
 276.538461538 202.538461538 270.307692308 157.538461538 270.307692308 124.668183887 c 0
 270.307692308 110.059171598 271.538461538 97.8461538462 274 88 c 1
 283 57 305 41 342 41 c 1xa8
331 -14 m 1
 175.389606592 -14 87.7469603972 60.4752974793 87.7469603972 187.906471678 c 0
 87.7469603972 210.336141396 90.4622106891 234.406433185 96 260 c 0
 132 431 264 533 447 533 c 0xa8
 476 533 502 522 515 498 c 1
 520 519 l 1
 660 519 l 1
 562 60 l 1
 638 60 l 1
 625 0 l 1
 410 0 l 1x58
 414 22 l 1
 395 -2 367 -12 331 -14 c 1
EndSplineSet
Validated: 524289
EndChar

StartChar: aacute
Encoding: 225 225 185
Width: 648
Flags: W
HStem: -14 55<289.043 352.02> 0 60<562 625> 478 55<371.95 489> 499 20G<515.238 660>
VStem: 87.747 182.561<91.8914 271.611>
LayerCount: 2
Fore
SplineSet
508 800 m 1x08
 644 800 l 1
 422 616 l 1
 342 616 l 1
 508 800 l 1x08
342 41 m 1xa8
 345.274967354 40.6491106407 348.686738421 40.4760661094 352.184110037 40.4760661094 c 0
 378.588228932 40.4760661094 409.871409916 50.3392623955 424 68 c 1
 501 431 l 1
 493 462 472 478 435 478 c 0
 398 478 369 462 347 431 c 0
 326 400 306 343 289 260 c 0
 276.538461538 202.538461538 270.307692308 157.538461538 270.307692308 124.668183887 c 0
 270.307692308 110.059171598 271.538461538 97.8461538462 274 88 c 1
 283 57 305 41 342 41 c 1xa8
331 -14 m 1
 175.389606592 -14 87.7469603972 60.4752974793 87.7469603972 187.906471678 c 0
 87.7469603972 210.336141396 90.4622106891 234.406433185 96 260 c 0
 132 431 264 533 447 533 c 0xa8
 476 533 502 522 515 498 c 1
 520 519 l 1
 660 519 l 1
 562 60 l 1
 638 60 l 1
 625 0 l 1
 410 0 l 1x58
 414 22 l 1
 395 -2 367 -12 331 -14 c 1
EndSplineSet
Validated: 524289
EndChar

StartChar: acircumflex
Encoding: 226 226 186
Width: 648
Flags: W
HStem: -14 55<289.043 352.02> 0 60<562 625> 478 55<371.95 489> 499 20G<515.238 660>
VStem: 87.747 182.561<91.8914 271.611>
LayerCount: 2
Fore
SplineSet
404 800 m 1x08
 522 800 l 1
 607 616 l 1
 527 616 l 1
 447 726 l 1
 319 616 l 1
 239 616 l 1
 404 800 l 1x08
342 41 m 1xa8
 345.274967354 40.6491106407 348.686738421 40.4760661094 352.184110037 40.4760661094 c 0
 378.588228932 40.4760661094 409.871409916 50.3392623955 424 68 c 1
 501 431 l 1
 493 462 472 478 435 478 c 0
 398 478 369 462 347 431 c 0
 326 400 306 343 289 260 c 0
 276.538461538 202.538461538 270.307692308 157.538461538 270.307692308 124.668183887 c 0
 270.307692308 110.059171598 271.538461538 97.8461538462 274 88 c 1
 283 57 305 41 342 41 c 1xa8
331 -14 m 1
 175.389606592 -14 87.7469603972 60.4752974793 87.7469603972 187.906471678 c 0
 87.7469603972 210.336141396 90.4622106891 234.406433185 96 260 c 0
 132 431 264 533 447 533 c 0xa8
 476 533 502 522 515 498 c 1
 520 519 l 1
 660 519 l 1
 562 60 l 1
 638 60 l 1
 625 0 l 1
 410 0 l 1x58
 414 22 l 1
 395 -2 367 -12 331 -14 c 1
EndSplineSet
Validated: 524289
EndChar

StartChar: atilde
Encoding: 227 227 187
Width: 648
Flags: W
HStem: -14 55<289.043 352.02> 0 60<562 625> 478 55<371.95 489> 499 20G<515.238 660> 638 89<478.438 562.919> 703 89<326.081 405.304>
VStem: 87.747 182.561<91.8914 271.611> 253 54<639 684.395> 582 52<745.605 791>
LayerCount: 2
Fore
SplineSet
253 639 m 1x0580
 255 647 l 1
 275 742 321 792 388 792 c 0x0580
 412 792 430 785 457 765 c 2
 487 742 l 1
 488 741 l 1
 501 732 513 727 524 727 c 0
 551 727 573 751 582 791 c 1
 636 791 l 1
 634 783 l 1
 614 688 568 638 501 638 c 0x0980
 477 638 459 645 432 665 c 2
 402 688 l 1
 401 688 l 1
 388 698 376 703 365 703 c 0
 338 703 316 679 307 639 c 1
 253 639 l 1x0580
342 41 m 1xa080
 345.274967354 40.6491106407 348.686738421 40.4760661094 352.184110037 40.4760661094 c 0
 378.588228932 40.4760661094 409.871409916 50.3392623955 424 68 c 1
 501 431 l 1
 493 462 472 478 435 478 c 0
 398 478 369 462 347 431 c 0
 326 400 306 343 289 260 c 0
 276.538461538 202.538461538 270.307692308 157.538461538 270.307692308 124.668183887 c 0
 270.307692308 110.059171598 271.538461538 97.8461538462 274 88 c 1
 283 57 305 41 342 41 c 1xa080
331 -14 m 1
 175.389606592 -14 87.7469603972 60.4752974793 87.7469603972 187.906471678 c 0
 87.7469603972 210.336141396 90.4622106891 234.406433185 96 260 c 0
 132 431 264 533 447 533 c 0xa280
 476 533 502 522 515 498 c 1
 520 519 l 1
 660 519 l 1
 562 60 l 1
 638 60 l 1
 625 0 l 1
 410 0 l 1x5280
 414 22 l 1
 395 -2 367 -12 331 -14 c 1
EndSplineSet
Validated: 524289
EndChar

StartChar: adieresis
Encoding: 228 228 188
Width: 648
Flags: W
HStem: -14 55<289.043 352.02> 0 60<562 625> 478 55<371.95 489> 499 20G<515.238 660> 645 143<295.875 375.625 513.875 593.892>
VStem: 87.747 182.561<91.8914 271.611> 262.552 145.938<677.623 755.174> 480.552 146.896<678.531 755.174>
LayerCount: 2
Fore
SplineSet
264 717 m 0x0b
 272 756 312 788 351 788 c 0
 385.095145972 788 408.490288194 763.542848571 408.490288194 731.332675281 c 0
 408.490288194 726.69898935 408.006123903 721.904854028 407 717 c 0
 399 678 360 645 321 645 c 0
 286.768275031 645 262.552028646 670.423907175 262.552028646 703.013591497 c 0
 262.552028646 707.553140063 263.021892301 712.231724969 264 717 c 0x0b
482 717 m 0
 490 756 530 788 569 788 c 0
 603.231724969 788 627.447971354 763.346514254 627.447971354 730.945218716 c 0
 627.447971354 726.431911582 626.978107699 721.768275031 626 717 c 0
 618 678 578 645 539 645 c 0
 504.768275031 645 480.552028646 670.423907175 480.552028646 703.013591497 c 0
 480.552028646 707.553140063 481.021892301 712.231724969 482 717 c 0
342 41 m 1xa9
 345.274967354 40.6491106407 348.686738421 40.4760661094 352.184110037 40.4760661094 c 0
 378.588228932 40.4760661094 409.871409916 50.3392623955 424 68 c 1
 501 431 l 1
 493 462 472 478 435 478 c 0
 398 478 369 462 347 431 c 0
 326 400 306 343 289 260 c 0
 276.538461538 202.538461538 270.307692308 157.538461538 270.307692308 124.668183887 c 0
 270.307692308 110.059171598 271.538461538 97.8461538462 274 88 c 1
 283 57 305 41 342 41 c 1xa9
331 -14 m 1
 175.389606592 -14 87.7469603972 60.4752974793 87.7469603972 187.906471678 c 0
 87.7469603972 210.336141396 90.4622106891 234.406433185 96 260 c 0
 132 431 264 533 447 533 c 0xad
 476 533 502 522 515 498 c 1
 520 519 l 1
 660 519 l 1
 562 60 l 1
 638 60 l 1
 625 0 l 1
 410 0 l 1x5d
 414 22 l 1
 395 -2 367 -12 331 -14 c 1
EndSplineSet
Validated: 524289
EndChar

StartChar: aring
Encoding: 229 229 189
Width: 648
Flags: W
HStem: -14 55<289.043 352.02> 0 60<562 625> 478 55<371.95 489> 499 20G<515.238 660> 610 75<394.592 490.505> 813 75<413.169 508.284>
VStem: 87.747 182.561<91.8914 271.611> 308.977 77.4316<693.256 786.981> 517.255 76.964<712.547 803.368>
LayerCount: 2
Fore
SplineSet
313 749 m 0x0f80
 321 788 341 820 374 847 c 0
 406 874 442 888 481 888 c 0
 520 888 549 874 571 847 c 0
 586.349317116 827.265163708 594.219220393 804.859108188 594.219220393 779.000854564 c 0
 594.219220393 769.481421871 593.152641099 759.494125356 591 749 c 0
 582 710 561 677 529 650 c 0
 496 623 461 610 422 610 c 0
 383 610 353 623 332 650 c 0
 316.535287897 668.979419399 308.976602916 690.923598969 308.976602916 715.832538709 c 0
 308.976602916 726.358896479 310.326473133 737.41471691 313 749 c 0x0f80
388 749 m 0
 386.923336971 744.155016371 386.40816303 739.454933151 386.40816303 734.948503126 c 0
 386.40816303 705.970510232 407.710400751 685 438 685 c 0
 474 685 508 714 516 749 c 0
 516.847445089 753.237225443 517.255198435 757.386512538 517.255198435 761.407051113 c 0
 517.255198435 790.596652527 495.762774557 813 465 813 c 0
 429 813 395 784 388 749 c 0
342 41 m 1xaf80
 345.274967354 40.6491106407 348.686738421 40.4760661094 352.184110037 40.4760661094 c 0
 378.588228932 40.4760661094 409.871409916 50.3392623955 424 68 c 1
 501 431 l 1
 493 462 472 478 435 478 c 0
 398 478 369 462 347 431 c 0
 326 400 306 343 289 260 c 0
 276.538461538 202.538461538 270.307692308 157.538461538 270.307692308 124.668183887 c 0
 270.307692308 110.059171598 271.538461538 97.8461538462 274 88 c 1
 283 57 305 41 342 41 c 1xaf80
331 -14 m 1
 175.389606592 -14 87.7469603972 60.4752974793 87.7469603972 187.906471678 c 0
 87.7469603972 210.336141396 90.4622106891 234.406433185 96 260 c 0
 132 431 264 533 447 533 c 0xaf80
 476 533 502 522 515 498 c 1
 520 519 l 1
 660 519 l 1
 562 60 l 1
 638 60 l 1
 625 0 l 1
 410 0 l 1x5f80
 414 22 l 1
 395 -2 367 -12 331 -14 c 1
EndSplineSet
Validated: 524289
EndChar

StartChar: ae
Encoding: 230 230 190
Width: 975
Flags: W
HStem: -14 70<185.792 366.987> -14 54.9772<649.153 801.181> 267 58<301.375 439> 478 55<272.417 429.581 717.862 810.835>
VStem: 68.1929 172.523<67.4945 200.605> 163 55<388 420.667> 829.627 166.965<305.453 442.603>
LayerCount: 2
Fore
SplineSet
163 388 m 1xb6
 187 500 l 1
 253 523 322 533 395 533 c 0
 479 533 536 511 567 465 c 1
 625 509 698 533 783 533 c 1
 786.359576906 533.114271323 789.683636227 533.170565414 792.971879535 533.170565414 c 0
 922.620979069 533.170565414 996.591470981 445.65729253 996.591470981 373.796974153 c 0
 996.591470981 367.732498024 996.064645449 361.779503864 995 356 c 1
 993 346 l 1
 969 232 749 166 614 124 c 1
 626.802438934 72.7902442651 649.303247255 40.9772273056 716.841062873 40.9772273056 c 0
 717.883273887 40.9772273056 718.936209643 40.9848029949 720 41 c 1
 795 41 851 82 880 157 c 1
 961 157 l 1
 908 40 816 -14 667 -14 c 0x76
 570 -14 502 14 467 68 c 1
 466 62 l 1
 398 11 324 -14 243 -14 c 0
 128.584142749 -14 68.1929422061 28.1836360594 68.1929422061 108.730981877 c 0xba
 68.1929422061 121.813988103 69.786200878 135.909117166 73 151 c 0
 97 268 193 325 361 325 c 2
 452 325 l 1
 458 356 l 1
 460.372029155 367.267138485 461.535235157 377.874918887 461.535235157 387.771207319 c 0
 461.535235157 444.628151912 423.139854226 478 355 478 c 0
 288 478 248 452 218 388 c 1
 163 388 l 1xb6
417 161 m 1
 439 267 l 1
 374 267 l 2
 303 267 262 231 246 158 c 0
 242.526635615 141.096293326 240.715458184 126.551819748 240.715458184 114.18034117 c 0
 240.715458184 73.1246067971 260.661899915 56 306 56 c 0xba
 362 56 402 94 417 161 c 1
824 346 m 0
 827.503288933 361.091090788 829.626769383 377.634611557 829.626769383 393.751812075 c 0
 829.626769383 437.442298207 814.022522864 478 768 478 c 1
 705 476 651 374 639 336 c 1
 622.327541727 299.145092238 610.275097828 234.570098227 610.275097828 193.626349225 c 0
 610.275097828 187.910438429 610.509991215 182.655083453 611 178 c 1
 736 236 806 264 824 346 c 0
EndSplineSet
Validated: 524289
Ligature2: "sous-table 'dpng' Dipthongs (Obsolete) dans Latin lookup 9" a e
EndChar

StartChar: ccedilla
Encoding: 231 231 191
Width: 609
Flags: W
HStem: -196 72<170.237 307.738> 478 55<388.305 538.071>
VStem: 87.5057 186.564<86.9318 283.716> 321.248 74.1599<-110.903 -22.6934> 517 81<119.742 162> 565 55<348 373.646>
LayerCount: 2
Fore
SplineSet
302.828871731 -13.3060847691 m 1xf8
 163.003876337 -5.69930521671 87.5056875842 64.2107416359 87.5056875842 184.744883581 c 0
 87.5056875842 207.97710292 90.3104609206 233.090017868 96 260 c 0
 132 432 259 533 438 533 c 0
 510 533 581 520 651 492 c 1
 620 348 l 1
 565 348 l 1xf4
 565.834095385 357.175049238 566.255109923 365.850053239 566.255109923 374.02954554 c 0
 566.255109923 444.301438503 535.180355763 478 468 478 c 0
 372 478 323 420 289 260 c 0
 279.135791707 214.45056759 274.069376234 176.897456545 274.069376234 146.5347989 c 0
 274.069376234 72.2433039473 304.401263372 41 369 41 c 0
 438 41 492 85 517 162 c 1
 598 162 l 1
 552.948953097 54.7785083719 477.859873155 -2.10898194614 366.880890603 -12.3198892979 c 1
 385.786073419 -39.9657245959 395.408060619 -64.6057097436 395.408060607 -88.950177274 c 0
 395.408060607 -95.9696961967 394.608081014 -102.964645563 393 -110 c 0
 381 -166 332 -196 253 -196 c 0
 222 -196 190 -191 157 -183 c 1
 173 -107 l 1
 199 -118 226 -124 250 -124 c 0
 289 -124 314 -108 320 -79 c 0
 320.807401701 -75.1648419221 321.248111054 -71.4519146265 321.248111054 -67.6062706476 c 0
 321.248111054 -54.4560529811 316.094875443 -39.7539727694 302.828871731 -13.3060847691 c 1xf8
EndSplineSet
Validated: 8912897
EndChar

StartChar: egrave
Encoding: 232 232 192
Width: 636
Flags: W
HStem: -14 54.9772<296.384 451.181> 478 55.1706<369.465 460.835>
VStem: 86.6739 173.601<130.843 306.329> 479.627 166.965<346 442.603>
LayerCount: 2
Fore
SplineSet
443 800 m 1
 529 616 l 1
 449 616 l 1
 307 800 l 1
 443 800 l 1
474 346 m 0
 477.503288933 361.091090788 479.626769383 377.634611557 479.626769383 393.751812075 c 0
 479.626769383 437.442298207 464.022522864 478 418 478 c 1
 355 476 301 374 289 336 c 1
 272.327541727 299.145092238 260.275097828 234.570098227 260.275097828 193.626349225 c 0
 260.275097828 187.910438429 260.509991215 182.655083453 261 178 c 1
 386 236 456 264 474 346 c 0
645 356 m 1
 643 346 l 1
 619 232 399 166 264 124 c 1
 276.802438934 72.7902442651 299.303247255 40.9772273056 366.841062873 40.9772273056 c 0
 367.883273887 40.9772273056 368.936209643 40.9848029949 370 41 c 1
 445 41 501 82 530 157 c 1
 611 157 l 1
 558 40 466 -14 317 -14 c 0
 166.562756533 -14 86.6739015359 54.4528917822 86.6739015359 179.683092187 c 0
 86.6739015359 204.292356753 89.7589736208 231.094193612 96 260 c 1
 132 432 257 533 433 533 c 1
 436.359576906 533.114271323 439.683636227 533.170565414 442.971879535 533.170565414 c 0
 572.620979069 533.170565414 646.591470981 445.65729253 646.591470981 373.796974153 c 0
 646.591470981 367.732498024 646.064645449 361.779503864 645 356 c 1
EndSplineSet
Validated: 524289
EndChar

StartChar: eacute
Encoding: 233 233 193
Width: 636
Flags: W
HStem: -14 54.9772<296.384 451.181> 478 55.1706<369.465 460.835>
VStem: 86.6739 173.601<130.843 306.329> 479.627 166.965<346 442.603>
LayerCount: 2
Fore
SplineSet
533 800 m 1
 669 800 l 1
 447 616 l 1
 367 616 l 1
 533 800 l 1
474 346 m 0
 477.503288933 361.091090788 479.626769383 377.634611557 479.626769383 393.751812075 c 0
 479.626769383 437.442298207 464.022522864 478 418 478 c 1
 355 476 301 374 289 336 c 1
 272.327541727 299.145092238 260.275097828 234.570098227 260.275097828 193.626349225 c 0
 260.275097828 187.910438429 260.509991215 182.655083453 261 178 c 1
 386 236 456 264 474 346 c 0
645 356 m 1
 643 346 l 1
 619 232 399 166 264 124 c 1
 276.802438934 72.7902442651 299.303247255 40.9772273056 366.841062873 40.9772273056 c 0
 367.883273887 40.9772273056 368.936209643 40.9848029949 370 41 c 1
 445 41 501 82 530 157 c 1
 611 157 l 1
 558 40 466 -14 317 -14 c 0
 166.562756533 -14 86.6739015359 54.4528917822 86.6739015359 179.683092187 c 0
 86.6739015359 204.292356753 89.7589736208 231.094193612 96 260 c 1
 132 432 257 533 433 533 c 1
 436.359576906 533.114271323 439.683636227 533.170565414 442.971879535 533.170565414 c 0
 572.620979069 533.170565414 646.591470981 445.65729253 646.591470981 373.796974153 c 0
 646.591470981 367.732498024 646.064645449 361.779503864 645 356 c 1
EndSplineSet
Validated: 524289
EndChar

StartChar: ecircumflex
Encoding: 234 234 194
Width: 636
Flags: W
HStem: -14 54.9772<296.384 451.181> 478 55.1706<369.465 460.835>
VStem: 86.6739 173.601<130.843 306.329> 479.627 166.965<346 442.603>
LayerCount: 2
Fore
SplineSet
429 800 m 1
 547 800 l 1
 632 616 l 1
 552 616 l 1
 472 726 l 1
 344 616 l 1
 264 616 l 1
 429 800 l 1
474 346 m 0
 477.503288933 361.091090788 479.626769383 377.634611557 479.626769383 393.751812075 c 0
 479.626769383 437.442298207 464.022522864 478 418 478 c 1
 355 476 301 374 289 336 c 1
 272.327541727 299.145092238 260.275097828 234.570098227 260.275097828 193.626349225 c 0
 260.275097828 187.910438429 260.509991215 182.655083453 261 178 c 1
 386 236 456 264 474 346 c 0
645 356 m 1
 643 346 l 1
 619 232 399 166 264 124 c 1
 276.802438934 72.7902442651 299.303247255 40.9772273056 366.841062873 40.9772273056 c 0
 367.883273887 40.9772273056 368.936209643 40.9848029949 370 41 c 1
 445 41 501 82 530 157 c 1
 611 157 l 1
 558 40 466 -14 317 -14 c 0
 166.562756533 -14 86.6739015359 54.4528917822 86.6739015359 179.683092187 c 0
 86.6739015359 204.292356753 89.7589736208 231.094193612 96 260 c 1
 132 432 257 533 433 533 c 1
 436.359576906 533.114271323 439.683636227 533.170565414 442.971879535 533.170565414 c 0
 572.620979069 533.170565414 646.591470981 445.65729253 646.591470981 373.796974153 c 0
 646.591470981 367.732498024 646.064645449 361.779503864 645 356 c 1
EndSplineSet
Validated: 524289
EndChar

StartChar: edieresis
Encoding: 235 235 195
Width: 636
Flags: W
HStem: -14 54.9772<296.384 451.181> 478 55.1706<369.465 460.835> 645 143<320.875 400.625 538.875 618.892>
VStem: 86.6739 173.601<130.843 306.329> 287.552 145.938<677.623 755.174> 479.627 166.965<346 442.603> 505.552 146.896<678.531 755.174>
LayerCount: 2
Fore
SplineSet
289 717 m 0xf8
 297 756 337 788 376 788 c 0
 410.095145972 788 433.490288194 763.542848571 433.490288194 731.332675281 c 0
 433.490288194 726.69898935 433.006123903 721.904854028 432 717 c 0
 424 678 385 645 346 645 c 0
 311.768275031 645 287.552028646 670.423907175 287.552028646 703.013591497 c 0
 287.552028646 707.553140063 288.021892301 712.231724969 289 717 c 0xf8
507 717 m 0
 515 756 555 788 594 788 c 0
 628.231724969 788 652.447971354 763.346514254 652.447971354 730.945218716 c 0
 652.447971354 726.431911582 651.978107699 721.768275031 651 717 c 0
 643 678 603 645 564 645 c 0
 529.768275031 645 505.552028646 670.423907175 505.552028646 703.013591497 c 0xfa
 505.552028646 707.553140063 506.021892301 712.231724969 507 717 c 0
474 346 m 0
 477.503288933 361.091090788 479.626769383 377.634611557 479.626769383 393.751812075 c 0xfc
 479.626769383 437.442298207 464.022522864 478 418 478 c 1
 355 476 301 374 289 336 c 1
 272.327541727 299.145092238 260.275097828 234.570098227 260.275097828 193.626349225 c 0
 260.275097828 187.910438429 260.509991215 182.655083453 261 178 c 1
 386 236 456 264 474 346 c 0
645 356 m 1
 643 346 l 1
 619 232 399 166 264 124 c 1
 276.802438934 72.7902442651 299.303247255 40.9772273056 366.841062873 40.9772273056 c 0
 367.883273887 40.9772273056 368.936209643 40.9848029949 370 41 c 1
 445 41 501 82 530 157 c 1
 611 157 l 1
 558 40 466 -14 317 -14 c 0
 166.562756533 -14 86.6739015359 54.4528917822 86.6739015359 179.683092187 c 0
 86.6739015359 204.292356753 89.7589736208 231.094193612 96 260 c 1
 132 432 257 533 433 533 c 1
 436.359576906 533.114271323 439.683636227 533.170565414 442.971879535 533.170565414 c 0
 572.620979069 533.170565414 646.591470981 445.65729253 646.591470981 373.796974153 c 0
 646.591470981 367.732498024 646.064645449 361.779503864 645 356 c 1
EndSplineSet
Validated: 524289
EndChar

StartChar: igrave
Encoding: 236 236 196
Width: 380
Flags: W
HStem: 0 59<46 120 293 355> 460 59<144 205>
LayerCount: 2
Fore
SplineSet
293 59 m 1
 367 59 l 1
 355 0 l 1
 34 0 l 1
 46 59 l 1
 120 59 l 1
 205 460 l 1
 131 460 l 1
 144 519 l 1
 391 519 l 1
 293 59 l 1
315 800 m 1
 401 616 l 1
 321 616 l 1
 179 800 l 1
 315 800 l 1
EndSplineSet
Validated: 1
EndChar

StartChar: iacute
Encoding: 237 237 197
Width: 380
Flags: W
HStem: 0 59<46 120 293 355> 460 59<144 205>
LayerCount: 2
Fore
SplineSet
293 59 m 1
 367 59 l 1
 355 0 l 1
 34 0 l 1
 46 59 l 1
 120 59 l 1
 205 460 l 1
 131 460 l 1
 144 519 l 1
 391 519 l 1
 293 59 l 1
405 800 m 1
 541 800 l 1
 319 616 l 1
 239 616 l 1
 405 800 l 1
EndSplineSet
Validated: 1
EndChar

StartChar: icircumflex
Encoding: 238 238 198
Width: 380
Flags: W
HStem: 0 59<46 120 293 355> 460 59<144 205>
LayerCount: 2
Fore
SplineSet
293 59 m 1
 367 59 l 1
 355 0 l 1
 34 0 l 1
 46 59 l 1
 120 59 l 1
 205 460 l 1
 131 460 l 1
 144 519 l 1
 391 519 l 1
 293 59 l 1
301 800 m 1
 419 800 l 1
 504 616 l 1
 424 616 l 1
 344 726 l 1
 216 616 l 1
 136 616 l 1
 301 800 l 1
EndSplineSet
Validated: 1
EndChar

StartChar: idieresis
Encoding: 239 239 199
Width: 380
Flags: W
HStem: 0 59<46 120 293 355> 460 59<144 205> 645 143<192.875 272.625 410.875 490.892>
VStem: 159.552 145.938<677.623 755.174> 377.552 146.896<678.531 755.174>
LayerCount: 2
Fore
SplineSet
293 59 m 1
 367 59 l 1
 355 0 l 1
 34 0 l 1
 46 59 l 1
 120 59 l 1
 205 460 l 1
 131 460 l 1
 144 519 l 1
 391 519 l 1
 293 59 l 1
161 717 m 0
 169 756 209 788 248 788 c 0
 282.095145972 788 305.490288194 763.542848571 305.490288194 731.332675281 c 0
 305.490288194 726.69898935 305.006123903 721.904854028 304 717 c 0
 296 678 257 645 218 645 c 0
 183.768275031 645 159.552028646 670.423907175 159.552028646 703.013591497 c 0
 159.552028646 707.553140063 160.021892301 712.231724969 161 717 c 0
379 717 m 0
 387 756 427 788 466 788 c 0
 500.231724969 788 524.447971354 763.346514254 524.447971354 730.945218716 c 0
 524.447971354 726.431911582 523.978107699 721.768275031 523 717 c 0
 515 678 475 645 436 645 c 0
 401.768275031 645 377.552028646 670.423907175 377.552028646 703.013591497 c 0
 377.552028646 707.553140063 378.021892301 712.231724969 379 717 c 0
EndSplineSet
Validated: 524289
EndChar

StartChar: eth
Encoding: 240 240 200
Width: 667
Flags: W
HStem: -14 55<286.941 405.489> 453 55<367.452 500.444> 533 21G<286.286 338.849> 706 54<313.759 360.937>
VStem: 85.775 184.51<92.3817 275.186> 502.323 192.709<232.663 438.032>
LayerCount: 2
Fore
SplineSet
575 653 m 1
 654.261752992 578.355436503 695.031880319 480.615897606 695.031880319 372.085292287 c 0
 695.031880319 339.581263298 691.374989362 306.109325798 684 272 c 0
 646 93 515 -14 331 -14 c 0
 242 -14 175 10 132 57 c 0
 101.183333333 91.4 85.775 134.017777778 85.775 184.48524537 c 0
 85.775 204.4375 88.1833333333 225.616666667 93 248 c 0
 109 323 148 385 211 434 c 0
 273 483 344 508 423 508 c 0
 450 508 478 504 505 496 c 1
 501 537 487 573 463 606 c 1
 292 533 l 1
 278 582 l 1
 428 646 l 1
 400 671 353 691 292 706 c 1
 317 760 l 1
 405 748 477 725 529 689 c 1
 706 764 l 1
 718 714 l 1
 575 653 l 1
501 435 m 1
 473 447 451 453 430 453 c 0
 358 453 318 397 286 248 c 0
 275.614229749 198.667591309 270.284594984 159.552789746 270.284594984 129.219724097 c 0
 270.284594984 66.0924033407 293.367983064 41 342 41 c 0
 414 41 453 95 485 248 c 0
 496.706833141 301.851432447 502.32255774 352.048199769 502.32255774 397.639534081 c 0
 502.32255774 410.464511548 501.878177829 422.925054849 501 435 c 1
EndSplineSet
Validated: 524289
EndChar

StartChar: ntilde
Encoding: 241 241 201
Width: 727
Flags: W
HStem: 0 59<46 120 293 344 406 469 642 704> 452 81<458.382 613.266> 460 59<144 205> 638 89<540.438 624.919> 703 89<388.081 467.304>
VStem: 315 54<639 684.395> 535.588 172.473<270.516 444.74> 644 52<745.605 791>
LayerCount: 2
Fore
SplineSet
34 0 m 1xc6
 46 59 l 1
 120 59 l 1
 205 460 l 1
 131 460 l 1
 144 519 l 1
 391 519 l 1xa6
 375 446 l 1
 429 507 485 533 566 533 c 0
 660.532091857 533 708.061862132 487.303298461 708.061862132 399.602036228 c 0
 708.061862132 378.757645026 705.376935282 355.54044259 700 330 c 2
 642 59 l 1
 716 59 l 1
 704 0 l 1
 394 0 l 1
 406 59 l 1
 469 59 l 1
 528 335 l 2
 532.981236645 359.352712489 535.588416889 379.187059568 535.588416889 395.138833537 c 0
 535.588416889 436.829759941 517.779554695 452 478 452 c 0
 409 452 366 403 343 292 c 2
 293 59 l 1
 356 59 l 1
 344 0 l 1
 34 0 l 1xc6
315 639 m 1
 317 647 l 1
 337 742 383 792 450 792 c 0x8d
 474 792 492 785 519 765 c 2
 549 742 l 1
 550 741 l 1
 563 732 575 727 586 727 c 0
 613 727 635 751 644 791 c 1
 698 791 l 1
 696 783 l 1
 676 688 630 638 563 638 c 0x95
 539 638 521 645 494 665 c 2
 464 688 l 1
 463 688 l 1
 450 698 438 703 427 703 c 0x8d
 400 703 378 679 369 639 c 1
 315 639 l 1
EndSplineSet
Validated: 524289
EndChar

StartChar: ograve
Encoding: 242 242 202
Width: 667
Flags: W
HStem: -14 55<288.086 405.373> 478 55<371.95 489.378>
VStem: 87.747 182.561<91.8914 271.611> 506.165 183.821<244.45 427.805>
LayerCount: 2
Fore
SplineSet
342 41 m 0
 379 41 408 57 429 88 c 0
 451 119 470 177 488 260 c 0
 499.677840111 317.015337011 506.16505238 361.761917306 506.16505238 394.239740885 c 0
 506.16505238 409.041465203 504.817614059 421.294884908 502 431 c 0
 494 462 472 478 435 478 c 0
 398 478 369 462 347 431 c 0
 326 400 306 343 289 260 c 0
 276.538461538 202.538461538 270.307692308 157.538461538 270.307692308 124.668183887 c 0
 270.307692308 110.059171598 271.538461538 97.8461538462 274 88 c 1
 283 57 305 41 342 41 c 0
331 -14 m 0
 175.389606592 -14 87.7469603972 60.4752974793 87.7469603972 187.906471678 c 0
 87.7469603972 210.336141396 90.4622106891 234.406433185 96 260 c 0
 132 431 264 533 447 533 c 0
 603.643289825 533 689.985874782 459.07554746 689.985874782 331.587490188 c 0
 689.985874782 309.322547735 687.352399817 285.42389913 682 260 c 0
 645 89 514 -14 331 -14 c 0
459 800 m 1
 545 616 l 1
 465 616 l 1
 323 800 l 1
 459 800 l 1
EndSplineSet
Validated: 524289
EndChar

StartChar: oacute
Encoding: 243 243 203
Width: 667
Flags: W
HStem: -14 55<288.086 405.373> 478 55<371.95 489.378>
VStem: 87.747 182.561<91.8914 271.611> 506.165 183.821<244.45 427.805>
LayerCount: 2
Fore
SplineSet
342 41 m 0
 379 41 408 57 429 88 c 0
 451 119 470 177 488 260 c 0
 499.677840111 317.015337011 506.16505238 361.761917306 506.16505238 394.239740885 c 0
 506.16505238 409.041465203 504.817614059 421.294884908 502 431 c 0
 494 462 472 478 435 478 c 0
 398 478 369 462 347 431 c 0
 326 400 306 343 289 260 c 0
 276.538461538 202.538461538 270.307692308 157.538461538 270.307692308 124.668183887 c 0
 270.307692308 110.059171598 271.538461538 97.8461538462 274 88 c 1
 283 57 305 41 342 41 c 0
331 -14 m 0
 175.389606592 -14 87.7469603972 60.4752974793 87.7469603972 187.906471678 c 0
 87.7469603972 210.336141396 90.4622106891 234.406433185 96 260 c 0
 132 431 264 533 447 533 c 0
 603.643289825 533 689.985874782 459.07554746 689.985874782 331.587490188 c 0
 689.985874782 309.322547735 687.352399817 285.42389913 682 260 c 0
 645 89 514 -14 331 -14 c 0
549 800 m 1
 685 800 l 1
 463 616 l 1
 383 616 l 1
 549 800 l 1
EndSplineSet
Validated: 524289
EndChar

StartChar: ocircumflex
Encoding: 244 244 204
Width: 667
Flags: W
HStem: -14 55<288.086 405.373> 478 55<371.95 489.378>
VStem: 87.747 182.561<91.8914 271.611> 506.165 183.821<244.45 427.805>
LayerCount: 2
Fore
SplineSet
342 41 m 0
 379 41 408 57 429 88 c 0
 451 119 470 177 488 260 c 0
 499.677840111 317.015337011 506.16505238 361.761917306 506.16505238 394.239740885 c 0
 506.16505238 409.041465203 504.817614059 421.294884908 502 431 c 0
 494 462 472 478 435 478 c 0
 398 478 369 462 347 431 c 0
 326 400 306 343 289 260 c 0
 276.538461538 202.538461538 270.307692308 157.538461538 270.307692308 124.668183887 c 0
 270.307692308 110.059171598 271.538461538 97.8461538462 274 88 c 1
 283 57 305 41 342 41 c 0
331 -14 m 0
 175.389606592 -14 87.7469603972 60.4752974793 87.7469603972 187.906471678 c 0
 87.7469603972 210.336141396 90.4622106891 234.406433185 96 260 c 0
 132 431 264 533 447 533 c 0
 603.643289825 533 689.985874782 459.07554746 689.985874782 331.587490188 c 0
 689.985874782 309.322547735 687.352399817 285.42389913 682 260 c 0
 645 89 514 -14 331 -14 c 0
445 800 m 1
 563 800 l 1
 648 616 l 1
 568 616 l 1
 488 726 l 1
 360 616 l 1
 280 616 l 1
 445 800 l 1
EndSplineSet
Validated: 524289
EndChar

StartChar: otilde
Encoding: 245 245 205
Width: 667
Flags: W
HStem: -14 55<288.086 405.373> 478 55<371.95 489.378> 638 89<519.438 603.919> 703 89<367.081 446.304>
VStem: 87.747 182.561<91.8914 271.611> 294 54<639 684.395> 506.165 183.821<244.45 427.805> 623 52<745.605 791>
LayerCount: 2
Fore
SplineSet
342 41 m 0xce
 379 41 408 57 429 88 c 0
 451 119 470 177 488 260 c 0
 499.677840111 317.015337011 506.16505238 361.761917306 506.16505238 394.239740885 c 0
 506.16505238 409.041465203 504.817614059 421.294884908 502 431 c 0
 494 462 472 478 435 478 c 0
 398 478 369 462 347 431 c 0
 326 400 306 343 289 260 c 0
 276.538461538 202.538461538 270.307692308 157.538461538 270.307692308 124.668183887 c 0
 270.307692308 110.059171598 271.538461538 97.8461538462 274 88 c 1
 283 57 305 41 342 41 c 0xce
331 -14 m 0
 175.389606592 -14 87.7469603972 60.4752974793 87.7469603972 187.906471678 c 0
 87.7469603972 210.336141396 90.4622106891 234.406433185 96 260 c 0
 132 431 264 533 447 533 c 0
 603.643289825 533 689.985874782 459.07554746 689.985874782 331.587490188 c 0
 689.985874782 309.322547735 687.352399817 285.42389913 682 260 c 0
 645 89 514 -14 331 -14 c 0
294 639 m 1
 296 647 l 1
 316 742 362 792 429 792 c 0xdd
 453 792 471 785 498 765 c 2
 528 742 l 1
 529 741 l 1
 542 732 554 727 565 727 c 0
 592 727 614 751 623 791 c 1
 677 791 l 1
 675 783 l 1
 655 688 609 638 542 638 c 0xed
 518 638 500 645 473 665 c 2
 443 688 l 1
 442 688 l 1
 429 698 417 703 406 703 c 0xdd
 379 703 357 679 348 639 c 1
 294 639 l 1
EndSplineSet
Validated: 524289
EndChar

StartChar: odieresis
Encoding: 246 246 206
Width: 667
Flags: W
HStem: -14 55<288.086 405.373> 478 55<371.95 489.378> 645 143<336.875 416.625 554.875 634.892>
VStem: 87.747 182.561<91.8914 271.611> 303.552 145.938<677.623 755.174> 506.165 183.821<244.45 427.805> 521.552 146.896<678.531 755.174>
LayerCount: 2
Fore
SplineSet
342 41 m 0xfc
 379 41 408 57 429 88 c 0
 451 119 470 177 488 260 c 0
 499.677840111 317.015337011 506.16505238 361.761917306 506.16505238 394.239740885 c 0
 506.16505238 409.041465203 504.817614059 421.294884908 502 431 c 0
 494 462 472 478 435 478 c 0
 398 478 369 462 347 431 c 0
 326 400 306 343 289 260 c 0
 276.538461538 202.538461538 270.307692308 157.538461538 270.307692308 124.668183887 c 0
 270.307692308 110.059171598 271.538461538 97.8461538462 274 88 c 1
 283 57 305 41 342 41 c 0xfc
331 -14 m 0
 175.389606592 -14 87.7469603972 60.4752974793 87.7469603972 187.906471678 c 0
 87.7469603972 210.336141396 90.4622106891 234.406433185 96 260 c 0
 132 431 264 533 447 533 c 0
 603.643289825 533 689.985874782 459.07554746 689.985874782 331.587490188 c 0
 689.985874782 309.322547735 687.352399817 285.42389913 682 260 c 0
 645 89 514 -14 331 -14 c 0
305 717 m 0
 313 756 353 788 392 788 c 0
 426.095145972 788 449.490288194 763.542848571 449.490288194 731.332675281 c 0
 449.490288194 726.69898935 449.006123903 721.904854028 448 717 c 0
 440 678 401 645 362 645 c 0
 327.768275031 645 303.552028646 670.423907175 303.552028646 703.013591497 c 0
 303.552028646 707.553140063 304.021892301 712.231724969 305 717 c 0
523 717 m 0
 531 756 571 788 610 788 c 0
 644.231724969 788 668.447971354 763.346514254 668.447971354 730.945218716 c 0
 668.447971354 726.431911582 667.978107699 721.768275031 667 717 c 0
 659 678 619 645 580 645 c 0
 545.768275031 645 521.552028646 670.423907175 521.552028646 703.013591497 c 0xfa
 521.552028646 707.553140063 522.021892301 712.231724969 523 717 c 0
EndSplineSet
Validated: 524289
EndChar

StartChar: divide
Encoding: 247 247 207
Width: 838
Flags: W
HStem: 60 146<406 487.125> 258 111<184 786> 421 146<483 564.125>
VStem: 372.217 149.229<94.6426 171.813> 449.217 149.229<455.643 532.813>
CounterMasks: 1 e0
LayerCount: 2
Fore
SplineSet
451 494 m 0xe8
 459 534 499 567 539 567 c 0
 574.118935352 567 598.446149027 541.562370332 598.446149027 508.283250592 c 0
 598.446149027 503.65789583 597.97621293 498.881064648 597 494 c 0
 588 454 548 421 508 421 c 0
 473.358183088 421 449.216851617 445.751144254 449.216851617 478.364766248 c 0
 449.216851617 483.409240626 449.794408805 488.641816912 451 494 c 0xe8
374 133 m 0
 382 173 422 206 462 206 c 0
 497.118935352 206 521.446149027 180.562370332 521.446149027 147.283250592 c 0
 521.446149027 142.65789583 520.97621293 137.881064648 520 133 c 0
 511 93 471 60 431 60 c 0
 396.358183088 60 372.216851617 84.7511442538 372.216851617 117.364766248 c 0xf0
 372.216851617 122.409240626 372.794408805 127.641816912 374 133 c 0
184 369 m 1
 810 369 l 1
 786 258 l 1
 160 258 l 1
 184 369 l 1
EndSplineSet
Validated: 524289
EndChar

StartChar: oslash
Encoding: 248 248 208
Width: 667
Flags: W
HStem: -14 55<286.116 404.946> 478 55<372.17 490.899>
VStem: 87.7743 182.797<72.5156 227.354>
LayerCount: 2
Fore
SplineSet
278 203 m 1
 507 391 l 1
 507.021677835 392.278992289 507.032547314 393.543416793 507.032547314 394.793304073 c 0
 507.032547314 451.200800783 484.894430394 478 435 478 c 0
 363 478 324 423 292 270 c 2
 278 203 l 1
271 128 m 1
 270.71392035 123.780325165 270.571063441 119.719218364 270.571063441 115.815582103 c 0
 270.571063441 65.1381076427 294.647515536 41 342 41 c 0
 413 41 452 95 484 248 c 1
 499 317 l 1
 271 128 l 1
656 446 m 1
 678.371536831 414.13750815 689.71308666 374.921691633 689.71308666 329.287238935 c 0
 689.71308666 307.606828536 687.153194264 284.477672754 682 260 c 0
 645 89 514 -14 331 -14 c 0
 259 -14 202 2 157 34 c 1
 55 -50 l 1
 23 -8 l 1
 120 72 l 1
 98.2290672882 103.666811217 87.7743065596 142.297420578 87.7743065596 186.743279742 c 0
 87.7743065596 209.66767852 90.555603739 234.13911776 96 260 c 0
 132 431 264 533 447 533 c 0
 523 533 580 517 621 485 c 1
 720 567 l 1
 753 525 l 1
 656 446 l 1
EndSplineSet
Validated: 524289
EndChar

StartChar: ugrave
Encoding: 249 249 209
Width: 727
Flags: W
HStem: -14 81<224.165 378.344> 0 59<631 693> 460 59<133 194 493 543>
VStem: 128.651 172.94<74.2308 253.195>
LayerCount: 2
Fore
SplineSet
729 519 m 1xb0
 631 59 l 1
 705 59 l 1
 693 0 l 1
 446 0 l 1x70
 461 73 l 1
 407 12 352 -14 271 -14 c 0
 177.329528984 -14 128.651391699 31.6443965384 128.651391699 119.247386061 c 0
 128.651391699 140.130525352 131.417617754 163.398040044 137 189 c 1
 194 460 l 1
 120 460 l 1
 133 519 l 1
 380 519 l 1
 315 216 l 2
 306.263477187 172.317385934 301.591696846 139.474085128 301.591696846 117.47009758 c 0
 301.591696846 106.732015514 302.704281515 98.5753163213 305 93 c 0
 313 76 330 67 359 67 c 0
 428 67 470 116 494 228 c 2
 543 460 l 1
 480 460 l 1
 493 519 l 1
 729 519 l 1xb0
470 800 m 1
 556 616 l 1
 476 616 l 1
 334 800 l 1
 470 800 l 1
EndSplineSet
Validated: 524289
EndChar

StartChar: uacute
Encoding: 250 250 210
Width: 727
Flags: W
HStem: -14 81<224.165 378.344> 0 59<631 693> 460 59<133 194 493 543>
VStem: 128.651 172.94<74.2308 253.195>
LayerCount: 2
Fore
SplineSet
729 519 m 1xb0
 631 59 l 1
 705 59 l 1
 693 0 l 1
 446 0 l 1x70
 461 73 l 1
 407 12 352 -14 271 -14 c 0
 177.329528984 -14 128.651391699 31.6443965384 128.651391699 119.247386061 c 0
 128.651391699 140.130525352 131.417617754 163.398040044 137 189 c 1
 194 460 l 1
 120 460 l 1
 133 519 l 1
 380 519 l 1
 315 216 l 2
 306.263477187 172.317385934 301.591696846 139.474085128 301.591696846 117.47009758 c 0
 301.591696846 106.732015514 302.704281515 98.5753163213 305 93 c 0
 313 76 330 67 359 67 c 0
 428 67 470 116 494 228 c 2
 543 460 l 1
 480 460 l 1
 493 519 l 1
 729 519 l 1xb0
560 800 m 1
 696 800 l 1
 474 616 l 1
 394 616 l 1
 560 800 l 1
EndSplineSet
Validated: 524289
EndChar

StartChar: ucircumflex
Encoding: 251 251 211
Width: 727
Flags: W
HStem: -14 81<224.165 378.344> 0 59<631 693> 460 59<133 194 493 543>
VStem: 128.651 172.94<74.2308 253.195>
LayerCount: 2
Fore
SplineSet
729 519 m 1xb0
 631 59 l 1
 705 59 l 1
 693 0 l 1
 446 0 l 1x70
 461 73 l 1
 407 12 352 -14 271 -14 c 0
 177.329528984 -14 128.651391699 31.6443965384 128.651391699 119.247386061 c 0
 128.651391699 140.130525352 131.417617754 163.398040044 137 189 c 1
 194 460 l 1
 120 460 l 1
 133 519 l 1
 380 519 l 1
 315 216 l 2
 306.263477187 172.317385934 301.591696846 139.474085128 301.591696846 117.47009758 c 0
 301.591696846 106.732015514 302.704281515 98.5753163213 305 93 c 0
 313 76 330 67 359 67 c 0
 428 67 470 116 494 228 c 2
 543 460 l 1
 480 460 l 1
 493 519 l 1
 729 519 l 1xb0
456 800 m 1
 574 800 l 1
 659 616 l 1
 579 616 l 1
 499 726 l 1
 371 616 l 1
 291 616 l 1
 456 800 l 1
EndSplineSet
Validated: 524289
EndChar

StartChar: udieresis
Encoding: 252 252 212
Width: 727
Flags: W
HStem: -14 81<224.165 378.344> 0 59<631 693> 460 59<133 194 493 543> 645 143<347.875 427.625 565.875 645.892>
VStem: 128.651 172.94<74.2308 253.195> 314.552 145.938<677.623 755.174> 532.552 146.896<678.531 755.174>
LayerCount: 2
Fore
SplineSet
729 519 m 1xbe
 631 59 l 1
 705 59 l 1
 693 0 l 1
 446 0 l 1x7e
 461 73 l 1
 407 12 352 -14 271 -14 c 0
 177.329528984 -14 128.651391699 31.6443965384 128.651391699 119.247386061 c 0
 128.651391699 140.130525352 131.417617754 163.398040044 137 189 c 1
 194 460 l 1
 120 460 l 1
 133 519 l 1
 380 519 l 1
 315 216 l 2
 306.263477187 172.317385934 301.591696846 139.474085128 301.591696846 117.47009758 c 0
 301.591696846 106.732015514 302.704281515 98.5753163213 305 93 c 0
 313 76 330 67 359 67 c 0
 428 67 470 116 494 228 c 2
 543 460 l 1
 480 460 l 1
 493 519 l 1
 729 519 l 1xbe
316 717 m 0
 324 756 364 788 403 788 c 0
 437.095145972 788 460.490288194 763.542848571 460.490288194 731.332675281 c 0
 460.490288194 726.69898935 460.006123903 721.904854028 459 717 c 0
 451 678 412 645 373 645 c 0
 338.768275031 645 314.552028646 670.423907175 314.552028646 703.013591497 c 0
 314.552028646 707.553140063 315.021892301 712.231724969 316 717 c 0
534 717 m 0
 542 756 582 788 621 788 c 0
 655.231724969 788 679.447971354 763.346514254 679.447971354 730.945218716 c 0
 679.447971354 726.431911582 678.978107699 721.768275031 678 717 c 0
 670 678 630 645 591 645 c 0
 556.768275031 645 532.552028646 670.423907175 532.552028646 703.013591497 c 0
 532.552028646 707.553140063 533.021892301 712.231724969 534 717 c 0
EndSplineSet
Validated: 524289
EndChar

StartChar: yacute
Encoding: 253 253 213
Width: 581
Flags: W
HStem: -222 55<87.4891 194.832> -201 108<29 79.5742> 460 59<97 140 321 383 520 576 639 702>
VStem: 29 55<-118.13 -93>
LayerCount: 2
Fore
SplineSet
287 -117 m 1xb0
 239 -193 193 -222 118 -222 c 0xb0
 86 -222 48 -214 6 -201 c 1
 29 -93 l 1
 84 -93 l 1x70
 82.1481481481 -102.444444444 81.2222222222 -110.92866941 81.2222222222 -118.484428187 c 0
 81.2222222222 -151.729766804 99.1481481481 -167 135 -167 c 0
 178 -167 204 -148 243 -84 c 2
 254 -66 l 1
 140 460 l 1
 84 460 l 1
 97 519 l 1
 396 519 l 1
 383 460 l 1
 321 460 l 1
 388 153 l 1
 576 460 l 1
 507 460 l 1
 520 519 l 1
 715 519 l 1
 702 460 l 1
 639 460 l 1
 287 -117 l 1xb0
506 800 m 1
 642 800 l 1
 420 616 l 1
 340 616 l 1
 506 800 l 1
EndSplineSet
Validated: 524289
EndChar

StartChar: thorn
Encoding: 254 254 214
Width: 699
Flags: W
HStem: -208 59<-9 65 238 305> -14 76<326.004 444.877> 457 76<433.585 594.926> 701 59<184 246>
VStem: 535.452 188.023<234.701 440.644>
LayerCount: 2
Fore
SplineSet
330 285 m 2
 319 234 l 1
 311.919121278 199.728546986 308.287794987 171.072644441 308.287794987 147.600579448 c 0
 308.287794987 88.201344442 331.543225273 62 381 62 c 0
 416 62 444 76 465 105 c 0
 486 134 504 185 520 260 c 0
 530.131993291 307.493718553 535.451926205 345.363316351 535.451926205 373.862729662 c 0
 535.451926205 390.368341509 533.667504193 403.73098826 530 414 c 1
 522 443 500 457 465 457 c 0
 396 457 356 406 330 285 c 2
246 701 m 1
 172 701 l 1
 184 760 l 1
 431 760 l 1
 366 453 l 1
 406 508 461 533 534 533 c 0
 655.851553058 533 723.474468488 462.502771083 723.474468488 343.274014676 c 0
 723.474468488 317.688400602 720.36043304 289.858699549 714 260 c 0
 677 89 566 -14 418 -14 c 0
 345 -14 301 11 284 66 c 1
 238 -149 l 1
 318 -149 l 1
 305 -208 l 1
 -22 -208 l 1
 -9 -149 l 1
 65 -149 l 1
 246 701 l 1
EndSplineSet
Validated: 524289
EndChar

